<?xml version="1.0" encoding="UTF-8"?>
<!DOCTYPE svg PUBLIC "-//W3C//DTD SVG 1.1//EN" "http://www.w3.org/Graphics/SVG/1.1/DTD/svg11.dtd">
<!-- Creator: CorelDRAW X8 -->
<svg xmlns="http://www.w3.org/2000/svg" xml:space="preserve" width="1000px" height="1000px" version="1.1" shape-rendering="geometricPrecision" text-rendering="geometricPrecision" image-rendering="optimizeQuality" fill-rule="evenodd" clip-rule="evenodd"
viewBox="0 0 1000 1000"
 xmlns:xlink="http://www.w3.org/1999/xlink">
 <g id="Capa_x0020_1">
  <metadata id="CorelCorpID_0Corel-Layer"/>
  <g id="_1637361527856">
   <path fill="white" d="M99 68l0 0 246 0c17,0 31,14 31,31l0 0c0,17 -14,30 -30,31l-185 0 0 0 0 0 -1 0 0 0 -1 0 0 0 -1 0 0 0 -1 0 0 0 0 0 0 0 -1 0 0 0 -1 0 0 0 -1 0 0 0 0 1 0 0 -1 0 0 0 -1 0 0 0 -1 0 0 0 0 0 -1 1 -1 0 0 0 0 0 0 0 -1 1 -1 0 0 0 0 0 0 0 -1 1 0 0 -1 0 0 0 -1 1 -1 0 0 1 -1 0 0 0 -1 1 -1 0 0 1 -1 0 0 1 -1 0 0 1 -1 1 0 0 -1 1 0 0 -1 1 0 0 0 1 -1 1 0 0 0 1 -1 1 0 0 0 1 -1 1 0 0 0 1 -1 1 0 1 0 0 0 1 0 1 -1 0 0 1 0 1 0 1 0 1 0 0 0 1 0 1 0 1 0 0 0 185c-1,17 -15,29 -31,29l0 0c-17,0 -31,-13 -31,-30l0 -246 0 0 0 -1 0 -1 0 0 0 -1 0 -1 0 -1 1 0 0 -1 0 -1 0 -1 0 0 1 -1 0 -1 0 -1 0 0 1 -1 0 -1 0 0 1 -1 0 -1 0 0 1 -1 0 -1 0 0 1 -1 0 0 1 -1 0 -1 1 0 0 -1 1 0 0 -1 1 0 0 -1 1 0 0 -1 1 0 1 -1 0 0 1 -1 0 0 1 0 1 -1 0 0 0 0 1 0 0 0 1 -1 0 0 0 0 1 0 0 0 1 -1 0 0 0 0 1 0 1 0 0 0 1 -1 0 0 0 0 0 0 1 0 0 0 1 0 0 0 1 0 0 0 0 -1 0 0 1 0 0 0 1 0 0 0 1 0 0 0 0 0 0 0 1 0 0 0 1 0 0 0z"/>
   <path fill="white" d="M932 901l0 0 0 -246c0,-17 -14,-31 -31,-31l0 0c-17,0 -30,14 -31,30l0 185 0 0 0 0 0 1 0 0 0 1 0 0 0 1 0 0 0 1 0 0 0 0 0 0 0 1 0 0 0 1 0 0 0 1 0 0 -1 0 0 0 0 1 0 0 0 1 0 0 0 1 0 0 0 0 -1 1 0 1 0 0 0 0 0 0 -1 1 0 1 0 0 0 0 0 0 -1 1 0 0 0 1 0 0 -1 1 0 1 -1 0 0 1 0 0 -1 1 0 1 -1 0 0 1 -1 0 0 1 -1 0 -1 1 0 0 -1 1 0 0 -1 1 0 0 -1 0 -1 1 0 0 -1 0 -1 1 0 0 -1 0 -1 1 0 0 -1 0 -1 1 -1 0 0 0 -1 0 -1 0 0 1 -1 0 -1 0 -1 0 -1 0 0 0 -1 0 -1 0 -1 0 0 0 -185 0c-17,1 -29,15 -29,31l0 0c0,17 13,31 30,31l246 0 0 0 1 0 1 0 0 0 1 0 1 0 1 0 0 -1 1 0 1 0 1 0 0 0 1 -1 1 0 1 0 0 0 1 -1 1 0 0 0 1 -1 1 0 0 0 1 -1 1 0 0 0 1 -1 0 0 1 -1 1 0 0 -1 1 0 0 -1 1 0 0 -1 1 0 0 -1 1 0 0 -1 1 -1 0 0 1 -1 0 0 0 -1 1 -1 0 0 0 0 0 -1 0 0 1 -1 0 0 0 0 0 -1 0 0 1 -1 0 0 0 0 0 -1 0 -1 0 0 1 -1 0 0 0 0 0 0 0 -1 0 0 0 -1 0 0 0 -1 0 0 1 0 0 0 0 -1 0 0 0 -1 0 0 0 -1 0 0 0 0 0 0 0 -1 0 0 0 -1 0 0z"/>
   <path fill="white" d="M62 556l0 0c35,0 63,28 63,62l0 320c0,34 -28,62 -63,62l0 0c-34,0 -62,-28 -62,-62l0 -320c0,-34 28,-62 62,-62z"/>
   <path fill="white" d="M982 18l0 0c-24,-24 -63,-24 -87,0l-876 876c-24,24 -24,63 0,87l0 0c24,24 63,24 87,0l876 -876c24,-24 24,-63 0,-87z"/>
  </g>
 </g>
</svg>
