<?xml version="1.0" encoding="UTF-8"?>
<!DOCTYPE svg PUBLIC "-//W3C//DTD SVG 1.1//EN" "http://www.w3.org/Graphics/SVG/1.1/DTD/svg11.dtd">
<!-- Creator: CorelDRAW X8 -->
<svg xmlns="http://www.w3.org/2000/svg" xml:space="preserve" width="3543px" height="3543px" version="1.1" shape-rendering="geometricPrecision" text-rendering="geometricPrecision" image-rendering="optimizeQuality" fill-rule="evenodd" clip-rule="evenodd"
viewBox="0 0 3543 3543"
 xmlns:xlink="http://www.w3.org/1999/xlink">
 <g id="Capa_x0020_1">
  <metadata id="CorelCorpID_0Corel-Layer"/>
  <rect fill="white" width="3543" height="3543"/>
  <line fill="none" stroke="black" stroke-width="11.81" x1="688" y1="369" x2="688" y2= "3174" />
  <line fill="none" stroke="black" stroke-width="11.81" x1="1103" y1="2796" x2="1103" y2= "2913" />
  <line fill="none" stroke="black" stroke-width="11.81" x1="1931" y1="2796" x2="1931" y2= "2913" />
  <line fill="none" stroke="black" stroke-width="11.81" x1="2760" y1="2796" x2="2760" y2= "2913" />
  <line fill="none" stroke="black" stroke-width="11.81" x1="630" y1="2440" x2="747" y2= "2440" />
  <line fill="none" stroke="black" stroke-width="11.81" x1="369" y1="2855" x2="3174" y2= "2855" />
  <path fill="black" fill-rule="nonzero" d="M484 821l17 -2c2,8 4,14 8,18 4,3 9,5 16,5 5,0 10,-1 14,-4 4,-2 7,-5 10,-10 3,-4 5,-9 7,-16 1,-7 2,-15 2,-22 0,-1 0,-2 0,-3 -3,5 -8,10 -14,13 -6,4 -13,5 -20,5 -12,0 -22,-4 -30,-12 -8,-9 -12,-20 -12,-34 0,-15 4,-27 13,-35 8,-9 19,-14 32,-14 9,0 17,3 25,8 8,5 14,12 18,21 4,9 6,23 6,40 0,19 -2,33 -6,44 -4,11 -10,19 -18,25 -8,6 -17,8 -28,8 -11,0 -20,-3 -27,-9 -7,-6 -11,-15 -13,-26zm72 -63c0,-10 -3,-18 -8,-24 -5,-6 -12,-9 -19,-9 -8,0 -15,3 -21,9 -5,7 -8,15 -8,25 0,9 2,17 8,22 5,6 12,9 20,9 8,0 15,-3 20,-9 5,-5 8,-13 8,-23z"/>
  <path fill="black" fill-rule="nonzero" d="M2715 3052l17 -2c2,8 4,14 8,18 4,3 9,5 16,5 5,0 10,-1 14,-4 4,-2 7,-6 10,-10 3,-4 5,-9 7,-16 1,-7 2,-15 2,-22 0,-1 0,-2 0,-3 -3,5 -8,10 -14,13 -6,4 -13,5 -20,5 -12,0 -22,-4 -30,-12 -8,-9 -12,-20 -12,-34 0,-15 4,-27 13,-36 8,-8 19,-13 32,-13 9,0 17,3 25,8 8,5 14,12 18,21 4,9 6,23 6,40 0,19 -2,33 -6,44 -4,11 -10,19 -18,25 -8,6 -17,8 -28,8 -11,0 -20,-3 -27,-9 -7,-6 -11,-15 -13,-26zm72 -63c0,-10 -3,-18 -8,-24 -5,-6 -12,-9 -19,-9 -8,0 -15,3 -21,9 -5,7 -8,15 -8,25 0,9 2,17 8,22 5,6 12,9 20,9 8,0 15,-3 20,-9 5,-5 8,-13 8,-23z"/>
  <path fill="black" fill-rule="nonzero" d="M574 1574l-18 2c-1,-7 -4,-12 -7,-15 -4,-5 -10,-8 -17,-8 -6,0 -11,2 -15,5 -6,4 -10,10 -13,18 -3,7 -5,18 -5,33 4,-7 9,-12 15,-15 6,-3 13,-4 20,-4 11,0 21,4 30,13 8,8 12,19 12,33 0,9 -2,17 -6,25 -4,8 -9,14 -16,18 -7,4 -14,6 -23,6 -15,0 -26,-5 -36,-16 -9,-11 -14,-29 -14,-53 0,-28 6,-48 16,-61 9,-11 21,-16 36,-16 11,0 20,3 28,9 7,7 11,15 13,26zm-72 62c0,6 1,12 3,18 3,5 7,9 11,12 5,3 10,5 15,5 7,0 14,-3 19,-9 5,-6 8,-15 8,-25 0,-10 -3,-18 -8,-23 -5,-6 -12,-9 -20,-9 -8,0 -15,3 -20,9 -6,5 -8,13 -8,22z"/>
  <path fill="black" fill-rule="nonzero" d="M1976 2977l-17 1c-2,-7 -4,-12 -7,-15 -5,-5 -11,-7 -18,-7 -5,0 -10,1 -15,4 -5,4 -10,10 -13,18 -3,8 -5,19 -5,33 4,-6 10,-11 16,-14 6,-3 12,-5 19,-5 12,0 22,4 30,13 8,9 12,20 12,33 0,9 -2,18 -5,25 -4,8 -10,14 -16,18 -7,4 -15,6 -23,6 -15,0 -27,-5 -36,-16 -10,-11 -14,-28 -14,-53 0,-28 5,-48 15,-60 9,-11 21,-17 36,-17 12,0 21,3 28,10 7,6 12,15 13,26zm-72 62c0,6 1,11 4,17 2,6 6,10 11,13 4,3 9,4 14,4 8,0 14,-3 19,-9 6,-6 8,-14 8,-24 0,-10 -2,-18 -7,-24 -6,-6 -12,-8 -20,-8 -8,0 -15,2 -21,8 -5,6 -8,13 -8,23z"/>
  <path fill="black" fill-rule="nonzero" d="M482 2473l17 -2c2,10 6,17 11,21 4,5 10,7 17,7 9,0 16,-3 21,-9 6,-5 9,-13 9,-21 0,-8 -3,-15 -8,-20 -5,-5 -12,-8 -20,-8 -3,0 -8,1 -13,2l2 -15c2,0 3,0 3,0 8,0 15,-2 21,-6 6,-4 9,-10 9,-18 0,-6 -3,-12 -7,-16 -4,-4 -10,-6 -17,-6 -7,0 -12,2 -17,6 -5,5 -8,11 -9,20l-17 -3c2,-12 7,-21 14,-28 8,-6 17,-10 29,-10 7,0 15,2 21,5 7,4 12,8 15,14 4,6 6,12 6,18 0,7 -2,12 -5,17 -4,5 -9,9 -15,12 8,2 15,6 20,13 4,6 7,13 7,23 0,12 -5,23 -14,31 -9,9 -21,13 -35,13 -12,0 -23,-3 -31,-11 -8,-7 -13,-17 -14,-29z"/>
  <path fill="black" fill-rule="nonzero" d="M1056 3047l17 -2c2,10 6,17 11,21 4,5 10,7 17,7 9,0 16,-3 21,-9 6,-6 9,-13 9,-21 0,-8 -3,-15 -8,-20 -5,-5 -12,-8 -20,-8 -4,0 -8,1 -13,2l2 -15c2,0 3,0 3,0 8,0 14,-2 20,-6 6,-4 9,-10 9,-18 0,-6 -2,-12 -6,-16 -4,-4 -10,-6 -17,-6 -7,0 -13,2 -17,6 -5,4 -8,11 -9,20l-17 -4c2,-11 7,-21 14,-27 8,-7 17,-10 29,-10 7,0 15,2 21,5 7,4 12,8 15,14 4,6 5,12 5,18 0,7 -1,12 -4,17 -4,5 -9,9 -15,12 8,2 15,6 19,12 5,7 7,14 7,24 0,12 -4,23 -13,31 -9,9 -21,13 -35,13 -12,0 -23,-3 -31,-11 -8,-7 -13,-17 -14,-29z"/>
  <line fill="none" stroke="black" stroke-width="11.81" x1="630" y1="1612" x2="747" y2= "1612" />
  <line fill="none" stroke="black" stroke-width="11.81" x1="630" y1="783" x2="747" y2= "783" />
  <circle fill="black" cx="1103" cy="2440" r="30"/>
  <circle fill="black" cx="1103" cy="1612" r="30"/>
  <circle fill="black" cx="1931" cy="1612" r="30"/>
  <circle fill="black" cx="1103" cy="783" r="30"/>
  <circle fill="black" cx="1931" cy="783" r="30"/>
  <circle fill="black" cx="2760" cy="783" r="30"/>
 </g>
</svg>
