<?xml version="1.0" encoding="UTF-8"?>
<!DOCTYPE svg PUBLIC "-//W3C//DTD SVG 1.1//EN" "http://www.w3.org/Graphics/SVG/1.1/DTD/svg11.dtd">
<!-- Creator: CorelDRAW X8 -->
<svg xmlns="http://www.w3.org/2000/svg" xml:space="preserve" width="2133px" height="1929px" version="1.1" shape-rendering="geometricPrecision" text-rendering="geometricPrecision" image-rendering="optimizeQuality" fill-rule="evenodd" clip-rule="evenodd"
viewBox="0 0 2133 1929"
 xmlns:xlink="http://www.w3.org/1999/xlink">
 <g id="Capa_x0020_1">
  <metadata id="CorelCorpID_0Corel-Layer"/>
  <rect fill="white" width="2133" height="1929"/>
  <g id="_2426674801392">
   <g>
    <path fill="black" fill-rule="nonzero" d="M766 582l0 -215 24 0 0 20c6,-8 12,-14 20,-18 7,-4 15,-6 26,-6 13,0 25,4 35,11 10,7 17,16 23,29 5,12 7,26 7,40 0,16 -2,31 -8,43 -6,13 -14,23 -25,30 -11,6 -22,10 -34,10 -9,0 -17,-2 -24,-6 -7,-3 -13,-8 -17,-14l0 76 -27 0zm24 -136c0,20 4,34 13,44 8,9 17,14 29,14 12,0 22,-5 30,-15 8,-10 12,-25 12,-46 0,-19 -4,-34 -12,-44 -8,-10 -18,-15 -29,-15 -11,0 -21,5 -30,16 -8,10 -13,26 -13,46z"/>
    <path id="1" fill="black" fill-rule="nonzero" d="M1366 582l0 -76c-4,6 -10,10 -17,14 -8,4 -16,6 -24,6 -18,0 -34,-8 -48,-22 -13,-15 -19,-35 -19,-61 0,-15 2,-29 8,-42 5,-12 13,-22 23,-28 11,-6 22,-10 34,-10 19,0 34,9 46,25l0 -21 23 0 0 215 -26 0zm-81 -138c0,20 4,35 12,45 9,10 19,15 30,15 12,0 21,-5 29,-14 8,-10 13,-24 13,-43 0,-21 -5,-37 -13,-47 -9,-11 -19,-16 -30,-16 -12,0 -22,5 -30,15 -7,9 -11,25 -11,45z"/>
    <path id="2" fill="black" fill-rule="nonzero" d="M866 917l0 -76c-5,6 -10,10 -18,14 -7,4 -15,6 -23,6 -19,0 -34,-7 -48,-22 -13,-15 -20,-35 -20,-61 0,-15 3,-29 8,-42 6,-12 14,-21 24,-28 10,-6 22,-9 34,-9 19,0 34,8 45,24l0 -21 24 0 0 215 -26 0zm-82 -138c0,20 4,35 13,45 8,10 18,15 30,15 11,0 21,-4 29,-14 8,-9 12,-24 12,-43 0,-21 -4,-37 -13,-47 -8,-10 -18,-16 -30,-16 -11,0 -21,5 -29,15 -8,10 -12,25 -12,45z"/>
    <path id="3" fill="black" fill-rule="nonzero" d="M1266 858l0 -156 24 0 0 24c6,-11 12,-19 17,-22 5,-4 11,-5 17,-5 9,0 18,2 27,8l-9 24c-7,-3 -13,-5 -20,-5 -5,0 -11,2 -15,5 -5,4 -8,8 -10,15 -3,9 -4,19 -4,30l0 82 -27 0z"/>
    <path id="4" fill="black" fill-rule="nonzero" d="M759 1111l0 -30c11,-12 24,-18 41,-18 6,0 12,1 18,3 7,2 16,5 28,10 7,3 12,5 15,6 4,1 7,1 10,1 7,0 13,-2 20,-5 7,-4 13,-9 18,-15l0 31c-6,6 -12,10 -19,13 -6,3 -13,4 -21,4 -6,0 -12,-1 -17,-2 -6,-2 -14,-5 -26,-10 -11,-5 -21,-8 -29,-8 -6,0 -12,1 -17,4 -6,3 -13,8 -21,16z"/>
    <path id="5" fill="black" fill-rule="nonzero" d="M941 1193l0 -156 24 0 0 24c6,-11 12,-18 17,-22 5,-3 11,-5 17,-5 9,0 18,3 27,8l-9 24c-7,-3 -13,-5 -20,-5 -5,0 -11,2 -15,5 -5,4 -8,9 -10,15 -3,9 -4,19 -4,30l0 82 -27 0z"/>
    <polygon fill="none" stroke="black" stroke-width="23.6221" points="1063,379 1102,447 1142,515 1063,515 983,515 1023,447 "/>
    <path fill="none" stroke="black" stroke-width="23.6221" stroke-linecap="round" stroke-linejoin="round" d="M965 778l203 0m0 0l-61 49m61 -49l-61 -49"/>
   </g>
   <g>
    <circle fill="black" cx="842" cy="1546" r="20"/>
    <circle fill="black" cx="953" cy="1546" r="20"/>
    <circle fill="black" cx="898" cy="1467" r="20"/>
   </g>
   <line fill="none" stroke="black" stroke-width="23.6221" x1="446" y1="1306" x2="1687" y2= "1306" />
  </g>
 </g>
</svg>
