<?xml version="1.0" encoding="UTF-8"?>
<!DOCTYPE svg PUBLIC "-//W3C//DTD SVG 1.1//EN" "http://www.w3.org/Graphics/SVG/1.1/DTD/svg11.dtd">
<!-- Creator: CorelDRAW X8 -->
<svg xmlns="http://www.w3.org/2000/svg" xml:space="preserve" width="5316px" height="1173px" version="1.1" shape-rendering="geometricPrecision" text-rendering="geometricPrecision" image-rendering="optimizeQuality" fill-rule="evenodd" clip-rule="evenodd"
viewBox="0 0 5316 1173"
 xmlns:xlink="http://www.w3.org/1999/xlink">
 <g id="Capa_x0020_1">
  <metadata id="CorelCorpID_0Corel-Layer"/>
  <rect fill="white" width="5316" height="1173"/>
  <g id="_2426774629824">
   <path fill="black" fill-rule="nonzero" d="M1575 527l-20 0 0 -39c0,-9 -1,-14 -2,-17 0,-2 -2,-4 -4,-5 -2,-2 -4,-2 -7,-2 -4,0 -7,1 -10,3 -3,2 -5,4 -6,7 -1,4 -1,10 -1,18l0 35 -21 0 0 -77 19 0 0 11c7,-9 16,-13 26,-13 5,0 9,1 13,2 3,2 6,4 8,7 2,2 3,5 4,8 1,3 1,8 1,14l0 48z"/>
   <polygon id="1" fill="black" fill-rule="nonzero" points="1661,512 1661,484 1633,484 1633,465 1661,465 1661,437 1680,437 1680,465 1708,465 1708,484 1680,484 1680,512 "/>
   <path id="2" fill="black" fill-rule="nonzero" d="M1803 527l0 -21 -44 0 0 -18 47 -68 17 0 0 68 13 0 0 18 -13 0 0 21 -20 0zm0 -39l0 -37 -25 37 25 0z"/>
   <path fill="black" fill-rule="nonzero" d="M2934 474l-19 -4c2,-7 6,-13 11,-17 5,-3 13,-5 23,-5 9,0 16,1 20,3 5,2 8,5 10,8 1,4 2,10 2,19l0 24c0,7 0,12 1,15 1,3 2,7 4,10l-21 0c0,-1 -1,-3 -2,-6 0,-1 0,-2 0,-2 -4,3 -8,6 -12,8 -4,1 -8,2 -12,2 -8,0 -15,-2 -19,-6 -5,-4 -7,-10 -7,-17 0,-4 1,-8 3,-11 2,-4 5,-6 9,-8 4,-2 9,-4 16,-5 10,-2 16,-4 20,-5l0 -2c0,-4 -1,-7 -3,-9 -2,-1 -5,-2 -11,-2 -4,0 -6,0 -8,2 -3,1 -4,4 -5,8zm27 16c-2,1 -7,2 -12,3 -6,2 -10,3 -12,4 -2,2 -4,4 -4,7 0,3 1,6 4,8 2,2 4,3 8,3 4,0 7,-1 10,-4 3,-2 5,-4 5,-7 1,-1 1,-5 1,-10l0 -4z"/>
   <polygon id="1" fill="black" fill-rule="nonzero" points="3041,499 3041,478 3081,478 3081,499 "/>
   <path id="2" fill="black" fill-rule="nonzero" d="M3183 527l-20 0 0 -77c-8,7 -17,12 -27,15l0 -18c5,-2 11,-6 17,-10 7,-5 11,-11 13,-18l17 0 0 108z"/>
   <path fill="black" fill-rule="nonzero" d="M3754 472l-18 -4c2,-7 5,-13 10,-17 6,-3 13,-5 23,-5 9,0 16,1 21,3 4,2 7,5 9,8 2,4 3,10 3,19l0 24c0,7 0,12 1,15 0,3 2,7 3,10l-20 0c-1,-1 -1,-3 -2,-6 0,-1 -1,-2 -1,-2 -3,4 -7,6 -11,8 -4,2 -8,2 -13,2 -8,0 -14,-2 -19,-6 -4,-4 -7,-10 -7,-17 0,-4 2,-8 4,-11 2,-4 5,-6 8,-8 4,-2 10,-4 17,-5 9,-2 16,-4 20,-5l0 -2c0,-4 -1,-7 -3,-9 -2,-1 -6,-2 -11,-2 -4,0 -7,0 -9,2 -2,1 -4,4 -5,8zm28 16c-3,1 -7,2 -13,3 -5,2 -9,3 -11,4 -3,2 -4,4 -4,7 0,3 1,6 3,8 2,2 5,3 8,3 4,0 8,-1 11,-4 3,-2 4,-4 5,-7 0,-1 1,-5 1,-10l0 -4z"/>
   <polygon id="1" fill="black" fill-rule="nonzero" points="3862,497 3862,476 3902,476 3902,497 "/>
   <path id="2" fill="black" fill-rule="nonzero" d="M4021 506l0 19 -72 0c0,-7 3,-14 7,-20 3,-7 11,-15 23,-26 9,-9 15,-14 17,-18 3,-4 4,-8 4,-12 0,-5 -1,-8 -4,-11 -2,-2 -6,-3 -10,-3 -4,0 -8,1 -10,3 -3,3 -4,7 -5,13l-20 -2c1,-11 5,-19 11,-24 7,-5 15,-8 25,-8 10,0 19,3 25,9 6,6 9,13 9,21 0,5 -1,10 -3,14 -2,5 -4,9 -8,14 -3,3 -7,8 -14,14 -6,6 -10,10 -12,12 -2,2 -3,4 -4,5l41 0z"/>
   <path fill="black" fill-rule="nonzero" d="M463 752l0 -215 24 0 0 20c6,-8 12,-14 20,-18 7,-3 15,-5 25,-5 14,0 25,3 36,10 10,7 17,16 23,29 5,12 7,26 7,41 0,15 -3,30 -8,42 -6,13 -14,23 -25,30 -11,6 -22,10 -34,10 -9,0 -17,-2 -24,-6 -7,-3 -13,-8 -17,-14l0 76 -27 0zm24 -136c0,20 4,34 12,44 9,9 18,14 30,14 12,0 22,-5 30,-15 8,-10 12,-25 12,-46 0,-19 -4,-34 -12,-44 -8,-10 -18,-15 -29,-15 -11,0 -21,5 -30,16 -8,10 -13,26 -13,46z"/>
   <path id="1" fill="black" fill-rule="nonzero" d="M681 756c-15,-19 -27,-40 -37,-65 -10,-24 -15,-50 -15,-76 0,-24 3,-46 11,-67 9,-25 22,-49 41,-74l18 0c-11,20 -19,35 -23,44 -6,13 -11,27 -14,42 -4,18 -6,36 -6,55 0,47 14,94 43,141l-18 0z"/>
   <path id="2" fill="black" fill-rule="nonzero" d="M712 693l57 -81 -53 -75 33 0 24 37c5,6 8,12 11,16 4,-6 8,-11 12,-16l26 -37 32 0 -53 75 57 81 -33 0 -32 -48 -7 -12 -42 60 -32 0z"/>
   <path id="3" fill="black" fill-rule="nonzero" d="M897 756l-18 0c29,-47 43,-94 43,-141 0,-19 -2,-37 -6,-55 -3,-14 -8,-28 -14,-42 -4,-9 -12,-23 -23,-44l18 0c19,25 32,49 41,74 8,21 11,43 11,67 0,26 -5,52 -15,76 -10,25 -22,46 -37,65z"/>
   <path id="4" fill="black" fill-rule="nonzero" d="M1202 566l-142 0 0 -24 142 0 0 24zm0 65l-142 0 0 -24 142 0 0 24z"/>
   <path id="5" fill="black" fill-rule="nonzero" d="M1304 693l57 -81 -53 -75 33 0 24 37c5,6 8,12 11,16 4,-6 8,-11 12,-16l26 -37 32 0 -53 75 56 81 -32 0 -32 -48 -7 -12 -42 60 -32 0z"/>
   <polygon id="6" fill="black" fill-rule="nonzero" points="1944,658 1944,599 1886,599 1886,574 1944,574 1944,516 1969,516 1969,574 2028,574 2028,599 1969,599 1969,658 "/>
   <polygon id="7" fill="black" fill-rule="nonzero" points="2155,693 2155,663 2185,663 2185,693 "/>
   <polygon id="8" fill="black" fill-rule="nonzero" points="2238,693 2238,663 2268,663 2268,693 "/>
   <polygon id="9" fill="black" fill-rule="nonzero" points="2321,693 2321,663 2351,663 2351,693 "/>
   <polygon id="10" fill="black" fill-rule="nonzero" points="2536,658 2536,599 2478,599 2478,574 2536,574 2536,516 2561,516 2561,574 2619,574 2619,599 2561,599 2561,658 "/>
   <path id="11" fill="black" fill-rule="nonzero" d="M2721 693l57 -81 -53 -75 33 0 24 37c5,6 9,12 11,16 5,-6 8,-11 12,-16l26 -37 32 0 -53 75 57 81 -32 0 -33 -48 -7 -12 -42 60 -32 0z"/>
   <polygon id="12" fill="black" fill-rule="nonzero" points="3361,658 3361,599 3303,599 3303,574 3361,574 3361,516 3386,516 3386,574 3445,574 3445,599 3386,599 3386,658 "/>
   <path id="13" fill="black" fill-rule="nonzero" d="M3546 693l57 -81 -52 -75 32 0 25 37c4,6 8,12 10,16 5,-6 9,-11 12,-16l26 -37 32 0 -52 75 56 81 -32 0 -32 -48 -8 -12 -41 60 -33 0z"/>
   <polygon id="14" fill="black" fill-rule="nonzero" points="4187,658 4187,599 4128,599 4128,574 4187,574 4187,516 4212,516 4212,574 4270,574 4270,599 4212,599 4212,658 "/>
   <path id="15" fill="black" fill-rule="nonzero" d="M4372 693l57 -81 -53 -75 32 0 25 37c5,6 8,12 11,16 4,-6 8,-11 12,-16l26 -37 32 0 -53 75 56 81 -32 0 -32 -48 -7 -12 -42 60 -32 0z"/>
   <path fill="black" fill-rule="nonzero" d="M4585 472l-19 -4c3,-7 6,-13 11,-17 5,-3 13,-5 23,-5 9,0 16,1 21,3 4,2 7,5 9,8 2,4 3,10 3,19l0 24c0,7 0,12 1,15 0,3 1,7 3,10l-20 0c-1,-1 -1,-3 -2,-6 0,-1 -1,-2 -1,-2 -3,4 -7,6 -11,8 -4,2 -8,2 -13,2 -8,0 -14,-2 -19,-6 -4,-4 -7,-10 -7,-17 0,-4 1,-8 4,-11 2,-4 5,-6 8,-8 4,-2 10,-4 17,-5 9,-2 16,-4 20,-5l0 -2c0,-4 -1,-7 -3,-9 -2,-1 -6,-2 -11,-2 -4,0 -7,0 -9,2 -2,1 -4,4 -5,8zm28 16c-3,1 -7,2 -13,3 -6,2 -9,3 -11,4 -3,2 -4,4 -4,7 0,3 1,6 3,8 2,2 5,3 8,3 4,0 8,-1 11,-4 2,-2 4,-4 5,-7 0,-1 1,-5 1,-10l0 -4z"/>
   <polygon id="1" fill="black" fill-rule="nonzero" points="4692,497 4692,476 4733,476 4733,497 "/>
   <path id="2" fill="black" fill-rule="nonzero" d="M4781 497l20 -2c1,5 3,9 5,11 3,3 7,4 11,4 4,0 7,-1 10,-5 3,-3 5,-7 5,-13 0,-5 -2,-9 -5,-12 -2,-3 -6,-4 -10,-4 -2,0 -6,0 -9,1l2 -17c6,1 10,-1 13,-3 3,-3 4,-6 4,-11 0,-3 -1,-6 -3,-8 -2,-2 -5,-3 -9,-3 -3,0 -6,1 -9,3 -2,3 -4,6 -4,11l-19 -3c1,-7 3,-12 6,-16 3,-4 6,-7 11,-9 5,-2 10,-4 16,-4 10,0 18,4 24,10 5,5 8,11 8,18 0,10 -5,17 -16,23 7,1 11,4 15,9 4,4 6,10 6,16 0,10 -4,18 -11,24 -7,7 -15,10 -25,10 -10,0 -18,-2 -24,-8 -7,-6 -11,-13 -12,-22z"/>
  </g>
 </g>
</svg>
