<?xml version="1.0" encoding="UTF-8"?>
<!DOCTYPE svg PUBLIC "-//W3C//DTD SVG 1.1//EN" "http://www.w3.org/Graphics/SVG/1.1/DTD/svg11.dtd">
<!-- Creator: CorelDRAW X8 -->
<svg xmlns="http://www.w3.org/2000/svg" xml:space="preserve" width="2343px" height="519px" version="1.1" shape-rendering="geometricPrecision" text-rendering="geometricPrecision" image-rendering="optimizeQuality" fill-rule="evenodd" clip-rule="evenodd"
viewBox="0 0 2343 519"
 xmlns:xlink="http://www.w3.org/1999/xlink">
 <g id="Capa_x0020_1">
  <metadata id="CorelCorpID_0Corel-Layer"/>
  <rect fill="white" width="2343" height="519"/>
  <g id="_2426813258016">
   <path fill="black" fill-rule="nonzero" d="M859 370l0 25 -142 0c0,-7 1,-13 3,-19 4,-9 10,-19 18,-28 8,-9 19,-20 34,-33 23,-19 39,-34 47,-45 9,-11 13,-22 13,-32 0,-10 -4,-19 -11,-26 -8,-7 -18,-11 -30,-11 -12,0 -23,4 -30,11 -8,8 -12,18 -12,32l-27 -3c2,-20 9,-35 21,-46 12,-11 28,-16 49,-16 21,0 37,6 49,17 12,12 18,26 18,43 0,8 -2,17 -5,25 -4,8 -10,17 -18,26 -8,10 -22,22 -41,38 -15,14 -26,23 -30,27 -5,5 -8,10 -11,15l105 0z"/>
   <path id="1" fill="black" fill-rule="nonzero" d="M1054 338l28 -2c2,14 7,24 14,31 8,6 17,10 27,10 13,0 24,-5 33,-15 8,-9 13,-22 13,-38 0,-15 -4,-27 -13,-35 -8,-9 -19,-13 -33,-13 -8,0 -16,2 -23,6 -7,3 -12,8 -16,15l-25 -4 21 -110 106 0 0 25 -85 0 -11 58c12,-9 26,-14 40,-14 19,0 35,7 47,20 13,13 20,29 20,50 0,19 -6,36 -17,50 -14,18 -33,26 -57,26 -19,0 -35,-5 -47,-16 -13,-11 -20,-26 -22,-44z"/>
   <polygon id="2" fill="black" fill-rule="nonzero" points="1301,330 1301,304 1383,304 1383,330 "/>
   <path id="3" fill="black" fill-rule="nonzero" d="M1626 370l0 25 -142 0c0,-7 1,-13 3,-19 4,-9 10,-19 18,-28 8,-9 19,-20 34,-33 23,-19 39,-34 47,-45 9,-11 13,-22 13,-32 0,-10 -4,-19 -11,-26 -8,-7 -18,-11 -30,-11 -12,0 -23,4 -30,11 -8,8 -12,18 -12,32l-27 -3c2,-20 9,-35 21,-46 12,-11 28,-16 49,-16 21,0 37,6 49,17 12,12 18,26 18,43 0,8 -2,17 -5,25 -4,8 -10,17 -18,26 -8,10 -22,22 -41,38 -15,14 -26,23 -30,27 -5,5 -8,10 -11,15l105 0z"/>
   <polyline fill="none" stroke="black" stroke-width="23.6221" points="904,254 973,388 1002,121 1272,121 "/>
  </g>
 </g>
</svg>
