<?xml version="1.0" encoding="UTF-8"?>
<!DOCTYPE svg PUBLIC "-//W3C//DTD SVG 1.1//EN" "http://www.w3.org/Graphics/SVG/1.1/DTD/svg11.dtd">
<!-- Creator: CorelDRAW X8 -->
<svg xmlns="http://www.w3.org/2000/svg" xml:space="preserve" width="4252px" height="1415px" version="1.1" shape-rendering="geometricPrecision" text-rendering="geometricPrecision" image-rendering="optimizeQuality" fill-rule="evenodd" clip-rule="evenodd"
viewBox="0 0 4252 1415"
 xmlns:xlink="http://www.w3.org/1999/xlink">
 <g id="Capa_x0020_1">
  <metadata id="CorelCorpID_0Corel-Layer"/>
  <rect fill="white" width="4252" height="1415"/>
  <g id="_2426773850576">
   <path fill="black" fill-rule="nonzero" d="M965 583c-10,9 -19,15 -28,18 -9,3 -19,5 -29,5 -17,0 -31,-4 -40,-12 -9,-9 -14,-19 -14,-32 0,-8 2,-15 6,-21 3,-6 8,-11 13,-15 6,-4 12,-7 19,-9 5,-1 13,-3 24,-4 21,-2 37,-5 47,-9 0,-3 0,-6 0,-7 0,-10 -2,-18 -7,-22 -7,-6 -17,-9 -31,-9 -12,0 -21,2 -27,6 -6,5 -10,12 -13,23l-26 -3c2,-11 6,-20 12,-27 5,-7 13,-12 23,-16 10,-3 22,-5 35,-5 14,0 24,1 33,5 8,3 14,7 18,11 4,5 7,11 8,18 1,5 2,13 2,25l0 35c0,24 0,39 1,46 1,7 4,13 7,19l-28 0c-2,-6 -4,-12 -5,-20zm-2 -58c-10,4 -24,7 -43,10 -11,1 -19,3 -23,5 -5,2 -8,5 -11,8 -2,4 -3,8 -3,13 0,7 2,13 8,17 5,5 13,7 23,7 10,0 19,-2 27,-6 8,-5 14,-11 18,-18 2,-6 4,-15 4,-27l0 -9z"/>
   <polygon id="1" fill="black" fill-rule="nonzero" points="1252,568 1252,509 1194,509 1194,485 1252,485 1252,426 1277,426 1277,485 1336,485 1336,509 1277,509 1277,568 "/>
   <path id="2" fill="black" fill-rule="nonzero" d="M1506 666c-15,-19 -27,-40 -37,-65 -10,-24 -15,-50 -15,-76 0,-23 4,-46 11,-67 9,-24 23,-49 41,-74l19 0c-12,21 -20,35 -24,44 -6,13 -10,27 -14,42 -4,18 -6,37 -6,55 0,47 15,94 44,141l-19 0z"/>
   <path id="3" fill="black" fill-rule="nonzero" d="M1580 603l-25 0 0 -215 27 0 0 77c11,-14 25,-21 42,-21 10,0 19,2 27,6 9,3 16,9 21,16 6,7 10,15 13,25 4,10 5,20 5,32 0,26 -6,47 -20,61 -13,15 -29,22 -47,22 -18,0 -33,-8 -43,-23l0 20zm-1 -79c0,18 3,32 8,40 8,14 20,21 34,21 11,0 21,-5 30,-15 8,-10 12,-25 12,-45 0,-20 -4,-35 -12,-45 -8,-10 -18,-15 -29,-15 -12,0 -22,5 -30,15 -8,10 -13,25 -13,44z"/>
   <polygon id="4" fill="black" fill-rule="nonzero" points="1795,538 1795,512 1877,512 1877,538 "/>
   <path id="5" fill="black" fill-rule="nonzero" d="M2081 603l-27 0 0 -168c-6,6 -14,12 -25,18 -10,6 -19,11 -28,14l0 -26c15,-7 28,-15 39,-25 11,-10 19,-20 24,-29l17 0 0 216z"/>
   <path id="6" fill="black" fill-rule="nonzero" d="M2173 666l-19 0c29,-47 44,-94 44,-141 0,-18 -2,-36 -6,-54 -4,-15 -8,-29 -14,-43 -4,-8 -12,-23 -24,-44l19 0c18,25 32,50 41,74 7,21 11,44 11,67 0,26 -5,52 -15,76 -10,25 -22,46 -37,65z"/>
   <polygon id="7" fill="black" fill-rule="nonzero" points="2478,568 2478,509 2419,509 2419,485 2478,485 2478,426 2503,426 2503,485 2561,485 2561,509 2503,509 2503,568 "/>
   <path id="8" fill="black" fill-rule="nonzero" d="M2731 666c-14,-19 -27,-40 -37,-65 -10,-24 -15,-50 -15,-76 0,-23 4,-46 12,-67 8,-24 22,-49 40,-74l19 0c-12,21 -19,35 -23,44 -6,13 -11,27 -14,42 -5,18 -7,37 -7,55 0,47 15,94 44,141l-19 0z"/>
   <path id="9" fill="black" fill-rule="nonzero" d="M2882 546l26 3c-3,18 -10,32 -21,42 -12,10 -26,15 -43,15 -22,0 -39,-7 -52,-21 -13,-14 -19,-34 -19,-59 0,-17 3,-32 8,-44 6,-13 14,-22 26,-29 11,-6 23,-9 37,-9 17,0 31,4 41,13 11,8 18,20 21,36l-26 4c-2,-11 -6,-18 -13,-24 -6,-5 -13,-8 -22,-8 -13,0 -24,5 -33,15 -8,9 -12,24 -12,45 0,21 4,36 12,45 8,10 18,15 31,15 11,0 19,-4 26,-10 7,-6 12,-16 13,-29z"/>
   <polygon id="10" fill="black" fill-rule="nonzero" points="3004,538 3004,512 3085,512 3085,538 "/>
   <path id="11" fill="black" fill-rule="nonzero" d="M3328 578l0 25 -142 0c0,-7 1,-13 3,-19 4,-9 10,-19 18,-28 8,-9 19,-20 34,-32 24,-20 39,-35 48,-46 8,-11 12,-22 12,-32 0,-10 -4,-19 -11,-26 -8,-7 -17,-11 -29,-11 -13,0 -23,4 -31,11 -8,8 -12,18 -12,32l-27 -3c2,-20 9,-35 21,-46 12,-11 29,-16 49,-16 21,0 37,6 49,17 12,12 18,26 18,43 0,8 -2,17 -5,25 -4,9 -9,17 -18,26 -8,10 -21,22 -40,38 -16,14 -26,23 -31,27 -4,5 -8,10 -11,15l105 0z"/>
   <path id="12" fill="black" fill-rule="nonzero" d="M3382 666l-19 0c29,-47 44,-94 44,-141 0,-18 -3,-36 -7,-54 -3,-15 -8,-29 -14,-43 -3,-8 -11,-23 -23,-44l19 0c18,25 31,50 40,74 8,21 12,44 12,67 0,26 -6,52 -16,76 -10,25 -22,46 -36,65z"/>
   <path fill="black" fill-rule="nonzero" d="M1035 417l20 -2c1,5 3,9 6,12 2,2 6,4 10,4 4,0 7,-2 10,-5 3,-3 5,-8 5,-13 0,-5 -2,-10 -5,-13 -2,-3 -6,-4 -10,-4 -2,0 -5,0 -9,1l2 -16c6,0 10,-1 13,-4 3,-2 4,-6 4,-10 0,-4 -1,-7 -3,-9 -2,-2 -5,-3 -9,-3 -3,0 -6,1 -9,4 -2,2 -4,6 -4,10l-19 -3c1,-6 3,-12 6,-16 3,-4 6,-7 11,-9 5,-2 10,-3 16,-3 10,0 18,3 24,10 5,5 8,11 8,17 0,10 -5,18 -16,23 7,1 12,4 15,9 4,5 6,10 6,17 0,9 -4,17 -11,24 -6,6 -15,10 -25,10 -10,0 -18,-3 -24,-9 -7,-5 -10,-13 -12,-22z"/>
   <path fill="black" fill-rule="nonzero" d="M2278 415l20 -2c1,5 3,9 6,12 2,2 6,4 10,4 4,0 7,-2 10,-5 3,-3 5,-8 5,-13 0,-5 -2,-10 -5,-13 -2,-3 -6,-4 -10,-4 -2,0 -5,0 -9,1l2 -16c6,0 10,-1 13,-4 3,-2 4,-6 4,-10 0,-4 -1,-7 -3,-9 -2,-2 -5,-3 -9,-3 -3,0 -6,1 -9,4 -2,2 -4,6 -4,10l-19 -3c1,-6 3,-12 6,-16 3,-3 6,-7 11,-9 5,-2 10,-3 16,-3 10,0 18,3 24,10 5,5 8,11 8,18 0,9 -5,17 -16,22 7,2 11,4 15,9 4,5 6,10 6,17 0,9 -4,17 -11,24 -6,6 -15,10 -25,10 -10,0 -18,-3 -24,-9 -7,-5 -11,-13 -12,-22z"/>
   <path fill="black" fill-rule="nonzero" d="M3499 415l20 -2c0,5 2,9 5,12 3,2 6,4 10,4 4,0 8,-2 11,-5 2,-3 4,-8 4,-13 0,-5 -1,-10 -4,-13 -3,-3 -6,-4 -10,-4 -3,0 -6,0 -10,1l2 -16c6,0 10,-1 13,-4 3,-2 5,-6 5,-10 0,-4 -2,-7 -4,-9 -2,-2 -5,-3 -8,-3 -4,0 -7,1 -9,4 -3,2 -4,6 -5,10l-19 -3c2,-6 4,-12 6,-16 3,-3 7,-7 11,-9 5,-2 10,-3 16,-3 10,0 19,3 25,10 5,5 7,11 7,18 0,9 -5,17 -15,22 6,2 11,4 15,9 3,5 5,10 5,17 0,9 -3,17 -10,24 -7,6 -16,10 -26,10 -10,0 -18,-3 -24,-9 -6,-5 -10,-13 -11,-22z"/>
   <path fill="black" fill-rule="nonzero" d="M1296 997c-10,8 -19,14 -28,17 -10,4 -19,5 -30,5 -17,0 -30,-4 -39,-12 -9,-8 -14,-19 -14,-32 0,-8 2,-15 5,-21 4,-6 8,-11 14,-15 6,-4 12,-7 19,-9 5,-1 13,-2 23,-4 22,-2 38,-5 48,-9 0,-3 0,-5 0,-6 0,-11 -3,-19 -8,-23 -7,-6 -17,-9 -30,-9 -12,0 -22,2 -27,7 -6,4 -11,12 -14,23l-25 -4c2,-11 6,-20 11,-27 6,-6 13,-12 24,-15 10,-4 22,-6 35,-6 13,0 24,2 33,5 8,3 14,7 18,12 4,4 7,10 8,18 1,4 1,12 1,24l0 35c0,24 1,40 2,46 1,7 3,13 7,19l-28 0c-3,-5 -4,-12 -5,-19zm-2 -59c-10,4 -24,7 -43,10 -11,2 -19,3 -24,5 -4,2 -8,5 -10,9 -2,4 -4,8 -4,12 0,7 3,13 8,18 6,4 13,7 24,7 10,0 19,-2 27,-7 8,-4 14,-10 17,-18 3,-6 5,-15 5,-26l0 -10z"/>
   <path id="1" fill="black" fill-rule="nonzero" d="M1495 1079c-15,-18 -27,-40 -37,-64 -10,-25 -15,-50 -15,-77 0,-23 4,-45 11,-66 9,-25 22,-50 41,-74l19 0c-12,20 -20,35 -24,43 -6,14 -10,28 -14,42 -4,19 -6,37 -6,55 0,47 14,94 44,141l-19 0z"/>
   <path id="2" fill="black" fill-rule="nonzero" d="M1636 1016l-26 0 0 -168c-7,6 -15,12 -25,18 -11,6 -20,11 -28,14l0 -26c15,-7 27,-15 39,-25 11,-10 18,-19 23,-29l17 0 0 216z"/>
   <polygon id="3" fill="black" fill-rule="nonzero" points="1784,952 1784,925 1866,925 1866,952 "/>
   <path id="4" fill="black" fill-rule="nonzero" d="M2002 1016l-25 0 0 -215 27 0 0 77c11,-14 25,-21 42,-21 10,0 19,2 28,6 8,4 15,9 21,16 5,7 10,16 13,25 3,10 4,21 4,32 0,27 -6,47 -19,62 -14,14 -29,21 -48,21 -18,0 -33,-7 -43,-22l0 19zm0 -79c0,19 2,32 7,40 9,14 20,21 34,21 11,0 21,-5 30,-15 8,-10 12,-25 12,-45 0,-20 -4,-35 -12,-45 -8,-9 -17,-14 -29,-14 -11,0 -21,5 -30,15 -8,10 -12,24 -12,43z"/>
   <path id="5" fill="black" fill-rule="nonzero" d="M2162 1079l-19 0c29,-47 44,-94 44,-141 0,-18 -2,-36 -6,-54 -4,-15 -8,-29 -14,-42 -4,-9 -12,-24 -24,-44l19 0c18,24 32,49 41,74 7,21 11,43 11,66 0,27 -5,52 -15,77 -10,24 -23,46 -37,64z"/>
   <path id="6" fill="black" fill-rule="nonzero" d="M2295 1079c-15,-18 -27,-40 -37,-64 -10,-25 -15,-50 -15,-77 0,-23 4,-45 11,-66 9,-25 23,-50 41,-74l19 0c-12,20 -20,35 -24,43 -6,14 -10,28 -14,42 -4,19 -6,37 -6,55 0,47 15,94 44,141l-19 0z"/>
   <path id="7" fill="black" fill-rule="nonzero" d="M2446 959l26 4c-3,17 -10,31 -22,41 -12,10 -26,15 -43,15 -21,0 -38,-7 -51,-20 -13,-14 -19,-34 -19,-60 0,-17 2,-32 8,-44 5,-13 14,-22 25,-28 12,-7 24,-10 37,-10 17,0 31,4 42,13 11,8 17,21 20,36l-25 4c-3,-10 -7,-18 -13,-23 -6,-6 -14,-8 -23,-8 -13,0 -24,4 -32,14 -8,10 -12,25 -12,45 0,21 4,36 12,46 8,9 18,14 31,14 10,0 19,-3 26,-10 7,-6 11,-16 13,-29z"/>
   <polygon id="8" fill="black" fill-rule="nonzero" points="2567,952 2567,925 2649,925 2649,952 "/>
   <path id="9" fill="black" fill-rule="nonzero" d="M2892 991l0 25 -142 0c0,-6 1,-12 3,-18 4,-10 9,-19 17,-29 9,-9 20,-20 35,-32 23,-19 39,-34 47,-46 9,-11 13,-21 13,-31 0,-11 -4,-20 -12,-27 -7,-7 -17,-11 -29,-11 -13,0 -23,4 -30,12 -8,7 -12,18 -12,31l-27 -2c2,-21 9,-36 21,-47 12,-10 28,-16 49,-16 20,0 37,6 49,18 12,11 18,25 18,42 0,9 -2,17 -6,25 -3,9 -9,18 -17,27 -8,9 -22,22 -41,38 -16,13 -26,22 -30,27 -5,4 -8,9 -11,14l105 0z"/>
   <path id="10" fill="black" fill-rule="nonzero" d="M2945 1079l-19 0c29,-47 44,-94 44,-141 0,-18 -2,-36 -6,-54 -4,-15 -8,-29 -14,-42 -4,-9 -12,-24 -24,-44l19 0c18,24 32,49 41,74 7,21 11,43 11,66 0,27 -5,52 -15,77 -10,24 -22,46 -37,64z"/>
   <line fill="none" stroke="black" stroke-width="23.6221" x1="524" y1="662" x2="3728" y2= "662" />
  </g>
 </g>
</svg>
