<?xml version="1.0" encoding="UTF-8"?>
<!DOCTYPE svg PUBLIC "-//W3C//DTD SVG 1.1//EN" "http://www.w3.org/Graphics/SVG/1.1/DTD/svg11.dtd">
<!-- Creator: CorelDRAW X8 -->
<svg xmlns="http://www.w3.org/2000/svg" xml:space="preserve" width="2546px" height="1290px" version="1.1" shape-rendering="geometricPrecision" text-rendering="geometricPrecision" image-rendering="optimizeQuality" fill-rule="evenodd" clip-rule="evenodd"
viewBox="0 0 2546 1290"
 xmlns:xlink="http://www.w3.org/1999/xlink">
 <g id="Capa_x0020_1">
  <metadata id="CorelCorpID_0Corel-Layer"/>
  <rect fill="white" width="2546" height="1290"/>
  <g id="_2426766520816">
   <path fill="black" fill-rule="nonzero" d="M573 726l40 10c-8,32 -23,57 -45,74 -21,17 -47,26 -78,26 -32,0 -59,-7 -79,-20 -20,-13 -35,-32 -46,-57 -10,-25 -15,-51 -15,-80 0,-31 6,-58 17,-81 12,-23 29,-41 51,-53 22,-12 46,-18 72,-18 30,0 55,8 75,23 21,15 35,37 43,64l-39 9c-7,-21 -17,-37 -30,-47 -13,-10 -30,-15 -49,-15 -23,0 -42,6 -58,17 -15,11 -26,25 -32,44 -6,18 -10,37 -10,57 0,25 4,48 11,66 8,19 19,34 35,43 15,9 32,14 50,14 22,0 41,-6 56,-19 16,-13 26,-32 31,-57z"/>
   <path id="1" fill="black" fill-rule="nonzero" d="M1795 726l40 10c-9,32 -24,57 -45,74 -21,17 -48,26 -79,26 -32,0 -58,-7 -78,-20 -20,-13 -36,-32 -46,-57 -10,-25 -16,-51 -16,-80 0,-31 6,-58 18,-81 12,-23 29,-41 51,-53 22,-12 46,-18 72,-18 30,0 55,8 75,23 20,15 35,37 43,64l-39 9c-7,-21 -17,-37 -30,-47 -13,-10 -30,-15 -50,-15 -23,0 -42,6 -57,17 -16,11 -26,25 -33,44 -6,18 -9,37 -9,57 0,25 4,48 11,66 7,19 19,34 34,43 16,9 33,14 51,14 22,0 41,-6 56,-19 15,-13 26,-32 31,-57z"/>
   <path id="2" fill="black" fill-rule="nonzero" d="M1302 704l-142 0 0 -24 142 0 0 24zm0 65l-142 0 0 -24 142 0 0 24z"/>
   <path fill="black" fill-rule="nonzero" d="M837 809l0 19 -72 0c1,-7 3,-14 7,-21 4,-6 11,-15 23,-25 9,-9 15,-15 17,-18 3,-4 4,-8 4,-13 0,-4 -1,-8 -3,-10 -3,-3 -6,-4 -11,-4 -4,0 -7,1 -10,4 -2,3 -4,7 -4,13l-21 -2c1,-11 5,-20 12,-25 6,-5 14,-7 24,-7 10,0 19,3 25,9 6,5 9,12 9,21 0,5 -1,9 -3,14 -1,4 -4,9 -8,14 -2,3 -7,7 -13,13 -7,6 -11,10 -13,12 -2,2 -3,4 -4,6l41 0z"/>
   <polygon fill="black" fill-rule="nonzero" points="635,945 674,889 637,837 672,837 691,866 711,837 744,837 708,888 748,945 713,945 691,911 669,945 "/>
   <path fill="black" fill-rule="nonzero" d="M755 469l0 26 -100 0c1,-10 4,-19 9,-28 6,-9 16,-21 32,-36 13,-12 21,-20 24,-25 4,-6 6,-11 6,-17 0,-7 -2,-12 -5,-15 -3,-3 -8,-5 -14,-5 -6,0 -11,2 -14,5 -4,4 -6,10 -7,18l-28 -3c2,-15 7,-27 16,-34 9,-6 20,-10 33,-10 15,0 27,4 35,12 9,8 13,18 13,30 0,6 -1,13 -4,19 -2,6 -6,12 -11,19 -4,5 -10,11 -19,19 -9,8 -15,14 -17,17 -3,2 -5,5 -6,8l57 0z"/>
   <path id="1" fill="black" fill-rule="nonzero" d="M871 382l-28 4c0,-6 -2,-10 -5,-13 -3,-3 -7,-4 -11,-4 -6,0 -11,3 -15,8 -5,5 -7,17 -8,34 7,-9 16,-13 26,-13 12,0 22,5 31,14 8,9 13,21 13,35 0,15 -5,28 -14,37 -9,9 -20,14 -34,14 -15,0 -28,-6 -37,-18 -10,-12 -15,-31 -15,-57 0,-28 5,-48 15,-60 10,-12 23,-18 40,-18 11,0 20,3 28,10 7,6 12,15 14,27zm-65 63c0,9 2,16 7,21 4,6 9,8 14,8 5,0 10,-2 13,-6 4,-4 6,-11 6,-21 0,-9 -2,-16 -6,-21 -4,-4 -9,-7 -14,-7 -6,0 -10,2 -14,7 -4,4 -6,10 -6,19z"/>
   <polygon fill="black" fill-rule="nonzero" points="1852,942 1891,886 1853,834 1888,834 1907,864 1928,834 1961,834 1924,885 1964,942 1930,942 1907,909 1885,942 "/>
   <polygon id="1" fill="black" fill-rule="nonzero" points="2014,921 2014,882 1975,882 1975,855 2014,855 2014,817 2040,817 2040,855 2079,855 2079,882 2040,882 2040,921 "/>
   <path id="2" fill="black" fill-rule="nonzero" d="M2194 830l-28 3c-1,-6 -2,-10 -5,-13 -3,-3 -7,-4 -11,-4 -6,0 -12,3 -16,8 -4,5 -6,17 -8,34 8,-8 16,-13 27,-13 12,0 22,5 31,14 8,9 12,21 12,35 0,16 -4,28 -13,37 -9,9 -20,14 -35,14 -15,0 -27,-6 -37,-18 -9,-11 -14,-31 -14,-57 0,-28 5,-48 15,-60 10,-12 23,-18 39,-18 12,0 21,3 28,10 8,6 13,15 15,28zm-65 62c0,9 2,16 6,22 5,5 9,7 15,7 5,0 10,-2 13,-6 4,-4 5,-11 5,-20 0,-10 -1,-17 -5,-22 -4,-4 -9,-7 -14,-7 -6,0 -11,3 -14,7 -4,4 -6,11 -6,19z"/>
   <path fill="black" fill-rule="nonzero" d="M1971 471l0 27 -100 0c1,-10 4,-20 10,-29 5,-9 16,-21 32,-36 13,-12 21,-20 23,-24 4,-6 6,-12 6,-18 0,-6 -1,-11 -5,-14 -3,-4 -8,-5 -14,-5 -6,0 -11,1 -14,5 -4,4 -6,10 -6,18l-29 -3c2,-16 7,-27 16,-34 9,-7 20,-10 34,-10 15,0 26,4 35,12 8,8 12,18 12,29 0,7 -1,14 -3,20 -3,6 -7,12 -12,19 -3,4 -10,11 -19,19 -9,8 -14,14 -17,16 -2,3 -4,6 -6,8l57 0z"/>
   <path id="1" fill="black" fill-rule="nonzero" d="M2087 385l-27 3c-1,-5 -3,-10 -6,-12 -3,-3 -6,-4 -11,-4 -6,0 -11,2 -15,8 -4,5 -7,16 -8,34 7,-9 16,-13 27,-13 11,0 22,4 30,14 9,9 13,20 13,35 0,15 -5,27 -14,37 -8,9 -20,14 -34,14 -15,0 -27,-6 -37,-18 -10,-12 -15,-31 -15,-58 0,-27 5,-47 16,-59 10,-12 23,-18 39,-18 11,0 21,3 28,9 7,7 12,16 14,28zm-65 63c0,9 3,16 7,21 4,5 9,8 15,8 5,0 9,-2 13,-6 3,-5 5,-11 5,-21 0,-10 -2,-17 -6,-21 -3,-5 -8,-7 -14,-7 -5,0 -10,2 -14,6 -4,5 -6,11 -6,20z"/>
  </g>
 </g>
</svg>
