<?xml version="1.0" encoding="UTF-8"?>
<!DOCTYPE svg PUBLIC "-//W3C//DTD SVG 1.1//EN" "http://www.w3.org/Graphics/SVG/1.1/DTD/svg11.dtd">
<!-- Creator: CorelDRAW X8 -->
<svg xmlns="http://www.w3.org/2000/svg" xml:space="preserve" width="2343px" height="519px" version="1.1" shape-rendering="geometricPrecision" text-rendering="geometricPrecision" image-rendering="optimizeQuality" fill-rule="evenodd" clip-rule="evenodd"
viewBox="0 0 2343 519"
 xmlns:xlink="http://www.w3.org/1999/xlink">
 <g id="Capa_x0020_1">
  <metadata id="CorelCorpID_0Corel-Layer"/>
  <rect fill="white" width="2343" height="519"/>
  <g id="_2426774607424">
   <path fill="black" fill-rule="nonzero" d="M717 337l26 -4c3,15 8,26 16,33 7,6 16,10 26,10 13,0 23,-5 32,-13 8,-9 13,-20 13,-32 0,-12 -4,-22 -12,-30 -8,-8 -18,-12 -30,-12 -5,0 -12,1 -19,3l3 -23c2,0 3,0 4,0 11,0 22,-3 31,-9 9,-6 13,-15 13,-27 0,-9 -3,-17 -10,-24 -6,-6 -15,-9 -25,-9 -10,0 -19,3 -26,10 -7,6 -11,16 -13,29l-26 -5c3,-18 10,-31 22,-41 11,-10 25,-15 42,-15 12,0 23,3 33,8 9,5 17,12 22,20 5,9 8,18 8,28 0,9 -2,18 -7,25 -5,8 -13,14 -23,18 13,3 23,9 30,19 7,9 11,20 11,34 0,19 -7,35 -21,48 -14,13 -31,19 -52,19 -19,0 -34,-5 -47,-16 -12,-12 -19,-26 -21,-44z"/>
   <path id="1" fill="black" fill-rule="nonzero" d="M1050 337l28 -2c2,14 7,24 14,31 8,6 17,10 27,10 13,0 24,-5 33,-14 8,-10 13,-23 13,-39 0,-15 -4,-26 -13,-35 -8,-9 -19,-13 -33,-13 -8,0 -16,2 -23,6 -7,4 -12,9 -16,15l-25 -4 21 -110 106 0 0 25 -85 0 -11 58c12,-9 26,-14 40,-14 19,0 35,7 47,20 13,13 20,30 20,50 0,19 -6,36 -17,50 -14,18 -33,26 -57,26 -19,0 -35,-5 -47,-16 -13,-11 -20,-25 -22,-44z"/>
   <polygon id="2" fill="black" fill-rule="nonzero" points="1297,329 1297,303 1379,303 1379,329 "/>
   <path id="3" fill="black" fill-rule="nonzero" d="M1484 337l28 -2c2,14 6,24 14,31 7,6 16,10 27,10 13,0 23,-5 32,-14 9,-10 13,-23 13,-39 0,-15 -4,-26 -12,-35 -9,-9 -20,-13 -33,-13 -9,0 -17,2 -23,6 -7,4 -12,9 -16,15l-25 -4 20 -110 107 0 0 25 -86 0 -11 58c13,-9 26,-14 40,-14 19,0 35,7 48,20 13,13 19,30 19,50 0,19 -6,36 -17,50 -14,18 -32,26 -56,26 -20,0 -36,-5 -48,-16 -12,-11 -19,-25 -21,-44z"/>
   <polyline fill="none" stroke="black" stroke-width="23.6221" points="900,255 969,388 998,122 1268,122 "/>
  </g>
 </g>
</svg>
