<?xml version="1.0" encoding="UTF-8"?>
<!DOCTYPE svg PUBLIC "-//W3C//DTD SVG 1.1//EN" "http://www.w3.org/Graphics/SVG/1.1/DTD/svg11.dtd">
<!-- Creator: CorelDRAW X8 -->
<svg xmlns="http://www.w3.org/2000/svg" xml:space="preserve" width="4299px" height="960px" version="1.1" shape-rendering="geometricPrecision" text-rendering="geometricPrecision" image-rendering="optimizeQuality" fill-rule="evenodd" clip-rule="evenodd"
viewBox="0 0 4299 960"
 xmlns:xlink="http://www.w3.org/1999/xlink">
 <g id="Capa_x0020_1">
  <metadata id="CorelCorpID_0Corel-Layer"/>
  <rect fill="white" width="4299" height="960"/>
  <g id="_2426773659520">
   <path fill="black" fill-rule="nonzero" d="M797 555l0 25 -143 0c0,-7 1,-13 3,-19 4,-9 10,-19 18,-28 8,-9 20,-20 34,-32 24,-20 40,-35 48,-46 8,-11 12,-22 12,-32 0,-10 -4,-19 -11,-26 -8,-7 -17,-11 -29,-11 -13,0 -23,4 -31,11 -8,8 -11,18 -12,32l-27 -3c2,-20 9,-35 21,-46 13,-11 29,-16 49,-16 21,0 37,6 49,17 12,12 18,26 18,43 0,8 -2,17 -5,25 -4,9 -9,17 -18,26 -8,10 -21,22 -40,38 -16,14 -26,23 -31,27 -4,5 -8,10 -11,15l106 0z"/>
   <path id="1" fill="black" fill-rule="nonzero" d="M814 580l57 -81 -53 -75 33 0 25 37c4,7 8,12 10,17 5,-6 9,-12 12,-17l26 -37 32 0 -53 75 57 81 -32 0 -33 -48 -7 -12 -41 60 -33 0z"/>
   <polygon id="2" fill="black" fill-rule="nonzero" points="1055,515 1055,489 1137,489 1137,515 "/>
   <path id="3" fill="black" fill-rule="nonzero" d="M1242 523l27 -2c2,14 7,24 14,31 8,6 17,10 28,10 12,0 23,-5 32,-15 9,-9 13,-22 13,-38 0,-15 -4,-27 -13,-35 -8,-9 -19,-13 -33,-13 -8,0 -16,2 -23,6 -6,3 -12,9 -16,15l-25 -4 21 -110 107 0 0 25 -86 0 -11 58c13,-9 26,-14 40,-14 19,0 35,7 48,20 12,13 19,30 19,50 0,19 -6,36 -17,50 -14,18 -33,26 -56,26 -20,0 -36,-5 -48,-16 -13,-11 -20,-25 -21,-44z"/>
   <polygon id="4" fill="black" fill-rule="nonzero" points="1638,486 1496,547 1496,520 1608,474 1496,428 1496,401 1638,461 "/>
   <polygon id="5" fill="black" fill-rule="nonzero" points="1765,643 1765,361 1789,361 1789,643 "/>
   <path id="6" fill="black" fill-rule="nonzero" d="M1828 523l27 -4c3,15 8,26 15,33 7,6 16,10 27,10 12,0 23,-5 31,-13 9,-9 13,-20 13,-32 0,-12 -4,-22 -12,-30 -8,-8 -18,-12 -30,-12 -5,0 -11,1 -19,3l3 -23c2,0 4,0 5,0 11,0 21,-3 30,-9 9,-6 14,-15 14,-27 0,-9 -4,-17 -10,-24 -7,-6 -15,-9 -26,-9 -10,0 -18,3 -25,9 -7,7 -12,17 -14,30l-26 -5c3,-18 11,-32 22,-41 11,-10 26,-15 43,-15 11,0 22,3 32,8 10,5 18,12 23,20 5,9 8,18 8,28 0,9 -3,17 -8,25 -5,8 -12,14 -22,18 13,3 23,9 30,18 7,10 10,21 10,35 0,19 -7,35 -20,48 -14,13 -31,19 -52,19 -19,0 -35,-5 -47,-16 -13,-12 -20,-26 -22,-44z"/>
   <polygon id="7" fill="black" fill-rule="nonzero" points="2075,515 2075,489 2157,489 2157,515 "/>
   <path id="8" fill="black" fill-rule="nonzero" d="M2400 555l0 25 -142 0c0,-7 1,-13 3,-19 4,-9 10,-19 18,-28 8,-9 19,-20 34,-32 23,-20 39,-35 47,-46 9,-11 13,-22 13,-32 0,-10 -4,-19 -11,-26 -8,-7 -18,-11 -30,-11 -13,0 -23,4 -30,11 -8,8 -12,18 -12,32l-27 -3c2,-20 9,-35 21,-46 12,-11 28,-16 49,-16 20,0 37,6 49,17 12,12 18,26 18,43 0,8 -2,17 -5,25 -4,9 -10,17 -18,26 -8,10 -22,22 -41,38 -15,14 -26,23 -30,27 -5,5 -8,10 -11,15l105 0z"/>
   <path id="9" fill="black" fill-rule="nonzero" d="M2418 580l57 -81 -53 -75 33 0 24 37c5,7 8,12 11,17 4,-6 8,-12 12,-17l26 -37 32 0 -53 75 56 81 -32 0 -32 -48 -7 -12 -42 60 -32 0z"/>
   <polygon id="10" fill="black" fill-rule="nonzero" points="2594,643 2594,361 2617,361 2617,643 "/>
   <polygon id="11" fill="black" fill-rule="nonzero" points="2737,515 2737,489 2818,489 2818,515 "/>
   <polygon id="12" fill="black" fill-rule="nonzero" points="2938,643 2938,361 2961,361 2961,643 "/>
   <path id="13" fill="black" fill-rule="nonzero" d="M3139 555l0 25 -142 0c0,-7 1,-13 3,-19 4,-9 10,-19 18,-28 8,-9 19,-20 34,-32 24,-20 39,-35 48,-46 8,-11 12,-22 12,-32 0,-10 -4,-19 -11,-26 -8,-7 -17,-11 -29,-11 -13,0 -23,4 -31,11 -8,8 -12,18 -12,32l-27 -3c2,-20 9,-35 21,-46 12,-11 29,-16 49,-16 21,0 37,6 49,17 12,12 18,26 18,43 0,8 -2,17 -5,25 -4,9 -9,17 -18,26 -8,10 -21,22 -40,38 -16,14 -26,23 -31,27 -4,5 -8,10 -11,15l105 0z"/>
   <path id="14" fill="black" fill-rule="nonzero" d="M3157 580l57 -81 -53 -75 33 0 24 37c5,7 9,12 11,17 5,-6 9,-12 12,-17l26 -37 32 0 -53 75 57 81 -32 0 -33 -48 -7 -12 -42 60 -32 0z"/>
   <polygon id="15" fill="black" fill-rule="nonzero" points="3398,515 3398,489 3480,489 3480,515 "/>
   <path id="16" fill="black" fill-rule="nonzero" d="M3723 555l0 25 -142 0c0,-7 1,-13 3,-19 3,-9 9,-19 17,-28 8,-9 20,-20 35,-32 23,-20 39,-35 47,-46 8,-11 13,-22 13,-32 0,-10 -4,-19 -12,-26 -7,-7 -17,-11 -29,-11 -13,0 -23,4 -31,11 -7,8 -11,18 -11,32l-27 -3c2,-20 9,-35 21,-46 12,-11 28,-16 49,-16 20,0 37,6 49,17 12,12 18,26 18,43 0,8 -2,17 -6,25 -3,9 -9,17 -17,26 -8,10 -22,22 -41,38 -16,14 -26,23 -30,27 -5,5 -9,10 -12,15l106 0z"/>
   <polygon id="17" fill="black" fill-rule="nonzero" points="3766,643 3766,361 3790,361 3790,643 "/>
   <polyline fill="none" stroke="black" stroke-width="23.6221" points="509,451 579,584 607,317 1009,317 "/>
  </g>
 </g>
</svg>
