<?xml version="1.0" encoding="UTF-8"?>
<!DOCTYPE svg PUBLIC "-//W3C//DTD SVG 1.1//EN" "http://www.w3.org/Graphics/SVG/1.1/DTD/svg11.dtd">
<!-- Creator: CorelDRAW X8 -->
<svg xmlns="http://www.w3.org/2000/svg" xml:space="preserve" width="4298px" height="1340px" version="1.1" shape-rendering="geometricPrecision" text-rendering="geometricPrecision" image-rendering="optimizeQuality" fill-rule="evenodd" clip-rule="evenodd"
viewBox="0 0 4298 1340"
 xmlns:xlink="http://www.w3.org/1999/xlink">
 <g id="Capa_x0020_1">
  <metadata id="CorelCorpID_0Corel-Layer"/>
  <rect fill="white" width="4298" height="1340"/>
  <g id="_2426773663456">
   <g>
    <path fill="black" fill-rule="nonzero" d="M644 608l56 -80 -52 -76 32 0 25 37c4,7 8,13 11,17 4,-6 8,-12 11,-17l26 -37 33 0 -53 76 56 80 -32 0 -32 -48 -8 -11 -41 59 -32 0z"/>
    <polygon id="1" fill="black" fill-rule="nonzero" points="950,573 950,515 892,515 892,490 950,490 950,431 975,431 975,490 1034,490 1034,515 975,515 975,573 "/>
    <path id="2" fill="black" fill-rule="nonzero" d="M1231 608l0 -51 -94 0 0 -24 98 -140 22 0 0 140 29 0 0 24 -29 0 0 51 -26 0zm0 -75l0 -97 -68 97 68 0z"/>
    <path fill="black" fill-rule="nonzero" d="M644 943l56 -80 -52 -75 32 0 25 36c4,7 8,13 11,17 4,-6 8,-12 11,-17l26 -36 33 0 -53 75 56 80 -32 0 -32 -48 -8 -11 -41 59 -32 0z"/>
    <polygon id="1" fill="black" fill-rule="nonzero" points="950,909 950,850 892,850 892,825 950,825 950,767 975,767 975,825 1034,825 1034,850 975,850 975,909 "/>
    <path id="2" fill="black" fill-rule="nonzero" d="M1255 924c-10,8 -19,14 -28,17 -9,4 -19,6 -29,6 -17,0 -31,-5 -40,-13 -9,-8 -14,-19 -14,-32 0,-7 2,-14 6,-21 3,-6 8,-11 13,-15 6,-4 12,-6 19,-8 6,-2 13,-3 24,-4 21,-3 37,-6 47,-9 0,-4 0,-6 0,-7 0,-11 -2,-18 -7,-23 -7,-6 -17,-9 -31,-9 -12,0 -21,2 -27,7 -6,4 -10,12 -13,23l-26 -4c2,-11 6,-20 12,-26 5,-7 13,-12 23,-16 10,-4 22,-6 35,-6 14,0 25,2 33,5 8,3 14,7 18,12 4,5 7,11 8,18 1,4 2,12 2,24l0 35c0,25 0,40 1,47 1,6 4,12 7,18l-28 0c-2,-5 -4,-12 -5,-19zm-2 -59c-10,4 -24,8 -43,10 -11,2 -19,4 -23,5 -5,2 -8,5 -11,9 -2,4 -3,8 -3,12 0,7 2,13 8,18 5,5 13,7 23,7 10,0 19,-2 27,-7 8,-4 14,-10 18,-18 3,-6 4,-15 4,-26l0 -10z"/>
   </g>
   <path fill="black" fill-rule="nonzero" d="M1771 776l-3 -24c5,1 10,2 15,2 6,0 10,-1 14,-3 3,-2 6,-5 8,-8 2,-3 5,-9 9,-20 0,-1 1,-3 2,-6l-59 -156 28 0 32 90c5,11 8,23 12,35 3,-11 6,-23 11,-35l33 -90 26 0 -59 158c-6,17 -11,29 -14,35 -5,9 -11,15 -17,19 -6,4 -13,6 -21,6 -5,0 -11,-1 -17,-3z"/>
   <g>
    <path fill="black" fill-rule="nonzero" d="M2340 673c-14,-19 -26,-40 -36,-65 -10,-24 -15,-50 -15,-76 0,-23 3,-46 11,-67 9,-24 22,-49 40,-74l19 0c-11,21 -19,35 -23,44 -6,13 -11,27 -14,42 -4,18 -6,37 -6,55 0,47 14,94 43,141l-19 0z"/>
    <path id="1" fill="black" fill-rule="nonzero" d="M2414 610l-24 0 0 -215 26 0 0 77c11,-14 25,-21 43,-21 9,0 18,2 27,6 8,3 15,9 21,16 5,7 10,15 13,25 3,10 5,20 5,32 0,26 -7,47 -20,61 -13,15 -29,22 -48,22 -18,0 -32,-8 -43,-23l0 20zm0 -79c0,18 2,32 8,40 8,14 19,21 33,21 12,0 22,-5 30,-15 8,-10 13,-25 13,-45 0,-20 -4,-35 -12,-45 -8,-10 -18,-15 -30,-15 -11,0 -21,5 -29,15 -9,10 -13,25 -13,44z"/>
    <polygon id="2" fill="black" fill-rule="nonzero" points="2630,545 2630,519 2711,519 2711,545 "/>
    <path id="3" fill="black" fill-rule="nonzero" d="M2900 610l0 -51 -93 0 0 -25 98 -139 22 0 0 139 29 0 0 25 -29 0 0 51 -27 0zm0 -76l0 -96 -67 96 67 0z"/>
    <path id="4" fill="black" fill-rule="nonzero" d="M3008 673l-19 0c29,-47 44,-94 44,-141 0,-18 -3,-36 -7,-54 -3,-15 -8,-29 -14,-43 -3,-8 -11,-23 -23,-44l19 0c18,25 31,50 40,74 8,21 12,44 12,67 0,26 -6,52 -16,76 -10,25 -22,46 -36,65z"/>
    <path id="5" fill="black" fill-rule="nonzero" d="M3072 610l57 -81 -53 -75 33 0 24 37c5,7 9,12 11,17 5,-6 8,-12 12,-17l26 -37 32 0 -53 75 57 81 -32 0 -33 -48 -7 -12 -42 60 -32 0z"/>
    <polygon id="6" fill="black" fill-rule="nonzero" points="3379,575 3379,516 3320,516 3320,492 3379,492 3379,433 3404,433 3404,492 3462,492 3462,516 3404,516 3404,575 "/>
    <path id="7" fill="black" fill-rule="nonzero" d="M3684 590c-10,9 -20,15 -29,18 -9,3 -18,5 -29,5 -17,0 -30,-4 -39,-12 -9,-9 -14,-19 -14,-32 0,-8 2,-15 5,-21 4,-6 8,-11 14,-15 6,-4 12,-7 19,-9 5,-1 13,-3 23,-4 22,-2 37,-5 47,-9 1,-3 1,-6 1,-7 0,-10 -3,-18 -8,-22 -7,-6 -17,-9 -30,-9 -12,0 -22,2 -28,6 -5,5 -10,12 -13,23l-25 -3c2,-11 6,-20 11,-27 6,-7 13,-12 24,-16 10,-3 22,-5 35,-5 13,0 24,1 32,5 9,3 15,7 19,11 4,5 6,11 8,18 1,5 1,13 1,25l0 35c0,24 1,39 2,46 1,7 3,13 6,19l-27 0c-3,-6 -5,-12 -5,-20zm-2 -58c-10,4 -24,7 -44,10 -10,1 -18,3 -23,5 -4,2 -8,5 -10,8 -3,4 -4,8 -4,13 0,7 3,13 8,17 6,5 13,7 24,7 10,0 19,-2 27,-6 8,-5 14,-11 17,-18 3,-6 4,-15 4,-27l1 -9z"/>
    <path fill="black" fill-rule="nonzero" d="M2672 945l57 -81 -53 -75 33 0 24 37c5,7 8,13 11,17 4,-6 8,-12 12,-17l26 -37 32 0 -53 75 57 81 -33 0 -32 -48 -7 -12 -42 60 -32 0z"/>
    <polygon id="1" fill="black" fill-rule="nonzero" points="2979,910 2979,851 2920,851 2920,827 2979,827 2979,768 3004,768 3004,827 3062,827 3062,851 3004,851 3004,910 "/>
    <path id="2" fill="black" fill-rule="nonzero" d="M3312 783l-26 2c-3,-11 -6,-18 -10,-23 -7,-7 -16,-11 -27,-11 -8,0 -16,2 -22,7 -8,6 -15,15 -20,26 -5,12 -7,29 -7,50 6,-10 14,-17 23,-21 9,-5 19,-8 29,-8 18,0 33,7 45,20 12,13 18,30 18,50 0,14 -2,26 -8,38 -6,11 -14,20 -24,26 -10,6 -22,10 -35,10 -22,0 -40,-9 -54,-25 -13,-16 -20,-42 -20,-80 0,-41 7,-71 23,-90 13,-17 31,-25 54,-25 17,0 31,5 41,14 11,10 18,23 20,40zm-108 92c0,9 2,18 6,26 4,9 9,15 16,19 7,5 14,7 22,7 11,0 21,-5 29,-14 7,-9 11,-21 11,-36 0,-15 -3,-27 -11,-35 -8,-9 -18,-13 -30,-13 -12,0 -22,4 -31,13 -8,8 -12,19 -12,33z"/>
   </g>
   <line fill="none" stroke="black" stroke-width="23.6221" x1="425" y1="670" x2="1466" y2= "670" />
   <line fill="none" stroke="black" stroke-width="23.6221" x1="2190" y1="670" x2="3873" y2= "670" />
  </g>
 </g>
</svg>
