<?xml version="1.0" encoding="UTF-8"?>
<!DOCTYPE svg PUBLIC "-//W3C//DTD SVG 1.1//EN" "http://www.w3.org/Graphics/SVG/1.1/DTD/svg11.dtd">
<!-- Creator: CorelDRAW X8 -->
<svg xmlns="http://www.w3.org/2000/svg" xml:space="preserve" width="3543px" height="1504px" version="1.1" shape-rendering="geometricPrecision" text-rendering="geometricPrecision" image-rendering="optimizeQuality" fill-rule="evenodd" clip-rule="evenodd"
viewBox="0 0 3543 1504"
 xmlns:xlink="http://www.w3.org/1999/xlink">
 <g id="Capa_x0020_1">
  <metadata id="CorelCorpID_0Corel-Layer"/>
  <rect fill="white" width="3543" height="1504"/>
  <g id="_2426776331520">
   <path fill="black" fill-rule="nonzero" d="M666 679l0 -215 81 0c16,0 29,2 39,7 10,4 18,11 24,20 5,9 8,18 8,28 0,9 -3,18 -7,26 -5,8 -13,15 -23,20 13,4 23,10 30,19 7,9 10,20 10,33 0,10 -2,19 -6,28 -4,8 -9,15 -16,20 -6,4 -14,8 -23,10 -10,3 -21,4 -35,4l-82 0zm29 -124l46 0c13,0 22,-1 27,-3 7,-2 13,-6 17,-11 3,-5 5,-11 5,-19 0,-7 -2,-13 -5,-18 -3,-6 -8,-10 -15,-12 -6,-2 -17,-3 -32,-3l-43 0 0 66zm0 99l53 0c9,0 16,-1 20,-1 6,-1 12,-3 16,-6 4,-3 8,-7 11,-12 3,-5 4,-11 4,-18 0,-8 -2,-15 -6,-21 -4,-6 -10,-10 -17,-13 -7,-2 -18,-3 -32,-3l-49 0 0 74z"/>
   <path id="1" fill="black" fill-rule="nonzero" d="M1086 553l-141 0 0 -25 141 0 0 25zm0 65l-141 0 0 -25 141 0 0 25z"/>
   <path id="2" fill="black" fill-rule="nonzero" d="M1206 679l0 -156 24 0 0 22c11,-17 28,-25 49,-25 10,0 18,2 26,5 8,3 14,8 18,13 4,6 6,12 8,20 1,5 1,13 1,25l0 96 -26 0 0 -95c0,-10 -1,-18 -3,-24 -2,-5 -6,-9 -11,-12 -5,-4 -11,-5 -18,-5 -12,0 -21,3 -29,11 -8,7 -13,20 -13,40l0 85 -26 0z"/>
   <polygon id="3" fill="black" fill-rule="nonzero" points="1547,679 1547,649 1577,649 1577,679 "/>
   <path id="4" fill="black" fill-rule="nonzero" d="M1623 679l0 -156 24 0 0 22c11,-17 28,-25 49,-25 10,0 18,2 26,5 8,3 14,8 18,13 4,6 6,12 8,20 1,5 1,13 1,25l0 96 -26 0 0 -95c0,-10 -1,-18 -3,-24 -2,-5 -6,-9 -11,-12 -5,-4 -11,-5 -18,-5 -12,0 -21,3 -29,11 -9,7 -13,20 -13,40l0 85 -26 0z"/>
   <polygon id="5" fill="black" fill-rule="nonzero" points="1964,679 1964,649 1994,649 1994,679 "/>
   <path id="6" fill="black" fill-rule="nonzero" d="M2040 679l0 -156 24 0 0 22c11,-17 27,-25 49,-25 9,0 18,2 26,5 8,3 14,8 18,13 3,6 6,12 8,20 1,5 1,13 1,25l0 96 -26 0 0 -95c0,-10 -1,-18 -3,-24 -2,-5 -6,-9 -11,-12 -5,-4 -12,-5 -19,-5 -11,0 -20,3 -29,11 -8,7 -12,20 -12,40l0 85 -26 0z"/>
   <polygon id="7" fill="black" fill-rule="nonzero" points="2381,679 2381,649 2411,649 2411,679 "/>
   <polygon id="8" fill="black" fill-rule="nonzero" points="2464,679 2464,649 2494,649 2494,679 "/>
   <polygon id="9" fill="black" fill-rule="nonzero" points="2548,679 2548,649 2578,649 2578,679 "/>
   <path id="10" fill="black" fill-rule="nonzero" d="M2623 679l0 -156 24 0 0 22c12,-17 28,-25 50,-25 9,0 18,2 25,5 8,3 14,8 18,13 4,6 7,12 8,20 1,5 2,13 2,25l0 96 -27 0 0 -95c0,-10 -1,-18 -3,-24 -2,-5 -5,-9 -11,-12 -5,-4 -11,-5 -18,-5 -11,0 -21,3 -29,11 -8,7 -12,20 -12,40l0 85 -27 0z"/>
   <path fill="black" fill-rule="nonzero" d="M1463 529l-21 0 0 -40c0,-8 0,-14 -1,-16 -1,-3 -2,-5 -4,-6 -2,-1 -5,-2 -8,-2 -3,0 -6,1 -9,3 -3,2 -5,5 -6,8 -1,3 -2,9 -2,18l0 35 -20 0 0 -78 19 0 0 11c7,-8 15,-13 26,-13 4,0 8,1 12,3 4,1 7,3 9,6 2,3 3,5 4,9 0,3 1,7 1,13l0 49z"/>
   <path fill="black" fill-rule="nonzero" d="M1880 529l-20 0 0 -40c0,-8 -1,-14 -1,-16 -1,-3 -3,-5 -5,-6 -2,-1 -4,-2 -7,-2 -4,0 -7,1 -10,3 -3,2 -4,5 -6,8 -1,3 -1,9 -1,18l0 35 -21 0 0 -78 19 0 0 11c7,-8 16,-13 26,-13 5,0 9,1 13,3 3,1 6,3 8,6 2,3 4,5 4,9 1,3 1,7 1,13l0 49z"/>
   <path fill="black" fill-rule="nonzero" d="M2292 529l-20 0 0 -40c0,-8 -1,-14 -1,-16 -1,-3 -3,-5 -5,-6 -2,-1 -4,-2 -7,-2 -4,0 -7,1 -10,3 -3,2 -5,5 -6,8 -1,3 -1,9 -1,18l0 35 -21 0 0 -78 19 0 0 11c7,-8 16,-13 26,-13 5,0 9,1 13,3 3,1 6,3 8,6 2,3 3,5 4,9 1,3 1,7 1,13l0 49z"/>
   <path fill="black" fill-rule="nonzero" d="M1996 838l12 0 1 0 13 0c0,-8 2,-15 7,-20 4,-5 10,-9 17,-11 8,-1 21,-2 41,-2 19,0 727,-1 735,-3 9,-1 16,-4 21,-8 6,-5 10,-11 13,-18 1,-4 2,-12 2,-23l0 -9 -26 0 0 5c0,11 -1,17 -4,21 -3,4 -8,6 -15,6 -4,1 -710,1 -731,1 -24,0 -40,2 -50,8 -10,5 -17,13 -23,26 -6,-13 -14,-21 -24,-26 -9,-6 -26,-8 -49,-8 -21,0 -727,0 -731,-1 -8,0 -13,-2 -16,-6 -3,-4 -4,-10 -4,-21l0 -5 -26 0 0 9c0,11 1,19 3,23 2,7 6,13 12,18 6,4 13,7 21,8 9,2 716,3 736,3 19,0 33,1 40,2 8,2 13,6 18,11 4,5 6,12 7,20z"/>
   <path fill="black" fill-rule="nonzero" d="M2877 529l-21 0 0 -40c0,-8 0,-14 -1,-16 -1,-3 -2,-5 -4,-6 -2,-1 -5,-2 -8,-2 -3,0 -6,1 -9,3 -3,2 -5,5 -6,8 -1,3 -2,9 -2,18l0 35 -20 0 0 -78 19 0 0 11c7,-8 15,-13 26,-13 4,0 8,1 12,3 4,1 7,3 9,6 2,3 3,5 4,9 0,3 1,7 1,13l0 49z"/>
   <path fill="black" fill-rule="nonzero" d="M1552 1052l0 -103 15 0 0 14c8,-11 19,-17 33,-17 7,0 12,2 18,4 5,2 9,5 11,9 3,3 5,8 6,13 0,3 1,9 1,17l0 63 -18 0 0 -63c0,-7 -1,-12 -2,-16 -1,-3 -4,-6 -7,-8 -4,-2 -8,-3 -12,-3 -8,0 -14,2 -20,7 -5,5 -8,14 -8,27l0 56 -17 0z"/>
   <polygon id="1" fill="black" fill-rule="nonzero" points="1711,1009 1711,992 1766,992 1766,1009 "/>
   <path id="2" fill="black" fill-rule="nonzero" d="M1845 1052l0 -90 -16 0 0 -13 16 0 0 -11c0,-7 0,-12 2,-16 1,-4 4,-8 8,-11 5,-3 11,-4 18,-4 5,0 11,0 17,2l-3 15c-4,-1 -7,-1 -10,-1 -6,0 -9,1 -12,3 -2,3 -3,7 -3,13l0 10 20 0 0 13 -20 0 0 90 -17 0z"/>
   <path id="3" fill="black" fill-rule="nonzero" d="M1964 1039c-7,6 -13,10 -19,12 -6,3 -12,4 -19,4 -12,0 -21,-3 -27,-9 -6,-5 -9,-12 -9,-21 0,-5 1,-10 4,-14 2,-4 5,-7 9,-10 3,-2 8,-4 12,-6 4,-1 9,-1 16,-2 14,-2 25,-4 31,-6 0,-3 0,-4 0,-5 0,-7 -1,-12 -5,-15 -4,-4 -11,-6 -20,-6 -8,0 -14,2 -18,4 -4,3 -7,8 -9,16l-17 -3c2,-7 4,-13 8,-17 3,-5 9,-8 15,-11 7,-2 15,-4 24,-4 9,0 16,2 22,4 5,2 9,4 12,7 3,4 4,8 5,12 1,3 1,9 1,17l0 23c0,16 1,27 1,31 1,4 3,8 5,12l-19 0c-1,-3 -3,-8 -3,-13zm-2 -39c-6,3 -16,5 -28,7 -8,1 -13,2 -16,4 -3,1 -5,3 -7,5 -1,3 -2,6 -2,9 0,4 2,8 5,11 4,3 9,5 16,5 7,0 13,-2 18,-5 5,-2 9,-7 12,-12 1,-4 2,-9 2,-17l0 -7z"/>
   <path id="4" fill="black" fill-rule="nonzero" d="M2075 1014l17 3c-2,12 -6,21 -14,28 -8,6 -17,10 -29,10 -14,0 -25,-5 -34,-14 -9,-9 -13,-23 -13,-40 0,-11 2,-21 6,-29 3,-9 9,-15 17,-19 7,-4 15,-7 24,-7 12,0 21,3 28,9 7,6 12,14 14,24l-17 3c-2,-7 -5,-12 -9,-16 -4,-3 -9,-5 -15,-5 -9,0 -16,3 -22,9 -5,7 -8,17 -8,30 0,14 3,25 8,31 5,6 12,9 21,9 7,0 13,-2 17,-6 5,-4 8,-11 9,-20z"/>
   <path id="5" fill="black" fill-rule="nonzero" d="M2146 1037l2 15c-5,1 -9,2 -13,2 -7,0 -12,-1 -15,-3 -4,-2 -6,-5 -8,-8 -1,-3 -2,-10 -2,-21l0 -60 -13 0 0 -13 13 0 0 -26 18 -11 0 37 18 0 0 13 -18 0 0 61c0,5 0,8 1,10 0,1 1,2 3,3 1,1 3,1 6,1 2,0 4,0 8,0z"/>
   <path id="6" fill="black" fill-rule="nonzero" d="M2156 1001c0,-20 6,-34 16,-43 9,-8 20,-12 33,-12 14,0 26,5 35,14 9,10 13,23 13,39 0,13 -2,24 -6,32 -4,7 -9,13 -17,17 -8,5 -16,7 -25,7 -15,0 -26,-5 -35,-14 -9,-10 -14,-23 -14,-40zm18 0c0,13 3,23 9,29 6,7 13,10 22,10 9,0 16,-3 22,-10 6,-6 8,-16 8,-30 0,-13 -2,-22 -8,-29 -6,-7 -13,-10 -22,-10 -9,0 -16,3 -22,10 -6,6 -9,16 -9,30z"/>
   <path id="7" fill="black" fill-rule="nonzero" d="M2274 1052l0 -103 16 0 0 16c4,-8 7,-13 11,-15 3,-2 7,-4 11,-4 6,0 12,2 18,6l-6 16c-4,-2 -8,-3 -13,-3 -4,0 -7,1 -10,3 -3,2 -5,6 -7,10 -2,6 -2,13 -2,20l0 54 -18 0z"/>
   <path id="8" fill="black" fill-rule="nonzero" d="M2412 1019l18 2c-3,11 -8,19 -16,25 -8,6 -18,9 -30,9 -15,0 -27,-5 -36,-14 -9,-10 -13,-23 -13,-40 0,-17 4,-30 13,-40 9,-10 21,-15 35,-15 14,0 25,5 34,15 9,9 13,22 13,39 0,1 0,3 0,5l-77 0c1,11 4,20 10,26 5,6 13,9 21,9 7,0 12,-1 17,-5 4,-3 8,-9 11,-16zm-58 -28l58 0c-1,-9 -3,-16 -7,-20 -5,-7 -13,-10 -22,-10 -8,0 -14,3 -20,8 -5,5 -8,13 -9,22z"/>
   <path id="9" fill="black" fill-rule="nonzero" d="M2445 1021l17 -2c1,7 4,12 9,16 4,3 10,5 18,5 8,0 14,-1 18,-5 4,-3 6,-7 6,-11 0,-4 -2,-7 -5,-10 -3,-1 -9,-3 -18,-6 -13,-3 -22,-6 -27,-8 -5,-2 -9,-6 -11,-10 -3,-4 -4,-9 -4,-14 0,-4 1,-9 3,-13 2,-3 5,-7 9,-9 2,-2 6,-4 11,-5 5,-2 10,-3 15,-3 8,0 15,2 21,4 7,2 11,6 14,10 3,4 5,9 6,16l-17 2c-1,-5 -3,-10 -7,-13 -4,-3 -9,-4 -16,-4 -8,0 -13,1 -17,4 -3,3 -5,6 -5,9 0,3 1,5 2,6 2,2 4,4 7,5 2,1 7,2 15,5 13,3 21,6 26,8 5,2 9,5 12,9 3,4 4,9 4,15 0,6 -2,11 -5,16 -3,6 -8,10 -15,12 -6,3 -14,5 -22,5 -13,0 -23,-3 -31,-9 -7,-5 -11,-14 -13,-25z"/>
  </g>
 </g>
</svg>
