<?xml version="1.0" encoding="UTF-8"?>
<!DOCTYPE svg PUBLIC "-//W3C//DTD SVG 1.1//EN" "http://www.w3.org/Graphics/SVG/1.1/DTD/svg11.dtd">
<!-- Creator: CorelDRAW X8 -->
<svg xmlns="http://www.w3.org/2000/svg" xml:space="preserve" width="2967px" height="1556px" version="1.1" shape-rendering="geometricPrecision" text-rendering="geometricPrecision" image-rendering="optimizeQuality" fill-rule="evenodd" clip-rule="evenodd"
viewBox="0 0 2967 1556"
 xmlns:xlink="http://www.w3.org/1999/xlink">
 <g id="Capa_x0020_1">
  <metadata id="CorelCorpID_0Corel-Layer"/>
  <rect fill="white" width="2967" height="1556"/>
  <g id="_2426774625920">
   <path fill="black" fill-rule="nonzero" d="M698 684l57 -81 -53 -75 33 0 25 37c4,7 8,12 10,17 5,-7 9,-12 12,-17l26 -37 32 0 -53 75 57 81 -32 0 -33 -48 -7 -12 -41 60 -33 0z"/>
   <polygon id="1" fill="black" fill-rule="nonzero" points="1523,619 1523,593 1604,593 1604,619 "/>
   <path id="2" fill="black" fill-rule="nonzero" d="M1715 743l-3 -24c6,2 11,2 15,2 6,0 11,-1 14,-3 4,-1 7,-4 9,-8 2,-2 4,-9 8,-19 1,-2 1,-4 2,-7l-59 -156 29 0 32 90c4,11 8,23 11,36 3,-12 7,-24 11,-35l33 -91 27 0 -59 158c-6,17 -11,29 -15,36 -5,8 -10,15 -16,19 -6,4 -13,6 -22,6 -5,0 -11,-1 -17,-4z"/>
   <path fill="black" fill-rule="nonzero" d="M713 1119l57 -81 -53 -75 33 0 24 37c5,7 8,12 11,17 4,-7 8,-12 12,-17l26 -37 32 0 -53 75 56 81 -32 0 -32 -48 -7 -12 -42 60 -32 0z"/>
   <polygon id="1" fill="black" fill-rule="nonzero" points="1537,1054 1537,1028 1619,1028 1619,1054 "/>
   <path id="2" fill="black" fill-rule="nonzero" d="M1730 1179l-3 -25c6,2 11,3 15,3 6,0 11,-1 14,-3 4,-2 6,-5 9,-9 1,-2 4,-9 8,-19 0,-2 1,-4 2,-7l-59 -156 28 0 33 90c4,11 8,23 11,36 3,-12 7,-24 11,-35l33 -91 26 0 -58 158c-7,17 -12,29 -15,36 -5,8 -10,15 -16,19 -6,4 -14,6 -22,6 -5,0 -11,-1 -17,-3z"/>
   <path fill="black" fill-rule="nonzero" d="M969 484l0 -21 -44 0 0 -18 47 -69 17 0 0 69 13 0 0 18 -13 0 0 21 -20 0zm0 -39l0 -37 -24 37 24 0z"/>
   <path id="1" fill="black" fill-rule="nonzero" d="M1087 484l-20 0 0 -39c0,-9 -1,-14 -1,-17 -1,-2 -3,-4 -5,-5 -2,-2 -4,-3 -7,-3 -4,0 -7,1 -10,3 -3,2 -4,5 -6,8 -1,3 -1,9 -1,18l0 35 -21 0 0 -78 19 0 0 12c7,-9 16,-13 26,-13 5,0 9,1 13,2 3,2 6,4 8,6 2,3 4,6 4,9 1,3 1,8 1,14l0 48z"/>
   <polygon id="2" fill="black" fill-rule="nonzero" points="1173,469 1173,441 1145,441 1145,422 1173,422 1173,394 1192,394 1192,422 1220,422 1220,441 1192,441 1192,469 "/>
   <path id="3" fill="black" fill-rule="nonzero" d="M1327 484l-20 0 0 -78c-8,8 -17,13 -27,16l0 -19c6,-1 11,-5 18,-10 6,-5 10,-10 13,-17l16 0 0 108z"/>
   <path id="4" fill="black" fill-rule="nonzero" d="M1428 465l0 19 -72 0c0,-7 3,-14 7,-20 4,-7 11,-15 23,-26 9,-9 15,-15 17,-18 3,-4 4,-8 4,-12 0,-5 -1,-9 -4,-11 -2,-2 -6,-4 -10,-4 -4,0 -8,2 -10,4 -3,3 -4,7 -4,13l-21 -2c1,-11 5,-19 11,-24 7,-5 15,-8 25,-8 10,0 19,3 25,9 6,6 9,13 9,21 0,5 -1,10 -3,14 -2,4 -4,9 -8,14 -3,3 -7,8 -14,14 -6,6 -10,9 -12,11 -2,2 -3,4 -4,6l41 0z"/>
   <path fill="black" fill-rule="nonzero" d="M1977 482l0 -21 -44 0 0 -18 46 -69 18 0 0 69 13 0 0 18 -13 0 0 21 -20 0zm0 -39l0 -37 -25 37 25 0z"/>
   <path id="1" fill="black" fill-rule="nonzero" d="M2095 482l-21 0 0 -39c0,-9 0,-14 -1,-17 -1,-2 -2,-4 -4,-5 -2,-2 -5,-2 -7,-2 -4,0 -7,0 -10,2 -3,2 -5,5 -6,8 -1,3 -2,9 -2,18l0 35 -20 0 0 -78 19 0 0 12c7,-9 15,-13 26,-13 4,0 8,1 12,2 4,2 7,4 9,6 2,3 3,6 4,9 1,3 1,8 1,14l0 48z"/>
   <polygon id="2" fill="black" fill-rule="nonzero" points="2155,454 2155,433 2196,433 2196,454 "/>
   <path id="3" fill="black" fill-rule="nonzero" d="M2244 454l20 -3c1,5 2,9 5,12 3,3 6,4 10,4 4,0 8,-2 11,-5 3,-3 4,-7 4,-13 0,-5 -1,-9 -4,-12 -3,-3 -6,-5 -10,-5 -3,0 -6,1 -10,2l3 -17c5,0 9,-1 12,-3 3,-3 5,-6 5,-11 0,-3 -1,-6 -3,-8 -3,-3 -5,-4 -9,-4 -4,0 -7,2 -9,4 -3,2 -4,6 -5,11l-18 -3c1,-7 3,-12 5,-16 3,-4 7,-7 12,-9 4,-3 10,-4 16,-4 10,0 18,3 24,10 5,5 7,11 7,18 0,9 -5,17 -15,23 6,1 11,4 15,8 3,5 5,11 5,17 0,10 -3,18 -10,24 -7,7 -15,10 -26,10 -9,0 -17,-3 -24,-8 -6,-6 -10,-13 -11,-22z"/>
   <path fill="black" fill-rule="nonzero" d="M993 934l-20 0 0 -40c0,-8 -1,-14 -2,-16 0,-3 -2,-4 -4,-6 -2,-1 -4,-2 -7,-2 -4,0 -7,1 -10,3 -3,2 -5,5 -6,8 -1,3 -1,9 -1,18l0 35 -21 0 0 -78 19 0 0 11c7,-8 16,-13 26,-13 5,0 9,1 13,3 3,2 6,4 8,6 2,3 3,6 4,9 1,3 1,8 1,14l0 48z"/>
   <polygon id="1" fill="black" fill-rule="nonzero" points="1053,905 1053,885 1094,885 1094,905 "/>
   <path id="2" fill="black" fill-rule="nonzero" d="M1161 876c-6,-2 -9,-5 -12,-9 -2,-4 -3,-9 -3,-13 0,-8 2,-15 8,-20 5,-5 13,-8 24,-8 10,0 18,3 23,8 6,5 9,12 9,20 0,5 -1,9 -4,13 -3,4 -6,7 -11,9 6,2 11,6 14,10 3,5 4,10 4,16 0,10 -3,18 -9,25 -6,6 -15,9 -25,9 -10,0 -18,-3 -25,-8 -7,-6 -11,-14 -11,-25 0,-6 1,-11 4,-16 3,-5 8,-9 14,-11zm4 -21c0,4 1,7 3,10 3,2 6,3 10,3 4,0 7,-1 9,-3 2,-3 4,-6 4,-10 0,-4 -2,-7 -4,-9 -2,-3 -5,-4 -9,-4 -4,0 -7,1 -9,4 -3,2 -4,5 -4,9zm-2 46c0,6 2,10 4,14 3,3 7,4 11,4 4,0 8,-1 11,-4 3,-3 4,-8 4,-14 0,-5 -1,-9 -4,-12 -3,-3 -7,-4 -11,-4 -5,0 -9,1 -11,5 -3,3 -4,7 -4,11z"/>
   <path fill="black" fill-rule="nonzero" d="M2020 934l-20 0 0 -40c0,-8 -1,-14 -1,-16 -1,-3 -3,-4 -5,-6 -2,-1 -4,-2 -7,-2 -4,0 -7,1 -10,3 -2,2 -4,5 -5,8 -2,3 -2,9 -2,18l0 35 -21 0 0 -78 19 0 0 11c7,-8 16,-13 26,-13 5,0 9,1 13,3 3,2 6,4 8,6 2,3 4,6 4,9 1,3 1,8 1,14l0 48z"/>
   <polygon id="1" fill="black" fill-rule="nonzero" points="2081,905 2081,885 2121,885 2121,905 "/>
   <path id="2" fill="black" fill-rule="nonzero" d="M2171 909l20 -2c0,4 2,7 4,9 2,2 4,3 8,3 4,0 7,-2 10,-6 3,-4 5,-12 6,-25 -5,6 -12,9 -19,9 -9,0 -16,-3 -22,-9 -6,-7 -9,-15 -9,-26 0,-11 3,-19 9,-26 7,-7 15,-10 25,-10 11,0 20,4 27,13 7,8 10,22 10,41 0,20 -3,34 -11,43 -7,9 -16,13 -28,13 -8,0 -15,-2 -20,-7 -5,-4 -9,-11 -10,-20zm46 -45c0,-7 -1,-12 -4,-16 -3,-3 -7,-5 -11,-5 -4,0 -7,2 -9,5 -3,3 -4,7 -4,14 0,7 1,12 4,15 3,4 6,5 10,5 4,0 7,-1 10,-4 3,-3 4,-8 4,-14z"/>
   <line fill="none" stroke="black" stroke-width="23.6221" x1="496" y1="775" x2="2471" y2= "775" />
  </g>
 </g>
</svg>
