<?xml version="1.0" encoding="UTF-8"?>
<!DOCTYPE svg PUBLIC "-//W3C//DTD SVG 1.1//EN" "http://www.w3.org/Graphics/SVG/1.1/DTD/svg11.dtd">
<!-- Creator: CorelDRAW X8 -->
<svg xmlns="http://www.w3.org/2000/svg" xml:space="preserve" width="4299px" height="960px" version="1.1" shape-rendering="geometricPrecision" text-rendering="geometricPrecision" image-rendering="optimizeQuality" fill-rule="evenodd" clip-rule="evenodd"
viewBox="0 0 4299 960"
 xmlns:xlink="http://www.w3.org/1999/xlink">
 <g id="Capa_x0020_1">
  <metadata id="CorelCorpID_0Corel-Layer"/>
  <rect fill="white" width="4299" height="960"/>
  <g id="_2426770256912">
   <path fill="black" fill-rule="nonzero" d="M483 656c-14,-19 -27,-40 -37,-65 -10,-24 -15,-50 -15,-76 0,-23 4,-46 12,-67 8,-25 22,-49 40,-74l19 0c-12,21 -19,35 -23,44 -6,13 -11,27 -14,42 -5,18 -7,37 -7,55 0,47 15,94 44,141l-19 0z"/>
   <path id="1" fill="black" fill-rule="nonzero" d="M533 593l0 -156 23 0 0 22c12,-17 28,-25 50,-25 9,0 18,1 26,5 8,3 14,8 17,13 4,6 7,12 9,20 1,4 1,13 1,25l0 96 -26 0 0 -95c0,-11 -1,-19 -3,-24 -2,-5 -6,-9 -11,-13 -5,-3 -12,-4 -19,-4 -11,0 -20,3 -29,10 -8,7 -12,21 -12,41l0 85 -26 0z"/>
   <polygon id="2" fill="black" fill-rule="nonzero" points="772,528 772,502 854,502 854,528 "/>
   <path id="3" fill="black" fill-rule="nonzero" d="M1097 568l0 25 -142 0c0,-7 1,-13 3,-19 4,-9 10,-19 18,-28 8,-9 19,-20 34,-33 24,-19 39,-34 48,-45 8,-11 12,-22 12,-32 0,-10 -4,-19 -11,-26 -8,-7 -18,-11 -30,-11 -12,0 -23,4 -30,11 -8,8 -12,18 -12,32l-27 -3c2,-20 9,-35 21,-46 12,-11 29,-16 49,-16 21,0 37,6 49,17 12,12 18,26 18,43 0,8 -2,17 -5,25 -4,8 -10,17 -18,26 -8,10 -22,22 -40,38 -16,14 -26,23 -31,27 -4,5 -8,10 -11,15l105 0z"/>
   <path id="4" fill="black" fill-rule="nonzero" d="M1150 656l-18 0c29,-47 43,-94 43,-141 0,-18 -2,-36 -6,-55 -3,-14 -8,-28 -14,-42 -4,-8 -12,-23 -23,-44l18 0c19,25 32,49 41,74 8,21 11,44 11,67 0,26 -5,52 -15,76 -10,25 -22,46 -37,65z"/>
   <path id="5" fill="black" fill-rule="nonzero" d="M1215 593l57 -81 -53 -75 33 0 24 37c5,7 8,12 11,17 4,-7 8,-12 12,-17l26 -37 32 0 -53 75 56 81 -32 0 -32 -48 -7 -12 -42 60 -32 0z"/>
   <polygon id="6" fill="black" fill-rule="nonzero" points="1605,558 1605,499 1547,499 1547,475 1605,475 1605,416 1630,416 1630,475 1689,475 1689,499 1630,499 1630,558 "/>
   <path id="7" fill="black" fill-rule="nonzero" d="M1859 656c-15,-19 -27,-40 -37,-65 -10,-24 -15,-50 -15,-76 0,-23 3,-46 11,-67 9,-25 22,-49 41,-74l19 0c-12,21 -20,35 -24,44 -6,13 -11,27 -14,42 -4,18 -6,37 -6,55 0,47 14,94 44,141l-19 0z"/>
   <path id="8" fill="black" fill-rule="nonzero" d="M1901 536l26 -4c3,15 8,26 16,33 7,6 16,9 26,9 13,0 23,-4 32,-12 8,-9 13,-20 13,-32 0,-12 -4,-22 -12,-30 -8,-8 -18,-12 -30,-12 -5,0 -12,1 -19,3l3 -23c2,0 3,0 4,0 11,0 22,-3 31,-9 9,-6 13,-15 13,-27 0,-9 -3,-17 -10,-24 -6,-6 -15,-9 -25,-9 -10,0 -19,3 -26,9 -7,7 -11,17 -13,30l-26 -5c3,-18 10,-32 22,-41 11,-10 25,-15 42,-15 12,0 23,3 33,8 10,5 17,11 22,20 6,9 8,18 8,28 0,9 -2,17 -7,25 -5,8 -13,14 -22,18 12,3 22,9 29,18 7,10 11,21 11,35 0,19 -7,35 -21,48 -14,13 -31,19 -52,19 -19,0 -34,-5 -47,-17 -12,-11 -19,-25 -21,-43z"/>
   <polygon id="9" fill="black" fill-rule="nonzero" points="2148,528 2148,502 2229,502 2229,528 "/>
   <path id="10" fill="black" fill-rule="nonzero" d="M2342 593l0 -156 23 0 0 22c12,-17 28,-25 50,-25 9,0 18,1 26,5 7,3 13,8 17,13 4,6 7,12 8,20 1,4 2,13 2,25l0 96 -27 0 0 -95c0,-11 -1,-19 -3,-24 -2,-5 -5,-9 -10,-13 -6,-3 -12,-4 -19,-4 -11,0 -21,3 -29,10 -8,7 -12,21 -12,41l0 85 -26 0z"/>
   <path id="11" fill="black" fill-rule="nonzero" d="M2526 656l-19 0c29,-47 44,-94 44,-141 0,-18 -2,-36 -7,-55 -3,-14 -8,-28 -13,-42 -4,-8 -12,-23 -24,-44l19 0c18,25 32,49 40,74 8,21 12,44 12,67 0,26 -5,52 -15,76 -10,25 -23,46 -37,65z"/>
   <path id="12" fill="black" fill-rule="nonzero" d="M2590 593l57 -81 -52 -75 32 0 25 37c4,7 8,12 10,17 5,-7 9,-12 12,-17l26 -37 32 0 -53 75 57 81 -32 0 -32 -48 -8 -12 -41 60 -33 0z"/>
   <polygon id="13" fill="black" fill-rule="nonzero" points="2897,558 2897,499 2839,499 2839,475 2897,475 2897,416 2922,416 2922,475 2981,475 2981,499 2922,499 2922,558 "/>
   <path id="14" fill="black" fill-rule="nonzero" d="M3231 568l0 25 -142 0c0,-7 1,-13 3,-19 4,-9 10,-19 18,-28 8,-9 19,-20 34,-33 24,-19 39,-34 48,-45 8,-11 12,-22 12,-32 0,-10 -4,-19 -11,-26 -8,-7 -18,-11 -30,-11 -12,0 -23,4 -30,11 -8,8 -12,18 -12,32l-27 -3c2,-20 9,-35 21,-46 12,-11 29,-16 49,-16 21,0 37,6 49,17 12,12 18,26 18,43 0,8 -2,17 -5,25 -4,8 -10,17 -18,26 -8,10 -22,22 -40,38 -16,14 -26,23 -31,27 -4,5 -8,10 -11,15l105 0z"/>
   <path id="15" fill="black" fill-rule="nonzero" d="M3267 593l0 -156 24 0 0 22c11,-17 28,-25 49,-25 10,0 18,1 26,5 8,3 14,8 18,13 4,6 6,12 8,20 1,4 1,13 1,25l0 96 -26 0 0 -95c0,-11 -1,-19 -3,-24 -2,-5 -6,-9 -11,-13 -5,-3 -11,-4 -18,-4 -12,0 -21,3 -29,10 -8,7 -13,21 -13,41l0 85 -26 0z"/>
   <path id="16" fill="black" fill-rule="nonzero" d="M3656 466l-142 0 0 -24 142 0 0 24zm0 66l-142 0 0 -25 142 0 0 25z"/>
   <path id="17" fill="black" fill-rule="nonzero" d="M3868 593l-27 0 0 -168c-6,6 -14,12 -25,18 -10,6 -19,10 -28,13l0 -25c15,-7 28,-15 39,-25 11,-10 19,-20 24,-29l17 0 0 216z"/>
   <path fill="black" fill-rule="nonzero" d="M1475 393l0 19 -72 0c1,-7 3,-14 7,-20 4,-7 12,-15 23,-26 10,-9 15,-15 17,-18 3,-4 5,-8 5,-12 0,-5 -2,-8 -4,-11 -3,-2 -6,-4 -10,-4 -5,0 -8,2 -11,4 -2,3 -3,7 -4,13l-20 -2c1,-11 5,-19 11,-24 7,-5 15,-8 24,-8 11,0 19,3 25,9 6,6 9,13 9,21 0,5 -1,10 -2,14 -2,4 -5,9 -9,14 -2,3 -7,8 -13,14 -7,6 -11,9 -12,11 -2,2 -4,4 -5,6l41 0z"/>
  </g>
 </g>
</svg>
