<?xml version="1.0" encoding="UTF-8"?>
<!DOCTYPE svg PUBLIC "-//W3C//DTD SVG 1.1//EN" "http://www.w3.org/Graphics/SVG/1.1/DTD/svg11.dtd">
<!-- Creator: CorelDRAW X8 -->
<svg xmlns="http://www.w3.org/2000/svg" xml:space="preserve" width="2343px" height="519px" version="1.1" shape-rendering="geometricPrecision" text-rendering="geometricPrecision" image-rendering="optimizeQuality" fill-rule="evenodd" clip-rule="evenodd"
viewBox="0 0 2343 519"
 xmlns:xlink="http://www.w3.org/1999/xlink">
 <g id="Capa_x0020_1">
  <metadata id="CorelCorpID_0Corel-Layer"/>
  <rect fill="white" width="2343" height="519"/>
  <path fill="black" fill-rule="nonzero" d="M977 310l28 -2c2,14 7,24 14,31 7,6 16,10 27,10 13,0 24,-5 32,-14 9,-10 14,-23 14,-39 0,-15 -5,-26 -13,-35 -8,-9 -19,-13 -33,-13 -9,0 -16,2 -23,6 -7,4 -12,9 -16,15l-25 -4 21 -110 106 0 0 25 -85 0 -12 58c13,-9 27,-14 41,-14 18,0 34,7 47,20 13,13 19,30 19,50 0,19 -5,36 -17,50 -13,18 -32,26 -56,26 -19,0 -35,-5 -48,-16 -12,-11 -19,-25 -21,-44z"/>
  <polygon id="1" fill="black" fill-rule="nonzero" points="1131,370 1194,148 1215,148 1153,370 "/>
  <path id="2" fill="black" fill-rule="nonzero" d="M1366 342l0 25 -142 0c-1,-6 0,-13 3,-18 3,-10 9,-20 17,-29 8,-9 20,-20 35,-32 23,-20 39,-35 47,-46 8,-11 12,-22 12,-32 0,-10 -3,-19 -11,-26 -7,-7 -17,-11 -29,-11 -13,0 -23,4 -31,11 -7,8 -11,19 -11,32l-27 -3c1,-20 9,-35 21,-46 12,-11 28,-16 48,-16 21,0 37,6 49,17 12,12 18,26 18,43 0,8 -1,17 -5,25 -3,9 -9,17 -17,27 -9,9 -22,21 -41,37 -16,14 -26,23 -31,27 -4,5 -8,10 -11,15l106 0z"/>
 </g>
</svg>
