<?xml version="1.0" encoding="UTF-8"?>
<!DOCTYPE svg PUBLIC "-//W3C//DTD SVG 1.1//EN" "http://www.w3.org/Graphics/SVG/1.1/DTD/svg11.dtd">
<!-- Creator: CorelDRAW X8 -->
<svg xmlns="http://www.w3.org/2000/svg" xml:space="preserve" width="2343px" height="519px" version="1.1" shape-rendering="geometricPrecision" text-rendering="geometricPrecision" image-rendering="optimizeQuality" fill-rule="evenodd" clip-rule="evenodd"
viewBox="0 0 2343 519"
 xmlns:xlink="http://www.w3.org/1999/xlink">
 <g id="Capa_x0020_1">
  <metadata id="CorelCorpID_0Corel-Layer"/>
  <rect fill="white" width="2343" height="519"/>
  <path fill="black" fill-rule="nonzero" d="M1100 307l28 -2c2,14 7,24 14,31 8,6 17,10 27,10 13,0 24,-5 33,-15 8,-9 13,-22 13,-38 0,-15 -4,-27 -13,-35 -8,-9 -19,-13 -33,-13 -8,0 -16,2 -23,5 -7,4 -12,9 -16,16l-25 -4 21 -110 106 0 0 25 -85 0 -12 58c13,-9 27,-14 41,-14 19,0 34,7 47,20 13,13 20,29 20,50 0,19 -6,36 -17,50 -14,18 -33,26 -57,26 -19,0 -35,-5 -47,-16 -13,-11 -20,-26 -22,-44z"/>
 </g>
</svg>
