<?xml version="1.0" encoding="UTF-8"?>
<!DOCTYPE svg PUBLIC "-//W3C//DTD SVG 1.1//EN" "http://www.w3.org/Graphics/SVG/1.1/DTD/svg11.dtd">
<!-- Creator: CorelDRAW X8 -->
<svg xmlns="http://www.w3.org/2000/svg" xml:space="preserve" width="2343px" height="519px" version="1.1" shape-rendering="geometricPrecision" text-rendering="geometricPrecision" image-rendering="optimizeQuality" fill-rule="evenodd" clip-rule="evenodd"
viewBox="0 0 2343 519"
 xmlns:xlink="http://www.w3.org/1999/xlink">
 <g id="Capa_x0020_1">
  <metadata id="CorelCorpID_0Corel-Layer"/>
  <rect fill="white" width="2343" height="519"/>
  <path fill="black" fill-rule="nonzero" d="M1243 342l0 25 -143 0c0,-6 1,-12 4,-18 3,-10 9,-19 17,-29 8,-9 20,-20 35,-32 23,-19 39,-34 47,-45 8,-12 12,-22 12,-32 0,-11 -3,-20 -11,-27 -7,-7 -17,-10 -29,-10 -13,0 -23,3 -31,11 -7,7 -11,18 -11,31l-27 -2c1,-20 8,-36 21,-46 12,-11 28,-16 48,-16 21,0 37,5 49,17 12,11 18,25 18,42 0,9 -1,17 -5,26 -3,8 -9,17 -17,26 -9,9 -22,22 -41,38 -16,13 -26,22 -31,27 -4,5 -8,9 -11,14l106 0z"/>
 </g>
</svg>
