<?xml version="1.0" encoding="UTF-8"?>
<!DOCTYPE svg PUBLIC "-//W3C//DTD SVG 1.1//EN" "http://www.w3.org/Graphics/SVG/1.1/DTD/svg11.dtd">
<!-- Creator: CorelDRAW X8 -->
<svg xmlns="http://www.w3.org/2000/svg" xml:space="preserve" width="2343px" height="519px" version="1.1" shape-rendering="geometricPrecision" text-rendering="geometricPrecision" image-rendering="optimizeQuality" fill-rule="evenodd" clip-rule="evenodd"
viewBox="0 0 2343 519"
 xmlns:xlink="http://www.w3.org/1999/xlink">
 <g id="Capa_x0020_1">
  <metadata id="CorelCorpID_0Corel-Layer"/>
  <rect fill="white" width="2343" height="519"/>
  <g id="_2426766530480">
   <path fill="black" fill-rule="nonzero" d="M764 332l27 -2c2,14 7,24 14,31 8,6 17,10 28,10 12,0 23,-5 32,-15 9,-9 13,-22 13,-38 0,-15 -4,-27 -13,-35 -8,-9 -19,-13 -33,-13 -8,0 -16,2 -23,5 -6,4 -12,9 -16,16l-25 -4 21 -110 107 0 0 25 -86 0 -11 58c13,-9 26,-14 40,-14 19,0 35,7 48,20 12,13 19,29 19,50 0,19 -6,36 -17,50 -14,18 -33,26 -56,26 -20,0 -36,-5 -48,-16 -13,-11 -20,-26 -21,-44z"/>
   <polygon id="1" fill="black" fill-rule="nonzero" points="1011,324 1011,298 1092,298 1092,324 "/>
   <path id="2" fill="black" fill-rule="nonzero" d="M1364 332l27 -2c2,14 7,24 15,31 7,6 16,10 27,10 13,0 23,-5 32,-15 9,-9 13,-22 13,-38 0,-15 -4,-27 -12,-35 -9,-9 -20,-13 -34,-13 -8,0 -16,2 -23,5 -6,4 -12,9 -16,16l-24 -4 20 -110 107 0 0 25 -86 0 -11 58c13,-9 26,-14 40,-14 19,0 35,7 48,20 13,13 19,29 19,50 0,19 -6,36 -17,50 -14,18 -33,26 -56,26 -20,0 -36,-5 -48,-16 -12,-11 -19,-26 -21,-44z"/>
   <polyline fill="none" stroke="black" stroke-width="23.6221" points="1212,259 1281,393 1309,126 1579,126 "/>
  </g>
 </g>
</svg>
