<?xml version="1.0" encoding="UTF-8"?>
<!DOCTYPE svg PUBLIC "-//W3C//DTD SVG 1.1//EN" "http://www.w3.org/Graphics/SVG/1.1/DTD/svg11.dtd">
<!-- Creator: CorelDRAW X8 -->
<svg xmlns="http://www.w3.org/2000/svg" xml:space="preserve" width="3543px" height="953px" version="1.1" shape-rendering="geometricPrecision" text-rendering="geometricPrecision" image-rendering="optimizeQuality" fill-rule="evenodd" clip-rule="evenodd"
viewBox="0 0 3543 953"
 xmlns:xlink="http://www.w3.org/1999/xlink">
 <g id="Capa_x0020_1">
  <metadata id="CorelCorpID_0Corel-Layer"/>
  <rect fill="white" width="3543" height="953"/>
  <g id="_2426770570368">
   <path fill="black" fill-rule="nonzero" d="M578 588l0 -135 -24 0 0 -21 24 0 0 -16c0,-11 1,-18 2,-23 3,-7 7,-13 14,-17 6,-4 15,-6 27,-6 7,0 15,1 24,2l-4 23c-5,-1 -10,-1 -15,-1 -8,0 -14,2 -17,5 -4,3 -5,10 -5,19l0 14 30 0 0 21 -30 0 0 135 -26 0z"/>
   <path id="1" fill="black" fill-rule="nonzero" d="M705 651c-14,-18 -27,-40 -37,-64 -10,-25 -15,-50 -15,-77 0,-23 4,-45 11,-67 9,-24 23,-49 41,-73l19 0c-12,20 -20,34 -23,43 -6,14 -11,28 -14,42 -5,19 -7,37 -7,55 0,47 15,94 44,141l-19 0z"/>
   <path id="2" fill="black" fill-rule="nonzero" d="M737 588l56 -81 -52 -75 32 0 25 37c4,7 8,13 11,17 4,-6 8,-12 12,-17l25 -37 33 0 -53 75 56 81 -32 0 -32 -48 -8 -11 -41 59 -32 0z"/>
   <path id="3" fill="black" fill-rule="nonzero" d="M922 651l-19 0c29,-47 44,-94 44,-141 0,-18 -2,-36 -6,-54 -4,-15 -8,-29 -14,-42 -4,-9 -12,-24 -24,-44l19 0c18,24 32,49 41,73 7,22 11,44 11,67 0,27 -5,52 -15,77 -10,24 -23,46 -37,64z"/>
   <path id="4" fill="black" fill-rule="nonzero" d="M1226 462l-141 0 0 -25 141 0 0 25zm0 65l-141 0 0 -25 141 0 0 25z"/>
   <path id="5" fill="black" fill-rule="nonzero" d="M1397 651c-15,-18 -27,-40 -37,-64 -10,-25 -15,-50 -15,-77 0,-23 4,-45 11,-67 9,-24 23,-49 41,-73l19 0c-12,20 -20,34 -24,43 -6,14 -10,28 -14,42 -4,19 -6,37 -6,55 0,47 15,94 44,141l-19 0z"/>
   <path id="6" fill="black" fill-rule="nonzero" d="M1428 588l57 -81 -52 -75 32 0 25 37c4,7 8,13 10,17 5,-6 9,-12 12,-17l26 -37 32 0 -53 75 57 81 -32 0 -32 -48 -8 -11 -41 59 -33 0z"/>
   <polygon id="7" fill="black" fill-rule="nonzero" points="1669,524 1669,497 1751,497 1751,524 "/>
   <path id="8" fill="black" fill-rule="nonzero" d="M1940 588l0 -51 -93 0 0 -25 98 -139 21 0 0 139 30 0 0 25 -30 0 0 51 -26 0zm0 -76l0 -96 -67 96 67 0z"/>
   <path id="9" fill="black" fill-rule="nonzero" d="M2047 651l-19 0c30,-47 44,-94 44,-141 0,-18 -2,-36 -6,-54 -3,-15 -8,-29 -14,-42 -4,-9 -12,-24 -24,-44l19 0c19,24 32,49 41,73 7,22 11,44 11,67 0,27 -5,52 -15,77 -10,24 -22,46 -37,64z"/>
   <polygon id="10" fill="black" fill-rule="nonzero" points="2304,651 2304,370 2327,370 2327,651 "/>
   <path id="11" fill="black" fill-rule="nonzero" d="M2356 588l57 -81 -52 -75 32 0 25 37c4,7 8,13 10,17 5,-6 9,-12 12,-17l26 -37 32 0 -53 75 57 81 -32 0 -32 -48 -8 -11 -41 59 -33 0z"/>
   <polygon id="12" fill="black" fill-rule="nonzero" points="2597,524 2597,497 2679,497 2679,524 "/>
   <path id="13" fill="black" fill-rule="nonzero" d="M2868 588l0 -51 -93 0 0 -25 98 -139 21 0 0 139 30 0 0 25 -30 0 0 51 -26 0zm0 -76l0 -96 -67 96 67 0z"/>
   <polygon id="14" fill="black" fill-rule="nonzero" points="2966,651 2966,370 2989,370 2989,651 "/>
   <path fill="black" fill-rule="nonzero" d="M2194 391l0 19 -72 0c0,-7 3,-14 7,-21 3,-6 11,-15 23,-25 9,-9 15,-15 17,-18 3,-4 4,-9 4,-13 0,-4 -1,-8 -4,-10 -2,-3 -6,-4 -10,-4 -4,0 -8,1 -10,4 -3,2 -4,7 -5,13l-20 -2c1,-12 5,-20 11,-25 7,-5 15,-7 25,-7 10,0 19,3 25,9 6,5 9,12 9,21 0,5 -1,9 -3,14 -2,4 -4,9 -8,13 -3,4 -7,8 -14,14 -6,6 -10,10 -12,12 -2,2 -3,4 -4,6l41 0z"/>
  </g>
 </g>
</svg>
