<?xml version="1.0" encoding="UTF-8"?>
<!DOCTYPE svg PUBLIC "-//W3C//DTD SVG 1.1//EN" "http://www.w3.org/Graphics/SVG/1.1/DTD/svg11.dtd">
<!-- Creator: CorelDRAW X8 -->
<svg xmlns="http://www.w3.org/2000/svg" xml:space="preserve" width="4410px" height="2462px" version="1.1" shape-rendering="geometricPrecision" text-rendering="geometricPrecision" image-rendering="optimizeQuality" fill-rule="evenodd" clip-rule="evenodd"
viewBox="0 0 4410 2462"
 xmlns:xlink="http://www.w3.org/1999/xlink">
 <g id="Capa_x0020_1">
  <metadata id="CorelCorpID_0Corel-Layer"/>
  <rect fill="white" width="4410" height="2462"/>
  <polygon fill="none" stroke="black" stroke-width="23.6221" points="665,621 3745,1841 1702,1841 "/>
  <circle fill="black" cx="1702" cy="1841" r="39"/>
  <circle fill="black" cx="3745" cy="1841" r="39"/>
  <circle fill="black" cx="665" cy="621" r="39"/>
  <line fill="none" stroke="black" stroke-width="17.7165" x1="1702" y1="1841" x2="665" y2= "1841" />
  <line fill="none" stroke="black" stroke-width="17.7165" stroke-dasharray="35.433090 88.582725" x1="665" y1="621" x2="665" y2= "1841" />
  <path fill="black" fill-rule="nonzero" d="M2671 2022l21 -1c1,9 5,17 10,22 5,5 12,7 20,7 9,0 17,-3 23,-10 7,-7 10,-17 10,-28 0,-11 -3,-20 -9,-26 -6,-7 -14,-10 -24,-10 -7,0 -12,2 -17,5 -5,2 -9,6 -12,11l-18 -3 15 -81 78 0 0 19 -63 0 -8 42c9,-7 19,-10 30,-10 13,0 25,5 34,14 10,10 14,22 14,37 0,14 -4,27 -12,37 -10,13 -24,19 -41,19 -14,0 -26,-4 -35,-12 -9,-8 -14,-19 -16,-32z"/>
  <path fill="black" fill-rule="nonzero" d="M1119 2058l42 -59 -39 -55 24 0 18 27c3,5 6,9 8,12 3,-5 6,-9 9,-12l19 -27 23 0 -38 55 41 59 -24 0 -23 -35 -6 -9 -30 44 -24 0z"/>
  <g id="_2426774669728">
   <path fill="black" fill-rule="nonzero" d="M2162 1127l20 -2c2,10 5,18 10,23 6,5 13,7 20,7 10,0 18,-3 24,-10 6,-7 10,-17 10,-28 0,-11 -3,-20 -10,-26 -6,-7 -14,-10 -24,-10 -6,0 -12,1 -17,4 -5,3 -9,7 -11,11l-19 -2 16 -81 78 0 0 18 -63 0 -8 43c9,-7 19,-10 29,-10 14,0 25,5 35,14 9,10 14,22 14,37 0,14 -4,26 -12,37 -10,13 -24,19 -42,19 -14,0 -26,-4 -35,-12 -9,-8 -14,-19 -15,-32z"/>
   <path id="1" fill="black" fill-rule="nonzero" d="M2406 1127l19 -3c3,11 6,19 12,24 5,4 12,7 19,7 9,0 17,-3 23,-10 7,-6 10,-14 10,-23 0,-9 -3,-16 -9,-22 -6,-6 -13,-9 -22,-9 -4,0 -8,1 -14,3l2 -17c2,0 3,0 4,0 8,0 15,-2 22,-7 6,-4 10,-10 10,-19 0,-7 -3,-13 -7,-18 -5,-5 -11,-7 -19,-7 -8,0 -14,2 -19,7 -5,5 -8,12 -10,22l-19 -4c3,-13 8,-23 16,-30 9,-7 19,-11 31,-11 9,0 17,2 24,6 7,3 13,8 17,15 4,6 5,13 5,20 0,7 -1,13 -5,19 -4,5 -9,10 -16,13 9,2 16,6 21,13 6,7 8,15 8,26 0,13 -5,25 -15,35 -10,9 -23,14 -38,14 -14,0 -25,-4 -34,-12 -9,-9 -15,-19 -16,-32z"/>
   <polyline fill="none" stroke="black" stroke-width="17.7165" points="2293,1070 2343,1168 2364,973 2562,973 "/>
  </g>
  <path fill="black" fill-rule="nonzero" d="M484 639l0 -143 54 0c11,0 19,2 26,4 7,3 12,8 15,14 4,6 6,12 6,19 0,6 -2,12 -5,17 -3,5 -8,10 -15,13 9,3 15,7 20,13 5,6 7,13 7,22 0,6 -1,13 -4,18 -3,6 -7,11 -11,14 -4,3 -9,5 -15,7 -7,1 -14,2 -24,2l-54 0zm19 -83l31 0c8,0 14,0 18,-1 5,-2 8,-4 11,-8 2,-3 3,-7 3,-12 0,-5 -1,-9 -3,-13 -2,-3 -6,-6 -10,-7 -4,-1 -11,-2 -22,-2l-28 0 0 43zm0 66l36 0c6,0 10,0 12,0 5,-1 8,-2 11,-4 3,-2 6,-5 8,-8 2,-4 2,-8 2,-12 0,-6 -1,-10 -4,-14 -2,-4 -6,-7 -11,-9 -5,-1 -12,-2 -21,-2l-33 0 0 49z"/>
  <path fill="black" fill-rule="nonzero" d="M1658 2058l54 -143 21 0 59 143 -22 0 -17 -44 -60 0 -15 44 -20 0zm41 -59l49 0 -15 -40c-5,-12 -8,-22 -11,-30 -2,10 -4,19 -8,28l-15 42z"/>
  <path fill="black" fill-rule="nonzero" d="M1768 1643l-12 0 0 -75c-3,2 -6,5 -11,8 -5,2 -9,4 -12,6l0 -12c6,-3 12,-6 17,-11 5,-4 8,-9 10,-13l8 0 0 97z"/>
  <path id="1" fill="black" fill-rule="nonzero" d="M1860 1632l0 11 -63 0c-1,-3 0,-6 1,-8 2,-5 4,-9 8,-13 3,-4 9,-9 15,-15 11,-8 18,-15 21,-20 4,-5 6,-10 6,-14 0,-5 -2,-9 -5,-12 -3,-3 -8,-5 -13,-5 -6,0 -10,2 -14,5 -3,4 -5,8 -5,14l-12 -1c1,-9 4,-16 9,-21 6,-4 13,-7 22,-7 9,0 17,3 22,8 5,5 8,11 8,19 0,4 -1,8 -2,11 -2,4 -5,8 -8,12 -4,4 -10,10 -18,17 -7,6 -12,10 -14,12 -2,2 -4,4 -5,7l47 0z"/>
  <path id="2" fill="black" fill-rule="nonzero" d="M1873 1595c0,-11 1,-20 3,-27 3,-7 6,-12 11,-16 4,-4 10,-6 17,-6 5,0 10,1 14,3 4,3 7,6 9,9 3,4 5,9 6,15 2,5 2,13 2,22 0,12 -1,21 -3,28 -2,7 -6,12 -10,16 -5,4 -11,5 -18,5 -9,0 -16,-3 -22,-9 -6,-9 -9,-22 -9,-40zm12 0c0,16 2,27 5,32 4,5 9,8 14,8 6,0 10,-3 14,-8 4,-5 5,-16 5,-32 0,-15 -1,-26 -5,-31 -4,-5 -8,-8 -14,-8 -5,0 -10,2 -13,7 -4,6 -6,17 -6,32z"/>
  <path id="3" fill="black" fill-rule="nonzero" d="M1950 1563c0,-5 2,-9 6,-13 3,-3 7,-5 12,-5 5,0 10,2 13,5 4,4 6,8 6,13 0,5 -2,10 -6,13 -3,4 -8,5 -13,5 -5,0 -9,-1 -12,-5 -4,-3 -6,-8 -6,-13zm7 0c0,3 1,6 4,8 2,2 4,3 7,3 3,0 6,-1 8,-3 2,-2 3,-5 3,-8 0,-3 -1,-5 -3,-8 -2,-2 -5,-3 -8,-3 -3,0 -5,1 -7,3 -3,3 -4,5 -4,8z"/>
  <path fill="black" fill-rule="nonzero" d="M469 2058l0 -143 29 0 34 101c3,9 5,16 6,21 2,-5 5,-13 8,-23l34 -99 26 0 0 143 -18 0 0 -120 -42 120 -17 0 -42 -122 0 122 -18 0z"/>
  <path fill="black" fill-rule="nonzero" d="M3915 2005l19 5c-4,16 -11,27 -21,36 -11,8 -23,12 -38,12 -16,0 -28,-3 -38,-10 -9,-6 -17,-15 -22,-27 -5,-12 -7,-25 -7,-38 0,-15 3,-28 8,-39 6,-11 14,-20 25,-26 10,-5 22,-8 34,-8 15,0 27,3 36,11 10,7 17,17 21,30l-19 5c-3,-11 -8,-18 -14,-23 -7,-5 -15,-7 -24,-7 -11,0 -20,3 -28,8 -7,5 -12,12 -15,21 -3,9 -5,18 -5,28 0,12 2,22 6,31 3,10 9,16 16,21 8,4 16,7 24,7 11,0 20,-3 27,-10 8,-6 12,-15 15,-27z"/>
  <path fill="none" stroke="black" stroke-width="17.7165" d="M1601 1722c28,-24 64,-37 101,-37 86,0 156,69 156,156 0,0 0,0 0,0"/>
 </g>
</svg>
