<?xml version="1.0" encoding="UTF-8"?>
<!DOCTYPE svg PUBLIC "-//W3C//DTD SVG 1.1//EN" "http://www.w3.org/Graphics/SVG/1.1/DTD/svg11.dtd">
<!-- Creator: CorelDRAW X8 -->
<svg xmlns="http://www.w3.org/2000/svg" xml:space="preserve" width="7475px" height="970px" version="1.1" shape-rendering="geometricPrecision" text-rendering="geometricPrecision" image-rendering="optimizeQuality" fill-rule="evenodd" clip-rule="evenodd"
viewBox="0 0 7475 970"
 xmlns:xlink="http://www.w3.org/1999/xlink">
 <g id="Capa_x0020_1">
  <metadata id="CorelCorpID_0Corel-Layer"/>
  <rect fill="white" width="7475" height="970"/>
  <g id="_2426776054848">
   <path fill="black" fill-rule="nonzero" d="M673 635l0 -216 24 0 0 21c6,-8 12,-14 19,-18 8,-4 16,-6 26,-6 14,0 25,3 35,10 11,7 18,17 23,29 6,12 8,26 8,41 0,16 -3,30 -8,43 -6,12 -14,22 -25,29 -11,7 -23,10 -35,10 -8,0 -16,-2 -23,-5 -7,-4 -13,-9 -17,-14l0 76 -27 0zm24 -137c0,20 4,35 12,44 8,10 18,15 30,15 11,0 21,-5 30,-15 8,-10 12,-26 12,-46 0,-20 -4,-35 -12,-45 -8,-10 -18,-14 -29,-14 -11,0 -21,5 -30,15 -8,11 -13,26 -13,46z"/>
   <path id="1" fill="black" fill-rule="nonzero" d="M890 638c-14,-19 -26,-40 -36,-65 -10,-24 -15,-50 -15,-76 0,-23 3,-46 11,-67 9,-24 22,-49 40,-74l19 0c-11,21 -19,35 -23,44 -6,13 -11,27 -14,42 -4,18 -6,37 -6,55 0,47 14,94 43,141l-19 0z"/>
   <path id="2" fill="black" fill-rule="nonzero" d="M922 575l57 -81 -53 -75 33 0 24 37c5,7 8,12 11,17 4,-6 8,-12 12,-17l26 -37 32 0 -53 75 56 81 -32 0 -32 -48 -7 -12 -42 60 -32 0z"/>
   <path id="3" fill="black" fill-rule="nonzero" d="M1097 575l0 -30 30 0 0 30c0,11 -2,20 -6,27 -4,6 -10,12 -19,15l-7 -11c6,-2 10,-6 12,-11 3,-4 5,-11 5,-20l-15 0z"/>
   <path id="4" fill="black" fill-rule="nonzero" d="M1255 635l-3 -25c6,2 11,3 16,3 5,0 10,-1 14,-3 3,-2 6,-5 8,-9 2,-2 5,-9 8,-19 1,-2 2,-4 3,-7l-59 -156 28 0 32 90c5,11 8,23 12,36 3,-12 6,-24 11,-35l33 -91 26 0 -59 159c-6,17 -11,28 -15,35 -4,8 -10,15 -16,19 -6,4 -13,6 -21,6 -6,0 -11,-1 -18,-3z"/>
   <path id="5" fill="black" fill-rule="nonzero" d="M1424 638l-19 0c29,-47 44,-94 44,-141 0,-18 -2,-36 -6,-54 -4,-15 -8,-29 -14,-43 -4,-8 -12,-23 -24,-44l19 0c18,25 32,50 41,74 7,21 11,44 11,67 0,26 -5,52 -15,76 -10,25 -22,46 -37,65z"/>
   <path id="6" fill="black" fill-rule="nonzero" d="M1729 449l-142 0 0 -25 142 0 0 25zm0 65l-142 0 0 -25 142 0 0 25z"/>
   <path id="7" fill="black" fill-rule="nonzero" d="M1830 575l57 -81 -52 -75 32 0 25 37c4,7 8,12 10,17 5,-6 9,-12 12,-17l26 -37 33 0 -53 75 56 81 -32 0 -32 -48 -8 -12 -41 60 -33 0z"/>
   <path id="8" fill="black" fill-rule="nonzero" d="M2164 635l-3 -25c6,2 11,3 15,3 6,0 11,-1 14,-3 4,-2 7,-5 9,-9 2,-2 4,-9 8,-19 0,-2 1,-4 2,-7l-59 -156 28 0 33 90c4,11 8,23 11,36 3,-12 7,-24 11,-35l33 -91 27 0 -59 159c-7,17 -12,28 -15,35 -5,8 -10,15 -16,19 -6,4 -14,6 -22,6 -5,0 -11,-1 -17,-3z"/>
   <path id="9" fill="black" fill-rule="nonzero" d="M2366 638c-15,-19 -27,-40 -37,-65 -10,-24 -15,-50 -15,-76 0,-23 3,-46 11,-67 9,-24 22,-49 41,-74l18 0c-11,21 -19,35 -23,44 -6,13 -11,27 -14,42 -4,18 -6,37 -6,55 0,47 14,94 43,141l-18 0z"/>
   <path id="10" fill="black" fill-rule="nonzero" d="M2401 575l0 -22 99 -113c-11,0 -21,0 -30,0l-63 0 0 -21 127 0 0 17 -84 99 -17 19c12,-1 23,-2 34,-2l72 0 0 23 -138 0z"/>
   <polygon id="11" fill="black" fill-rule="nonzero" points="2787,540 2787,481 2729,481 2729,457 2787,457 2787,398 2812,398 2812,457 2871,457 2871,481 2812,481 2812,540 "/>
   <path id="12" fill="black" fill-rule="nonzero" d="M3082 575l-26 0 0 -168c-7,6 -15,12 -25,18 -11,6 -20,11 -28,14l0 -26c15,-7 28,-15 39,-25 11,-10 19,-20 23,-29l17 0 0 216z"/>
   <path id="13" fill="black" fill-rule="nonzero" d="M3175 638l-19 0c29,-47 43,-94 43,-141 0,-18 -2,-36 -6,-54 -3,-15 -8,-29 -14,-43 -4,-8 -11,-23 -23,-44l19 0c18,25 31,50 40,74 8,21 11,44 11,67 0,26 -5,52 -15,76 -10,25 -22,46 -36,65z"/>
   <path id="14" fill="black" fill-rule="nonzero" d="M3307 638c-14,-19 -26,-40 -36,-65 -10,-24 -15,-50 -15,-76 0,-23 3,-46 11,-67 9,-24 22,-49 40,-74l19 0c-11,21 -19,35 -23,44 -6,13 -11,27 -14,42 -4,18 -6,37 -6,55 0,47 14,94 43,141l-19 0z"/>
   <path id="15" fill="black" fill-rule="nonzero" d="M3339 575l57 -81 -53 -75 33 0 24 37c5,7 8,12 11,17 4,-6 8,-12 12,-17l26 -37 32 0 -53 75 56 81 -32 0 -32 -48 -7 -12 -42 60 -32 0z"/>
   <polygon id="16" fill="black" fill-rule="nonzero" points="3646,540 3646,481 3587,481 3587,457 3646,457 3646,398 3671,398 3671,457 3729,457 3729,481 3671,481 3671,540 "/>
   <path id="17" fill="black" fill-rule="nonzero" d="M3842 518l26 -4c3,15 8,26 16,33 7,6 16,10 26,10 13,0 23,-5 32,-13 8,-9 13,-20 13,-32 0,-12 -4,-22 -12,-30 -8,-8 -18,-12 -31,-12 -5,0 -11,1 -18,3l3 -23c1,0 3,0 4,0 11,0 21,-3 30,-9 9,-6 14,-15 14,-27 0,-9 -3,-17 -10,-24 -6,-6 -15,-9 -25,-9 -11,0 -19,3 -26,9 -7,7 -11,17 -13,30l-27 -5c4,-18 11,-32 22,-41 12,-10 26,-15 43,-15 12,0 23,3 32,8 10,5 18,12 23,20 5,9 8,18 8,28 0,9 -3,17 -8,25 -5,8 -12,14 -22,18 13,3 23,9 30,18 7,10 10,21 10,35 0,19 -6,35 -20,48 -14,13 -31,19 -52,19 -19,0 -34,-5 -47,-16 -12,-12 -20,-26 -21,-44z"/>
   <path id="18" fill="black" fill-rule="nonzero" d="M4033 638l-19 0c29,-47 44,-94 44,-141 0,-18 -2,-36 -6,-54 -4,-15 -8,-29 -14,-43 -4,-8 -12,-23 -24,-44l19 0c18,25 32,50 41,74 7,21 11,44 11,67 0,26 -5,52 -15,76 -10,25 -22,46 -37,65z"/>
   <path id="19" fill="black" fill-rule="nonzero" d="M4166 638c-14,-19 -27,-40 -37,-65 -10,-24 -15,-50 -15,-76 0,-23 4,-46 11,-67 9,-24 23,-49 41,-74l19 0c-12,21 -20,35 -23,44 -6,13 -11,27 -15,42 -4,18 -6,37 -6,55 0,47 15,94 44,141l-19 0z"/>
   <path id="20" fill="black" fill-rule="nonzero" d="M4198 575l56 -81 -52 -75 32 0 25 37c4,7 8,12 11,17 4,-6 8,-12 11,-17l26 -37 33 0 -53 75 56 81 -32 0 -32 -48 -8 -12 -41 60 -32 0z"/>
   <polygon id="21" fill="black" fill-rule="nonzero" points="4438,510 4438,484 4520,484 4520,510 "/>
   <path id="22" fill="black" fill-rule="nonzero" d="M4631 635l-3 -25c6,2 11,3 15,3 6,0 11,-1 14,-3 4,-2 7,-5 9,-9 2,-2 4,-9 8,-19 0,-2 1,-4 2,-7l-59 -156 28 0 33 90c4,11 8,23 11,36 3,-12 7,-24 11,-35l33 -91 27 0 -59 159c-7,17 -12,28 -15,35 -5,8 -10,15 -16,19 -6,4 -14,6 -22,6 -5,0 -11,-1 -17,-3z"/>
   <path id="23" fill="black" fill-rule="nonzero" d="M4800 638l-19 0c29,-47 43,-94 43,-141 0,-18 -2,-36 -6,-54 -3,-15 -8,-29 -14,-43 -4,-8 -11,-23 -23,-44l19 0c18,25 31,50 40,74 8,21 11,44 11,67 0,26 -5,52 -15,76 -10,25 -22,46 -36,65z"/>
   <path id="24" fill="black" fill-rule="nonzero" d="M4932 638c-14,-19 -26,-40 -36,-65 -10,-24 -15,-50 -15,-76 0,-23 3,-46 11,-67 9,-24 22,-49 40,-74l19 0c-11,21 -19,35 -23,44 -6,13 -11,27 -14,42 -4,18 -6,37 -6,55 0,47 14,94 43,141l-19 0z"/>
   <path id="25" fill="black" fill-rule="nonzero" d="M4964 575l57 -81 -53 -75 33 0 24 37c5,7 8,12 11,17 4,-6 8,-12 12,-17l26 -37 32 0 -53 75 56 81 -32 0 -32 -48 -7 -12 -42 60 -32 0z"/>
   <polygon id="26" fill="black" fill-rule="nonzero" points="5271,540 5271,481 5212,481 5212,457 5271,457 5271,398 5296,398 5296,457 5354,457 5354,481 5296,481 5296,540 "/>
   <path id="27" fill="black" fill-rule="nonzero" d="M5460 575l0 -22 99 -113c-12,0 -22,0 -30,0l-63 0 0 -21 127 0 0 17 -85 99 -16 19c12,-1 23,-2 34,-2l72 0 0 23 -138 0z"/>
   <path id="28" fill="black" fill-rule="nonzero" d="M5808 638l-19 0c29,-47 44,-94 44,-141 0,-18 -2,-36 -6,-54 -4,-15 -8,-29 -14,-43 -4,-8 -12,-23 -24,-44l19 0c18,25 32,50 41,74 7,21 11,44 11,67 0,26 -5,52 -15,76 -10,25 -23,46 -37,65z"/>
   <path id="29" fill="black" fill-rule="nonzero" d="M5941 638c-15,-19 -27,-40 -37,-65 -10,-24 -15,-50 -15,-76 0,-23 4,-46 11,-67 9,-24 23,-49 41,-74l19 0c-12,21 -20,35 -24,44 -6,13 -10,27 -14,42 -4,18 -6,37 -6,55 0,47 15,94 44,141l-19 0z"/>
   <path id="30" fill="black" fill-rule="nonzero" d="M5972 575l57 -81 -52 -75 32 0 25 37c4,7 8,12 10,17 5,-6 9,-12 12,-17l26 -37 32 0 -53 75 57 81 -32 0 -32 -48 -8 -12 -41 60 -33 0z"/>
   <polygon id="31" fill="black" fill-rule="nonzero" points="6363,540 6363,481 6304,481 6304,457 6363,457 6363,398 6387,398 6387,457 6446,457 6446,481 6387,481 6387,540 "/>
   <path id="32" fill="black" fill-rule="nonzero" d="M6657 575l-26 0 0 -168c-6,6 -15,12 -25,18 -10,6 -20,11 -28,14l0 -26c15,-7 28,-15 39,-25 11,-10 19,-20 23,-29l17 0 0 216z"/>
   <path id="33" fill="black" fill-rule="nonzero" d="M6750 638l-19 0c29,-47 44,-94 44,-141 0,-18 -2,-36 -7,-54 -3,-15 -7,-29 -13,-43 -4,-8 -12,-23 -24,-44l19 0c18,25 32,50 41,74 7,21 11,44 11,67 0,26 -5,52 -15,76 -10,25 -23,46 -37,65z"/>
   <path fill="black" fill-rule="nonzero" d="M2071 421l0 19 -72 0c1,-7 3,-14 7,-20 4,-7 12,-15 23,-26 10,-9 15,-15 17,-18 3,-4 5,-8 5,-12 0,-5 -2,-9 -4,-11 -3,-2 -6,-4 -10,-4 -5,0 -8,2 -10,4 -3,3 -4,7 -5,13l-20 -2c1,-11 5,-19 11,-24 7,-5 15,-8 24,-8 11,0 19,3 25,9 6,6 9,13 9,21 0,5 -1,10 -2,14 -2,4 -5,9 -9,14 -2,3 -7,8 -13,14 -7,5 -11,9 -12,11 -2,2 -4,4 -5,6l41 0z"/>
   <path fill="black" fill-rule="nonzero" d="M2656 421l0 19 -73 0c1,-7 3,-14 7,-20 4,-7 12,-15 24,-26 9,-9 14,-15 17,-18 2,-4 4,-8 4,-12 0,-5 -1,-9 -4,-11 -2,-2 -6,-4 -10,-4 -4,0 -8,2 -10,4 -3,3 -4,7 -5,13l-20 -2c1,-11 5,-19 11,-24 7,-5 15,-8 24,-8 11,0 19,3 25,9 6,6 10,13 10,21 0,5 -1,10 -3,14 -2,4 -5,9 -8,14 -3,3 -7,8 -14,14 -6,5 -10,9 -12,11 -2,2 -3,4 -4,6l41 0z"/>
   <path fill="black" fill-rule="nonzero" d="M5733 421l0 19 -72 0c1,-7 3,-14 7,-20 4,-7 12,-15 23,-26 10,-9 15,-15 17,-18 3,-4 5,-8 5,-12 0,-5 -2,-9 -4,-11 -3,-2 -6,-4 -10,-4 -5,0 -8,2 -11,4 -2,3 -4,7 -4,13l-21 -2c2,-11 6,-19 12,-24 6,-5 14,-8 24,-8 11,0 19,3 25,9 6,6 9,13 9,21 0,5 -1,10 -2,14 -2,4 -5,9 -9,14 -2,3 -7,8 -13,14 -7,5 -11,9 -12,11 -2,2 -4,4 -5,6l41 0z"/>
   <path fill="black" fill-rule="nonzero" d="M6221 421l0 19 -72 0c1,-7 3,-14 7,-20 4,-7 12,-15 23,-26 10,-9 15,-15 18,-18 2,-4 4,-8 4,-12 0,-5 -1,-9 -4,-11 -2,-2 -6,-4 -10,-4 -4,0 -8,2 -10,4 -3,3 -4,7 -5,13l-20 -2c1,-11 5,-19 11,-24 7,-5 15,-8 24,-8 11,0 19,3 25,9 6,6 9,13 9,21 0,5 0,10 -2,14 -2,4 -5,9 -8,14 -3,3 -7,8 -14,14 -6,5 -11,9 -12,11 -2,2 -3,4 -4,6l40 0z"/>
  </g>
 </g>
</svg>
