<?xml version="1.0" encoding="UTF-8"?>
<!DOCTYPE svg PUBLIC "-//W3C//DTD SVG 1.1//EN" "http://www.w3.org/Graphics/SVG/1.1/DTD/svg11.dtd">
<!-- Creator: CorelDRAW X8 -->
<svg xmlns="http://www.w3.org/2000/svg" xml:space="preserve" width="4961px" height="1406px" version="1.1" shape-rendering="geometricPrecision" text-rendering="geometricPrecision" image-rendering="optimizeQuality" fill-rule="evenodd" clip-rule="evenodd"
viewBox="0 0 4961 1406"
 xmlns:xlink="http://www.w3.org/1999/xlink">
 <g id="Capa_x0020_1">
  <metadata id="CorelCorpID_0Corel-Layer"/>
  <rect fill="white" width="4961" height="1406"/>
  <g id="_2426776575744">
   <path fill="black" fill-rule="nonzero" d="M482 780l82 -215 31 0 88 215 -32 0 -25 -65 -91 0 -23 65 -30 0zm62 -88l73 0 -23 -60c-6,-18 -11,-33 -15,-44 -3,14 -7,27 -12,41l-23 63z"/>
   <path id="1" fill="black" fill-rule="nonzero" d="M908 654l-142 0 0 -25 142 0 0 25zm0 65l-142 0 0 -25 142 0 0 25z"/>
   <path fill="black" fill-rule="nonzero" d="M1369 614l57 -81 -52 -75 32 0 25 37c4,7 8,12 10,17 5,-7 9,-12 12,-17l26 -37 32 0 -53 75 57 81 -32 0 -32 -48 -8 -12 -41 60 -33 0z"/>
   <polygon id="1" fill="black" fill-rule="nonzero" points="1760,579 1760,520 1701,520 1701,496 1760,496 1760,437 1784,437 1784,496 1843,496 1843,520 1784,520 1784,579 "/>
   <path id="2" fill="black" fill-rule="nonzero" d="M2054 614l-26 0 0 -168c-6,6 -15,12 -25,18 -10,6 -20,10 -28,13l0 -25c15,-7 28,-15 39,-25 11,-10 19,-20 23,-29l17 0 0 216z"/>
   <polygon fill="black" fill-rule="nonzero" points="1568,457 1596,417 1569,379 1594,379 1608,400 1622,379 1646,379 1620,416 1649,457 1624,457 1608,433 1592,457 "/>
   <polygon fill="black" fill-rule="nonzero" points="2485,695 2485,668 2567,668 2567,695 "/>
   <path id="1" fill="black" fill-rule="nonzero" d="M2688 759l-27 0 0 -168c-6,6 -15,12 -25,18 -10,7 -19,11 -28,14l0 -25c15,-7 28,-16 39,-26 11,-9 19,-19 24,-28l17 0 0 215z"/>
   <path id="2" fill="black" fill-rule="nonzero" d="M2770 759l0 -30 30 0 0 30c0,11 -2,20 -6,27 -4,7 -11,12 -19,16l-7 -11c5,-3 9,-6 12,-11 3,-5 4,-12 4,-21l-14 0z"/>
   <path id="3" fill="black" fill-rule="nonzero" d="M2911 759l57 -80 -52 -75 32 0 25 36c4,7 8,13 10,17 5,-6 9,-12 12,-17l26 -36 32 0 -53 75 57 80 -32 0 -32 -48 -8 -11 -41 59 -33 0z"/>
   <path id="4" fill="black" fill-rule="nonzero" d="M3301 633l-141 0 0 -25 141 0 0 25zm0 65l-141 0 0 -24 141 0 0 24z"/>
   <polygon id="5" fill="black" fill-rule="nonzero" points="3411,695 3411,668 3492,668 3492,695 "/>
   <path id="6" fill="black" fill-rule="nonzero" d="M3613 759l-26 0 0 -168c-7,6 -15,12 -25,18 -11,7 -20,11 -28,14l0 -25c15,-7 27,-16 38,-26 12,-9 19,-19 24,-28l17 0 0 215z"/>
   <path id="7" fill="black" fill-rule="nonzero" d="M3695 759l0 -30 30 0 0 30c0,11 -2,20 -6,27 -4,7 -10,12 -19,16l-7 -11c6,-3 10,-6 12,-11 3,-5 5,-12 5,-21l-15 0z"/>
   <path id="8" fill="black" fill-rule="nonzero" d="M3837 759l57 -80 -53 -75 32 0 25 36c5,7 8,13 11,17 4,-6 8,-12 12,-17l26 -36 32 0 -53 75 56 80 -32 0 -32 -48 -7 -11 -42 59 -32 0z"/>
   <path id="9" fill="black" fill-rule="nonzero" d="M4227 633l-142 0 0 -25 142 0 0 25zm0 65l-142 0 0 -24 142 0 0 24z"/>
   <path id="10" fill="black" fill-rule="nonzero" d="M4339 653c0,-25 3,-45 8,-61 5,-16 13,-27 24,-36 10,-8 23,-12 38,-12 12,0 22,2 31,7 8,4 16,11 21,20 6,8 10,19 13,32 4,12 5,29 5,50 0,26 -2,46 -8,61 -5,16 -12,28 -23,36 -10,9 -23,13 -39,13 -20,0 -37,-7 -48,-22 -15,-18 -22,-47 -22,-88zm27 0c0,36 5,59 13,71 8,12 18,17 30,17 12,0 23,-5 31,-17 8,-12 12,-35 12,-71 0,-35 -4,-58 -12,-70 -8,-12 -19,-17 -31,-17 -12,0 -22,5 -29,15 -9,13 -14,37 -14,72z"/>
   <polygon fill="black" fill-rule="nonzero" points="1408,862 1436,822 1409,784 1434,784 1448,806 1462,784 1486,784 1460,821 1489,862 1464,862 1448,838 1432,862 "/>
   <polygon id="1" fill="black" fill-rule="nonzero" points="1566,847 1566,819 1538,819 1538,799 1566,799 1566,772 1585,772 1585,799 1613,799 1613,819 1585,819 1585,847 "/>
   <path id="2" fill="black" fill-rule="nonzero" d="M1720 862l-20 0 0 -78c-8,7 -17,12 -27,16l0 -19c5,-2 11,-5 17,-10 7,-5 11,-11 13,-17l17 0 0 108z"/>
   <path fill="black" fill-rule="nonzero" d="M1217 1027l57 -81 -53 -75 33 0 24 37c5,7 8,13 11,17 4,-6 8,-12 12,-17l26 -37 32 0 -53 75 56 81 -32 0 -32 -48 -7 -11 -42 59 -32 0z"/>
   <polygon id="1" fill="black" fill-rule="nonzero" points="1857,992 1857,933 1799,933 1799,909 1857,909 1857,850 1882,850 1882,909 1941,909 1941,933 1882,933 1882,992 "/>
   <path id="2" fill="black" fill-rule="nonzero" d="M2042 1027l57 -81 -53 -75 33 0 25 37c4,7 8,13 10,17 5,-6 9,-12 12,-17l26 -37 32 0 -53 75 57 81 -32 0 -33 -48 -7 -11 -41 59 -33 0z"/>
   <polygon fill="black" fill-rule="nonzero" points="3313,597 3174,736 3157,719 3295,580 "/>
   <line fill="none" stroke="black" stroke-width="23.6221" x1="1048" y1="673" x2="2343" y2= "673" />
   <polygon fill="black" fill-rule="nonzero" points="4237,597 4099,736 4081,719 4220,580 "/>
  </g>
 </g>
</svg>
