<?xml version="1.0" encoding="UTF-8"?>
<!DOCTYPE svg PUBLIC "-//W3C//DTD SVG 1.1//EN" "http://www.w3.org/Graphics/SVG/1.1/DTD/svg11.dtd">
<!-- Creator: CorelDRAW X8 -->
<svg xmlns="http://www.w3.org/2000/svg" xml:space="preserve" width="7080px" height="1603px" version="1.1" shape-rendering="geometricPrecision" text-rendering="geometricPrecision" image-rendering="optimizeQuality" fill-rule="evenodd" clip-rule="evenodd"
viewBox="0 0 7080 1603"
 xmlns:xlink="http://www.w3.org/1999/xlink">
 <g id="Capa_x0020_1">
  <metadata id="CorelCorpID_0Corel-Layer"/>
  <rect fill="white" width="7080" height="1603"/>
  <g id="_2426766524624">
   <path fill="black" fill-rule="nonzero" d="M1421 835l0 17 -14 0 0 31c0,7 0,10 0,11 1,1 1,2 2,3 1,1 2,1 4,1 2,0 4,-1 8,-2l2 16c-5,2 -10,3 -16,3 -4,0 -7,0 -10,-2 -3,-1 -6,-3 -7,-5 -1,-2 -2,-4 -3,-8 0,-2 -1,-7 -1,-14l0 -34 -9 0 0 -17 9 0 0 -15 21 -12 0 27 14 0z"/>
   <path fill="black" fill-rule="nonzero" d="M2100 602l0 -20 20 0 0 20 -20 0zm0 88l0 -78 20 0 0 78 -20 0z"/>
   <path id="1" fill="black" fill-rule="nonzero" d="M2141 602l0 -20 20 0 0 20 -20 0zm20 10l0 75c0,10 0,17 -2,21 -1,4 -3,8 -7,10 -4,2 -9,3 -14,3 -2,0 -4,0 -7,0 -2,-1 -5,-1 -8,-2l4 -17c1,0 2,0 3,0 1,0 1,0 2,0 2,0 4,0 5,-1 2,-1 3,-2 3,-3 1,-2 1,-5 1,-12l0 -74 20 0z"/>
   <path fill="black" fill-rule="nonzero" d="M3278 602l0 -20 21 0 0 20 -21 0zm0 88l0 -78 21 0 0 78 -21 0z"/>
   <path id="1" fill="black" fill-rule="nonzero" d="M3319 602l0 -20 21 0 0 20 -21 0zm21 10l0 75c0,10 -1,17 -2,21 -1,4 -4,8 -7,10 -4,2 -9,3 -15,3 -2,0 -4,0 -6,0 -3,-1 -5,-1 -8,-2l4 -17c1,0 2,0 2,0 1,0 2,0 3,0 2,0 4,0 5,-1 1,-1 2,-2 3,-3 0,-2 0,-5 0,-12l0 -74 21 0z"/>
   <path fill="black" fill-rule="nonzero" d="M2404 705l-21 0 0 -78c-7,7 -16,12 -26,16l0 -19c5,-2 11,-5 17,-10 6,-5 11,-11 13,-17l17 0 0 108z"/>
   <path id="1" fill="black" fill-rule="nonzero" d="M2435 677l20 -2c1,5 3,9 6,11 2,3 6,4 10,4 4,0 8,-1 10,-5 3,-3 5,-9 5,-16 0,-6 -2,-11 -4,-15 -3,-3 -7,-5 -12,-5 -6,0 -11,3 -16,8l-17 -2 11 -56 54 0 0 19 -39 0 -3 18c5,-2 10,-3 14,-3 9,0 17,3 24,10 6,7 9,15 9,26 0,9 -2,17 -8,24 -7,9 -16,14 -29,14 -10,0 -18,-3 -24,-8 -6,-5 -10,-13 -11,-22z"/>
   <polygon id="2" fill="black" fill-rule="nonzero" points="2554,705 2582,665 2555,627 2580,627 2594,648 2609,627 2633,627 2607,664 2635,705 2610,705 2594,681 2578,705 "/>
   <path id="3" fill="black" fill-rule="nonzero" d="M2737 705l-20 0 0 -78c-8,7 -17,12 -27,16l0 -19c6,-2 11,-5 18,-10 6,-5 10,-11 13,-17l16 0 0 108z"/>
   <path id="4" fill="black" fill-rule="nonzero" d="M2768 677l21 -2c1,5 2,9 5,11 3,3 6,4 10,4 4,0 8,-1 11,-5 3,-3 5,-9 5,-16 0,-6 -2,-11 -5,-15 -3,-3 -7,-5 -11,-5 -6,0 -12,3 -16,8l-17 -2 10 -56 55 0 0 19 -39 0 -3 18c4,-2 9,-3 14,-3 9,0 17,3 23,10 7,7 10,15 10,26 0,9 -3,17 -8,24 -7,9 -17,14 -29,14 -10,0 -18,-3 -24,-8 -7,-5 -10,-13 -12,-22z"/>
   <path fill="black" fill-rule="nonzero" d="M680 1106l82 -214 32 0 87 214 -32 0 -25 -65 -91 0 -23 65 -30 0zm62 -88l73 0 -22 -59c-7,-18 -12,-33 -16,-45 -3,14 -7,28 -12,41l-23 63z"/>
   <polygon id="1" fill="black" fill-rule="nonzero" points="1023,1072 1023,1013 964,1013 964,988 1023,988 1023,930 1048,930 1048,988 1106,988 1106,1013 1048,1013 1048,1072 "/>
   <path id="2" fill="black" fill-rule="nonzero" d="M1189 1106l82 -214 32 0 87 214 -32 0 -25 -65 -91 0 -23 65 -30 0zm62 -88l73 0 -23 -59c-6,-18 -11,-33 -15,-45 -3,14 -7,28 -12,41l-23 63z"/>
   <path id="3" fill="black" fill-rule="nonzero" d="M1615 980l-142 0 0 -24 142 0 0 24zm0 65l-142 0 0 -24 142 0 0 24z"/>
   <path id="4" fill="black" fill-rule="nonzero" d="M1727 1000c0,-25 3,-45 8,-61 5,-15 13,-27 23,-36 11,-8 24,-12 39,-12 12,0 22,2 31,7 8,4 16,11 21,20 6,9 10,19 13,32 4,12 5,29 5,50 0,26 -2,46 -8,62 -5,15 -12,27 -23,35 -10,9 -23,13 -39,13 -20,0 -37,-7 -48,-22 -15,-18 -22,-47 -22,-88zm27 1c0,35 4,58 13,70 8,12 18,17 30,17 12,0 23,-5 31,-17 8,-12 12,-35 12,-70 0,-36 -4,-59 -12,-71 -8,-12 -19,-17 -31,-17 -12,0 -22,5 -29,15 -9,13 -14,37 -14,73z"/>
   <path id="5" fill="black" fill-rule="nonzero" d="M1908 1106l0 -30 30 0 0 30c0,12 -2,20 -6,27 -3,7 -10,12 -18,16l-7 -11c5,-3 9,-6 12,-11 2,-5 4,-12 4,-21l-15 0z"/>
   <path id="6" fill="black" fill-rule="nonzero" d="M2170 1049l26 4c-3,18 -10,32 -22,42 -12,10 -26,15 -43,15 -21,0 -38,-7 -51,-21 -13,-14 -20,-34 -20,-60 0,-17 3,-31 9,-44 5,-12 14,-22 25,-28 11,-6 24,-10 37,-10 17,0 31,5 42,13 10,9 17,21 20,37l-25 4c-3,-11 -7,-19 -13,-24 -6,-5 -14,-8 -23,-8 -13,0 -24,5 -32,14 -9,10 -13,25 -13,45 0,21 4,37 12,46 8,9 19,14 32,14 10,0 19,-3 26,-9 7,-7 11,-16 13,-30z"/>
   <path id="7" fill="black" fill-rule="nonzero" d="M2320 1087c-10,8 -19,14 -28,18 -10,3 -19,5 -30,5 -17,0 -30,-4 -39,-13 -9,-8 -14,-19 -14,-32 0,-7 2,-14 5,-20 4,-7 8,-12 14,-16 6,-3 12,-6 19,-8 5,-2 13,-3 23,-4 22,-3 38,-6 48,-9 0,-4 0,-6 0,-7 0,-11 -3,-18 -8,-23 -7,-6 -17,-9 -30,-9 -12,0 -22,3 -27,7 -6,4 -11,12 -14,23l-25 -4c2,-11 6,-20 11,-26 6,-7 13,-12 24,-16 10,-4 22,-6 35,-6 13,0 24,2 33,5 8,3 14,7 18,12 4,5 7,11 8,18 1,4 1,13 1,24l0 35c0,25 1,40 2,47 1,6 3,12 7,18l-28 0c-3,-5 -4,-12 -5,-19zm-2 -59c-10,4 -24,8 -43,10 -11,2 -19,4 -24,6 -4,2 -8,4 -10,8 -2,4 -4,8 -4,13 0,7 3,12 8,17 6,5 13,7 24,7 10,0 19,-2 27,-7 8,-4 14,-10 17,-18 3,-6 5,-14 5,-26l0 -10z"/>
   <polygon id="8" fill="black" fill-rule="nonzero" points="2384,1106 2384,892 2411,892 2411,1106 "/>
   <path id="9" fill="black" fill-rule="nonzero" d="M2553 1049l26 4c-3,18 -10,32 -22,42 -11,10 -26,15 -43,15 -21,0 -38,-7 -51,-21 -13,-14 -19,-34 -19,-60 0,-17 3,-31 8,-44 6,-12 14,-22 26,-28 11,-6 23,-10 37,-10 17,0 30,5 41,13 11,9 18,21 21,37l-26 4c-2,-11 -7,-19 -13,-24 -6,-5 -13,-8 -22,-8 -14,0 -24,5 -33,14 -8,10 -12,25 -12,45 0,21 4,37 12,46 8,9 18,14 31,14 11,0 19,-3 26,-9 7,-7 11,-16 13,-30z"/>
   <path id="10" fill="black" fill-rule="nonzero" d="M2703 1106l0 -23c-12,18 -28,27 -49,27 -9,0 -18,-2 -26,-5 -8,-4 -13,-8 -17,-14 -4,-5 -7,-12 -8,-19 -1,-5 -2,-14 -2,-25l0 -96 26 0 0 86c0,14 1,23 2,28 2,7 5,12 11,16 5,4 12,6 19,6 8,0 16,-2 23,-6 7,-4 11,-10 14,-17 3,-7 5,-17 5,-30l0 -83 26 0 0 155 -24 0z"/>
   <polygon id="11" fill="black" fill-rule="nonzero" points="2768,1106 2768,892 2794,892 2794,1106 "/>
   <path id="12" fill="black" fill-rule="nonzero" d="M2941 1056l28 4c-5,16 -13,28 -24,37 -12,8 -27,13 -45,13 -22,0 -40,-7 -54,-21 -13,-14 -20,-34 -20,-59 0,-26 7,-46 21,-61 13,-14 30,-22 52,-22 21,0 38,8 51,22 13,14 20,34 20,59 0,2 -1,4 -1,7l-116 0c1,17 6,31 15,40 9,9 19,13 32,13 10,0 18,-2 25,-7 7,-6 12,-14 16,-25zm-86 -42l87 0c-2,-13 -5,-23 -10,-30 -9,-10 -20,-15 -33,-15 -12,0 -22,4 -30,12 -9,8 -13,19 -14,33z"/>
   <path id="13" fill="black" fill-rule="nonzero" d="M3186 1106l0 -19c-10,15 -25,23 -44,23 -12,0 -23,-4 -34,-10 -10,-7 -18,-17 -24,-29 -6,-12 -9,-26 -9,-42 0,-16 3,-30 8,-42 5,-13 13,-23 23,-29 11,-7 22,-11 35,-11 10,0 18,2 25,6 7,4 13,10 18,16l0 -77 26 0 0 214 -24 0zm-84 -77c0,20 5,35 13,44 8,10 18,15 30,15 11,0 21,-5 29,-14 8,-9 12,-24 12,-43 0,-21 -4,-37 -12,-47 -8,-10 -18,-15 -30,-15 -12,0 -22,5 -30,15 -8,9 -12,24 -12,45z"/>
   <path id="14" fill="black" fill-rule="nonzero" d="M3358 1056l28 4c-5,16 -13,28 -24,37 -12,8 -27,13 -45,13 -22,0 -40,-7 -54,-21 -13,-14 -20,-34 -20,-59 0,-26 7,-46 21,-61 13,-14 31,-22 52,-22 21,0 38,8 51,22 13,14 20,34 20,59 0,2 0,4 -1,7l-116 0c1,17 6,31 15,40 9,9 19,13 32,13 10,0 18,-2 25,-7 7,-6 12,-14 16,-25zm-86 -42l87 0c-1,-13 -5,-23 -10,-30 -9,-10 -20,-15 -33,-15 -12,0 -22,4 -30,12 -9,8 -13,19 -14,33z"/>
   <path id="15" fill="black" fill-rule="nonzero" d="M3476 1083l4 23c-7,2 -14,3 -20,3 -9,0 -17,-2 -22,-5 -5,-3 -9,-7 -11,-12 -2,-5 -3,-15 -3,-31l0 -90 -20 0 0 -20 20 0 0 -39 26 -16 0 55 26 0 0 20 -26 0 0 91c0,8 0,13 1,15 1,2 3,4 5,5 2,1 5,2 9,2 3,0 7,0 11,-1z"/>
   <path id="16" fill="black" fill-rule="nonzero" d="M3553 1169c-15,-18 -27,-39 -37,-64 -10,-25 -15,-50 -15,-76 0,-24 4,-46 11,-67 9,-25 22,-49 41,-74l19 0c-12,20 -20,35 -24,44 -6,13 -10,27 -14,42 -4,18 -6,36 -6,55 0,47 14,94 44,140l-19 0z"/>
   <path id="17" fill="black" fill-rule="nonzero" d="M3582 1106l82 -214 32 0 87 214 -32 0 -25 -65 -91 0 -23 65 -30 0zm62 -88l73 0 -22 -59c-7,-18 -12,-33 -16,-45 -3,14 -7,28 -12,41l-23 63z"/>
   <path id="18" fill="black" fill-rule="nonzero" d="M3820 1169l-19 0c29,-46 44,-93 44,-140 0,-19 -2,-37 -7,-55 -3,-14 -8,-29 -14,-42 -3,-9 -11,-23 -23,-44l19 0c18,25 32,49 40,74 8,21 12,43 12,67 0,26 -5,51 -15,76 -11,25 -23,46 -37,64z"/>
   <polygon id="19" fill="black" fill-rule="nonzero" points="4041,1072 4041,1013 3983,1013 3983,988 4041,988 4041,930 4066,930 4066,988 4125,988 4125,1013 4066,1013 4066,1072 "/>
   <path id="20" fill="black" fill-rule="nonzero" d="M4301 1083l4 23c-7,2 -14,3 -20,3 -9,0 -17,-2 -22,-5 -5,-3 -9,-7 -11,-12 -2,-5 -3,-15 -3,-31l0 -90 -20 0 0 -20 20 0 0 -39 26 -16 0 55 26 0 0 20 -26 0 0 91c0,8 1,13 1,15 1,2 3,4 5,5 2,1 5,2 9,2 3,0 7,0 11,-1z"/>
   <path id="21" fill="black" fill-rule="nonzero" d="M4327 1106l0 -155 24 0 0 24c6,-11 12,-19 17,-22 5,-4 11,-6 17,-6 9,0 18,3 27,9l-10 24c-6,-3 -12,-5 -19,-5 -6,0 -11,2 -15,5 -5,3 -8,8 -10,14 -3,10 -4,20 -4,31l0 81 -27 0z"/>
   <path id="22" fill="black" fill-rule="nonzero" d="M4529 1087c-10,8 -19,14 -28,18 -9,3 -19,5 -29,5 -17,0 -31,-4 -40,-13 -9,-8 -14,-19 -14,-32 0,-7 2,-14 6,-20 3,-7 8,-12 13,-16 6,-3 12,-6 19,-8 5,-2 13,-3 24,-4 21,-3 37,-6 47,-9 0,-4 0,-6 0,-7 0,-11 -2,-18 -7,-23 -7,-6 -17,-9 -31,-9 -12,0 -21,3 -27,7 -6,4 -10,12 -13,23l-26 -4c2,-11 6,-20 12,-26 5,-7 13,-12 23,-16 10,-4 22,-6 35,-6 14,0 24,2 33,5 8,3 14,7 18,12 4,5 7,11 8,18 1,4 2,13 2,24l0 35c0,25 0,40 1,47 1,6 4,12 7,18l-28 0c-2,-5 -4,-12 -5,-19zm-2 -59c-10,4 -24,8 -43,10 -11,2 -19,4 -23,6 -5,2 -8,4 -11,8 -2,4 -3,8 -3,13 0,7 2,12 8,17 5,5 13,7 23,7 10,0 19,-2 27,-7 8,-4 14,-10 18,-18 2,-6 4,-14 4,-26l0 -10z"/>
   <path id="23" fill="black" fill-rule="nonzero" d="M4580 1106l0 -21 99 -114c-11,1 -21,1 -30,1l-63 0 0 -21 127 0 0 17 -84 99 -16 18c12,-1 23,-1 33,-1l72 0 0 22 -138 0z"/>
   <path id="24" fill="black" fill-rule="nonzero" d="M4795 1169c-15,-18 -27,-39 -37,-64 -10,-25 -15,-50 -15,-76 0,-24 4,-46 11,-67 9,-25 22,-49 41,-74l19 0c-12,20 -20,35 -24,44 -6,13 -11,27 -14,42 -4,18 -6,36 -6,55 0,47 14,94 44,140l-19 0z"/>
   <path id="25" fill="black" fill-rule="nonzero" d="M4824 1106l82 -214 32 0 87 214 -32 0 -25 -65 -91 0 -23 65 -30 0zm62 -88l73 0 -22 -59c-7,-18 -12,-33 -16,-45 -3,14 -7,28 -12,41l-23 63z"/>
   <path id="26" fill="black" fill-rule="nonzero" d="M5062 1169l-19 0c29,-46 44,-93 44,-140 0,-19 -3,-37 -7,-55 -3,-14 -8,-29 -14,-42 -3,-9 -11,-23 -23,-44l19 0c18,25 32,49 40,74 8,21 12,43 12,67 0,26 -5,51 -16,76 -10,25 -22,46 -36,64z"/>
   <polygon id="27" fill="black" fill-rule="nonzero" points="5217,1042 5217,1016 5299,1016 5299,1042 "/>
   <path id="28" fill="black" fill-rule="nonzero" d="M5503 1106l-27 0 0 -168c-6,6 -15,13 -25,19 -10,6 -19,10 -28,13l0 -25c15,-7 28,-16 39,-26 11,-9 19,-19 24,-28l17 0 0 215z"/>
   <path fill="black" fill-rule="nonzero" d="M685 583l26 -2c2,10 5,19 9,26 5,7 12,13 22,17 10,4 21,6 33,6 11,0 20,-1 29,-5 8,-3 14,-7 18,-13 4,-6 6,-12 6,-18 0,-7 -2,-13 -6,-18 -4,-5 -10,-9 -19,-13 -6,-2 -19,-5 -38,-10 -20,-5 -34,-9 -42,-13 -10,-6 -18,-12 -23,-20 -5,-8 -7,-17 -7,-27 0,-11 3,-21 9,-31 6,-9 15,-16 27,-21 12,-5 25,-7 39,-7 16,0 30,2 43,7 12,5 21,13 28,23 6,10 10,21 10,34l-27 2c-2,-14 -7,-24 -15,-31 -8,-7 -21,-10 -37,-10 -18,0 -30,3 -38,9 -8,6 -12,14 -12,23 0,8 3,14 8,19 6,5 20,10 43,15 23,6 39,10 48,14 12,6 22,13 28,22 5,9 8,19 8,30 0,12 -3,22 -9,33 -7,10 -16,18 -29,23 -12,6 -26,9 -41,9 -19,0 -36,-3 -49,-9 -13,-6 -23,-14 -30,-26 -8,-11 -12,-24 -12,-38z"/>
   <path id="1" fill="black" fill-rule="nonzero" d="M997 602l27 3c-4,16 -12,28 -23,37 -12,9 -27,13 -45,13 -23,0 -41,-7 -54,-21 -13,-14 -20,-33 -20,-59 0,-26 7,-46 20,-60 14,-15 31,-22 53,-22 20,0 37,7 50,21 14,14 20,34 20,60 0,1 0,4 0,7l-116 0c1,17 6,30 15,39 8,9 19,14 32,14 10,0 18,-3 25,-8 7,-5 12,-13 16,-24zm-86 -43l86 0c-1,-13 -4,-23 -10,-29 -8,-10 -19,-15 -32,-15 -12,0 -22,4 -31,12 -8,8 -12,19 -13,32z"/>
   <path id="2" fill="black" fill-rule="nonzero" d="M1159 632c-9,9 -19,15 -28,18 -9,4 -19,5 -29,5 -17,0 -30,-4 -40,-12 -9,-9 -13,-19 -13,-32 0,-8 1,-15 5,-21 3,-6 8,-11 14,-15 5,-4 11,-7 19,-9 5,-1 13,-2 23,-4 21,-2 37,-5 47,-9 0,-3 0,-6 0,-7 0,-10 -2,-18 -7,-22 -7,-6 -17,-9 -30,-9 -13,0 -22,2 -28,6 -6,5 -10,12 -13,24l-26 -4c3,-11 6,-20 12,-27 5,-7 13,-12 23,-16 10,-3 22,-5 36,-5 13,0 24,1 32,5 8,3 15,7 18,11 4,5 7,11 9,18 1,5 1,13 1,25l0 35c0,24 1,40 2,46 1,7 3,13 6,19l-28 0c-2,-6 -4,-12 -5,-20zm-2 -58c-9,4 -24,7 -43,10 -11,1 -19,3 -23,5 -5,2 -8,5 -10,9 -3,3 -4,7 -4,12 0,7 3,13 8,18 5,4 13,7 23,7 10,0 19,-3 27,-7 8,-5 14,-11 18,-18 3,-6 4,-15 4,-26l0 -10z"/>
   <path id="3" fill="black" fill-rule="nonzero" d="M1271 652l82 -215 32 0 87 215 -32 0 -25 -65 -90 0 -24 65 -30 0zm62 -88l73 0 -22 -60c-7,-18 -12,-33 -16,-45 -3,14 -7,28 -12,42l-23 63z"/>
   <path id="4" fill="black" fill-rule="nonzero" d="M1697 526l-142 0 0 -25 142 0 0 25zm0 65l-142 0 0 -25 142 0 0 25z"/>
   <path id="5" fill="black" fill-rule="nonzero" d="M1867 715c-14,-18 -27,-40 -37,-64 -10,-25 -15,-51 -15,-77 0,-23 4,-45 12,-67 8,-24 22,-49 40,-73l19 0c-12,20 -20,34 -23,43 -6,13 -11,28 -14,42 -5,18 -7,37 -7,55 0,47 15,94 44,141l-19 0z"/>
   <path id="6" fill="black" fill-rule="nonzero" d="M2018 632c-9,9 -19,15 -28,18 -9,4 -19,5 -29,5 -17,0 -30,-4 -40,-12 -9,-9 -13,-19 -13,-32 0,-8 1,-15 5,-21 3,-6 8,-11 14,-15 5,-4 11,-7 19,-9 5,-1 13,-2 23,-4 21,-2 37,-5 47,-9 0,-3 0,-6 0,-7 0,-10 -2,-18 -7,-22 -7,-6 -17,-9 -30,-9 -13,0 -22,2 -28,6 -6,5 -10,12 -13,24l-26 -4c3,-11 6,-20 12,-27 5,-7 13,-12 23,-16 10,-3 22,-5 36,-5 13,0 24,1 32,5 8,3 15,7 18,11 4,5 7,11 9,18 1,5 1,13 1,25l0 35c0,24 1,40 2,46 1,7 3,13 6,19l-28 0c-2,-6 -4,-12 -5,-20zm-2 -58c-9,4 -24,7 -43,10 -11,1 -19,3 -23,5 -5,2 -8,5 -10,9 -3,3 -4,7 -4,12 0,7 3,13 8,18 5,4 13,7 23,7 10,0 19,-3 27,-7 8,-5 14,-11 18,-18 3,-6 4,-15 4,-26l0 -10z"/>
   <path id="7" fill="black" fill-rule="nonzero" d="M2268 715l-19 0c29,-47 44,-94 44,-141 0,-18 -3,-36 -7,-54 -3,-15 -8,-29 -14,-43 -3,-8 -11,-23 -23,-43l19 0c18,24 31,49 40,73 8,22 12,44 12,67 0,26 -6,52 -16,77 -10,24 -22,46 -36,64z"/>
   <path id="8" fill="black" fill-rule="nonzero" d="M2940 652l0 -30 30 0 0 30c0,11 -1,20 -5,27 -4,7 -11,12 -19,16l-7 -12c5,-2 9,-6 12,-11 3,-4 4,-11 4,-20l-15 0z"/>
   <path id="9" fill="black" fill-rule="nonzero" d="M3202 632c-10,9 -19,15 -28,18 -9,4 -19,5 -29,5 -18,0 -31,-4 -40,-12 -9,-9 -14,-19 -14,-32 0,-8 2,-15 5,-21 4,-6 9,-11 14,-15 6,-4 12,-7 19,-9 5,-1 13,-2 24,-4 21,-2 37,-5 47,-9 0,-3 0,-6 0,-7 0,-10 -3,-18 -8,-22 -6,-6 -16,-9 -30,-9 -12,0 -21,2 -27,6 -6,5 -11,12 -13,24l-26 -4c2,-11 6,-20 11,-27 6,-7 14,-12 24,-16 10,-3 22,-5 35,-5 13,0 24,1 33,5 8,3 14,7 18,11 4,5 7,11 8,18 1,5 2,13 2,25l0 35c0,24 0,40 1,46 1,7 3,13 7,19l-28 0c-3,-6 -4,-12 -5,-20zm-2 -58c-10,4 -24,7 -43,10 -11,1 -19,3 -23,5 -5,2 -8,5 -11,9 -2,3 -4,7 -4,12 0,7 3,13 8,18 6,4 14,7 24,7 10,0 19,-3 27,-7 8,-5 14,-11 17,-18 3,-6 5,-15 5,-26l0 -10z"/>
   <path id="10" fill="black" fill-rule="nonzero" d="M3668 652l0 -215 96 0c19,0 33,2 43,6 10,4 18,11 24,20 6,10 9,21 9,33 0,15 -5,28 -15,38 -10,11 -25,17 -45,20 7,4 13,7 17,11 8,7 16,17 23,28l37 59 -35 0 -29 -45c-8,-13 -15,-23 -20,-29 -5,-7 -10,-12 -14,-15 -5,-2 -9,-4 -13,-5 -4,-1 -9,-1 -16,-1l-33 0 0 95 -29 0zm29 -120l61 0c13,0 23,-1 30,-4 8,-3 13,-7 17,-13 4,-6 6,-12 6,-19 0,-10 -4,-19 -11,-25 -8,-7 -19,-10 -35,-10l-68 0 0 71z"/>
   <path id="11" fill="black" fill-rule="nonzero" d="M3888 526l0 -30 30 0 0 30 -30 0zm0 126l0 -30 30 0 0 30c0,11 -2,20 -6,27 -4,7 -10,12 -19,16l-7 -12c6,-2 10,-6 13,-11 2,-4 4,-11 4,-20l-15 0z"/>
   <path id="12" fill="black" fill-rule="nonzero" d="M4150 652l0 -23c-13,17 -29,26 -50,26 -9,0 -17,-2 -25,-5 -8,-4 -14,-8 -18,-13 -4,-6 -7,-12 -8,-20 -1,-5 -2,-13 -2,-24l0 -97 27 0 0 86c0,14 0,23 1,28 2,7 5,13 11,16 5,4 12,6 20,6 8,0 15,-2 22,-6 7,-4 12,-9 15,-16 2,-7 4,-17 4,-31l0 -83 26 0 0 156 -23 0z"/>
   <path id="13" fill="black" fill-rule="nonzero" d="M4215 652l0 -156 23 0 0 22c12,-17 28,-25 50,-25 9,0 18,2 26,5 8,3 13,8 17,13 4,6 7,12 9,20 0,5 1,13 1,25l0 96 -26 0 0 -95c0,-10 -1,-18 -3,-24 -3,-5 -6,-9 -11,-13 -6,-3 -12,-4 -19,-4 -11,0 -21,3 -29,10 -8,8 -12,21 -12,41l0 85 -26 0z"/>
   <path id="14" fill="black" fill-rule="nonzero" d="M4483 632c-10,9 -19,15 -28,18 -9,4 -19,5 -29,5 -17,0 -30,-4 -40,-12 -9,-9 -13,-19 -13,-32 0,-8 1,-15 5,-21 3,-6 8,-11 13,-15 6,-4 12,-7 19,-9 6,-1 13,-2 24,-4 21,-2 37,-5 47,-9 0,-3 0,-6 0,-7 0,-10 -2,-18 -7,-22 -7,-6 -17,-9 -30,-9 -13,0 -22,2 -28,6 -6,5 -10,12 -13,24l-26 -4c2,-11 6,-20 12,-27 5,-7 13,-12 23,-16 10,-3 22,-5 35,-5 14,0 25,1 33,5 8,3 14,7 18,11 4,5 7,11 9,18 0,5 1,13 1,25l0 35c0,24 0,40 1,46 2,7 4,13 7,19l-28 0c-2,-6 -4,-12 -5,-20zm-2 -58c-9,4 -24,7 -43,10 -11,1 -19,3 -23,5 -5,2 -8,5 -11,9 -2,3 -3,7 -3,12 0,7 2,13 8,18 5,4 13,7 23,7 10,0 19,-3 27,-7 8,-5 14,-11 18,-18 3,-6 4,-15 4,-26l0 -10z"/>
   <path id="15" fill="black" fill-rule="nonzero" d="M4632 652l0 -156 23 0 0 22c5,-7 12,-14 20,-18 8,-5 17,-7 28,-7 11,0 20,2 28,7 7,5 12,12 15,20 13,-18 29,-27 49,-27 15,0 27,4 35,13 9,8 13,21 13,39l0 107 -26 0 0 -98c0,-11 -1,-18 -3,-23 -2,-4 -5,-8 -9,-11 -5,-3 -10,-4 -16,-4 -11,0 -20,3 -28,11 -7,7 -10,19 -10,35l0 90 -27 0 0 -101c0,-12 -2,-21 -6,-26 -5,-6 -12,-9 -21,-9 -8,0 -15,2 -21,6 -6,3 -11,9 -14,17 -2,7 -4,18 -4,32l0 81 -26 0z"/>
   <path id="16" fill="black" fill-rule="nonzero" d="M4983 632c-9,9 -19,15 -28,18 -9,4 -19,5 -29,5 -17,0 -30,-4 -40,-12 -9,-9 -13,-19 -13,-32 0,-8 1,-15 5,-21 3,-6 8,-11 13,-15 6,-4 12,-7 19,-9 6,-1 14,-2 24,-4 21,-2 37,-5 47,-9 0,-3 0,-6 0,-7 0,-10 -2,-18 -7,-22 -7,-6 -17,-9 -30,-9 -13,0 -22,2 -28,6 -6,5 -10,12 -13,24l-26 -4c2,-11 6,-20 12,-27 5,-7 13,-12 23,-16 10,-3 22,-5 36,-5 13,0 24,1 32,5 8,3 14,7 18,11 4,5 7,11 9,18 0,5 1,13 1,25l0 35c0,24 0,40 2,46 1,7 3,13 6,19l-28 0c-2,-6 -4,-12 -5,-20zm-2 -58c-9,4 -24,7 -43,10 -11,1 -19,3 -23,5 -5,2 -8,5 -10,9 -3,3 -4,7 -4,12 0,7 2,13 8,18 5,4 13,7 23,7 10,0 19,-3 27,-7 8,-5 14,-11 18,-18 3,-6 4,-15 4,-26l0 -10z"/>
   <path id="17" fill="black" fill-rule="nonzero" d="M5106 628l3 24c-7,1 -14,2 -19,2 -10,0 -17,-1 -23,-5 -5,-3 -9,-7 -11,-11 -2,-5 -3,-16 -3,-32l0 -89 -20 0 0 -21 20 0 0 -38 26 -16 0 54 27 0 0 21 -27 0 0 91c0,7 1,12 2,14 1,3 2,4 4,6 2,1 5,1 9,1 3,0 7,0 12,-1z"/>
   <path id="18" fill="black" fill-rule="nonzero" d="M5132 652l0 -156 23 0 0 24c6,-11 12,-18 17,-22 5,-3 11,-5 17,-5 9,0 18,3 27,8l-9 25c-7,-4 -13,-6 -19,-6 -6,0 -11,2 -16,5 -4,4 -8,9 -10,15 -3,9 -4,19 -4,31l0 81 -26 0z"/>
   <path id="19" fill="black" fill-rule="nonzero" d="M5232 467l0 -30 26 0 0 30 -26 0zm0 185l0 -156 26 0 0 156 -26 0z"/>
   <path id="20" fill="black" fill-rule="nonzero" d="M5284 652l0 -22 99 -113c-11,0 -21,1 -30,1l-63 0 0 -22 127 0 0 18 -84 98 -16 19c12,-1 23,-2 33,-2l72 0 0 23 -138 0z"/>
   <path id="21" fill="black" fill-rule="nonzero" d="M5589 628l4 24c-8,1 -14,2 -20,2 -10,0 -17,-1 -22,-5 -6,-3 -9,-7 -12,-11 -2,-5 -3,-16 -3,-32l0 -89 -19 0 0 -21 19 0 0 -38 27 -16 0 54 26 0 0 21 -26 0 0 91c0,7 0,12 1,14 1,3 2,4 5,6 2,1 5,1 9,1 2,0 6,0 11,-1z"/>
   <path id="22" fill="black" fill-rule="nonzero" d="M5717 632c-10,9 -19,15 -29,18 -9,4 -18,5 -29,5 -17,0 -30,-4 -39,-12 -9,-9 -14,-19 -14,-32 0,-8 2,-15 5,-21 4,-6 8,-11 14,-15 6,-4 12,-7 19,-9 5,-1 13,-2 23,-4 22,-2 37,-5 48,-9 0,-3 0,-6 0,-7 0,-10 -3,-18 -8,-22 -7,-6 -17,-9 -30,-9 -12,0 -22,2 -27,6 -6,5 -11,12 -14,24l-25 -4c2,-11 6,-20 11,-27 6,-7 13,-12 24,-16 10,-3 22,-5 35,-5 13,0 24,1 32,5 9,3 15,7 19,11 4,5 6,11 8,18 1,5 1,13 1,25l0 35c0,24 1,40 2,46 1,7 3,13 6,19l-27 0c-3,-6 -4,-12 -5,-20zm-2 -58c-10,4 -24,7 -44,10 -10,1 -18,3 -23,5 -4,2 -8,5 -10,9 -2,3 -4,7 -4,12 0,7 3,13 8,18 6,4 13,7 24,7 10,0 19,-3 27,-7 8,-5 14,-11 17,-18 3,-6 5,-15 5,-26l0 -10z"/>
   <polygon id="23" fill="black" fill-rule="nonzero" points="5781,652 5781,437 5808,437 5808,652 "/>
   <path id="24" fill="black" fill-rule="nonzero" d="M6031 712l0 -77c-4,6 -10,11 -17,15 -7,3 -15,5 -24,5 -18,0 -34,-7 -47,-22 -14,-15 -20,-35 -20,-60 0,-16 2,-30 8,-42 5,-13 13,-22 23,-28 11,-7 22,-10 34,-10 20,0 35,8 46,24l0 -21 23 0 0 216 -26 0zm-81 -138c0,20 4,35 12,45 9,10 19,15 31,15 11,0 20,-5 29,-15 8,-9 12,-24 12,-43 0,-21 -5,-36 -13,-47 -9,-10 -19,-15 -30,-15 -12,0 -21,4 -29,14 -8,10 -12,25 -12,46z"/>
   <path id="25" fill="black" fill-rule="nonzero" d="M6200 652l0 -23c-12,17 -28,26 -49,26 -9,0 -17,-2 -25,-5 -8,-4 -14,-8 -18,-13 -4,-6 -7,-12 -8,-20 -1,-5 -2,-13 -2,-24l0 -97 27 0 0 86c0,14 0,23 1,28 2,7 5,13 11,16 5,4 12,6 20,6 7,0 15,-2 22,-6 7,-4 12,-9 14,-16 3,-7 5,-17 5,-31l0 -83 26 0 0 156 -24 0z"/>
   <path id="26" fill="black" fill-rule="nonzero" d="M6372 602l27 3c-4,16 -12,28 -24,37 -11,9 -26,13 -44,13 -23,0 -41,-7 -54,-21 -13,-14 -20,-33 -20,-59 0,-26 7,-46 20,-60 14,-15 31,-22 52,-22 21,0 38,7 51,21 13,14 20,34 20,60 0,1 0,4 0,7l-116 0c1,17 6,30 14,39 9,9 20,14 33,14 10,0 18,-3 25,-8 6,-5 12,-13 16,-24zm-87 -43l87 0c-1,-13 -4,-23 -10,-29 -8,-10 -19,-15 -32,-15 -13,0 -23,4 -31,12 -8,8 -13,19 -14,32z"/>
   <path id="27" fill="black" fill-rule="nonzero" d="M3548 652l-45 0c-27,0 -46,-8 -59,-25 -12,-14 -17,-35 -17,-62 0,-26 7,-46 19,-61 14,-17 34,-25 60,-25l42 0 0 25 -44 0c-14,0 -25,5 -33,14 -8,8 -12,19 -14,33l61 0 0 24 -61 0c3,34 19,52 47,52l44 0 0 25z"/>
  </g>
 </g>
</svg>
