<?xml version="1.0" encoding="UTF-8"?>
<!DOCTYPE svg PUBLIC "-//W3C//DTD SVG 1.1//EN" "http://www.w3.org/Graphics/SVG/1.1/DTD/svg11.dtd">
<!-- Creator: CorelDRAW X8 -->
<svg xmlns="http://www.w3.org/2000/svg" xml:space="preserve" width="4093px" height="1763px" version="1.1" shape-rendering="geometricPrecision" text-rendering="geometricPrecision" image-rendering="optimizeQuality" fill-rule="evenodd" clip-rule="evenodd"
viewBox="0 0 4093 1763"
 xmlns:xlink="http://www.w3.org/1999/xlink">
 <g id="Capa_x0020_1">
  <metadata id="CorelCorpID_0Corel-Layer"/>
  <rect fill="white" width="4093" height="1763"/>
  <g id="_2426678797488">
   <path fill="black" fill-rule="nonzero" d="M1239 774l57 -81 -53 -75 33 0 25 37c4,7 8,13 10,17 5,-6 9,-12 12,-17l26 -37 32 0 -53 75 57 81 -32 0 -33 -48 -7 -12 -41 60 -33 0z"/>
   <polygon id="1" fill="black" fill-rule="nonzero" points="1998,774 1998,744 2028,744 2028,774 "/>
   <path id="2" fill="black" fill-rule="nonzero" d="M2323 834l-3 -25c6,2 11,3 15,3 6,0 11,-1 14,-3 4,-2 7,-5 9,-8 1,-3 4,-10 8,-20 0,-1 1,-4 2,-6l-59 -157 28 0 33 90c4,12 8,24 11,36 3,-12 7,-23 11,-35l33 -91 27 0 -59 159c-7,17 -12,28 -15,35 -5,9 -10,15 -16,19 -6,4 -14,6 -22,6 -5,0 -11,-1 -17,-3z"/>
   <polygon fill="black" fill-rule="nonzero" points="1071,907 1071,909 1071,1457 1129,1457 1129,1435 1097,1435 1097,909 1097,907 1097,381 1129,381 1129,359 1071,359 "/>
   <polygon fill="black" fill-rule="nonzero" points="2918,906 2918,908 2918,1455 2860,1455 2860,1434 2892,1434 2892,908 2892,906 2892,380 2860,380 2860,358 2918,358 "/>
   <path fill="black" fill-rule="nonzero" d="M1245 1355l0 -22 99 -114c-11,1 -21,1 -30,1l-63 0 0 -21 127 0 0 17 -84 99 -16 18c11,-1 23,-1 33,-1l72 0 0 23 -138 0z"/>
   <polygon id="1" fill="black" fill-rule="nonzero" points="2000,1355 2000,1325 2030,1325 2030,1355 "/>
   <path id="2" fill="black" fill-rule="nonzero" d="M2308 1355l57 -81 -53 -75 33 0 24 37c5,7 8,12 11,17 4,-7 8,-12 12,-17l26 -37 32 0 -53 75 57 81 -33 0 -32 -48 -7 -12 -42 60 -32 0z"/>
   <path fill="black" fill-rule="nonzero" d="M1524 613l0 19 -72 0c1,-7 3,-14 7,-20 4,-7 11,-15 23,-26 9,-9 15,-14 17,-17 3,-5 4,-9 4,-13 0,-5 -1,-8 -4,-11 -2,-2 -5,-3 -10,-3 -4,0 -7,1 -10,3 -2,3 -4,7 -4,13l-21 -2c1,-11 5,-19 12,-24 6,-5 14,-8 24,-8 10,0 19,3 25,9 6,6 9,13 9,21 0,5 -1,10 -3,14 -1,5 -4,9 -8,14 -2,3 -7,8 -13,14 -7,6 -11,10 -13,12 -2,2 -3,4 -4,5l41 0z"/>
   <path id="1" fill="black" fill-rule="nonzero" d="M1613 632l-21 0 0 -39c0,-9 0,-14 -1,-16 -1,-3 -2,-5 -4,-6 -2,-2 -5,-2 -7,-2 -4,0 -7,1 -10,3 -3,2 -5,4 -6,7 -1,4 -2,10 -2,18l0 35 -20 0 0 -77 19 0 0 11c7,-9 15,-13 26,-13 4,0 8,1 12,2 4,2 7,4 9,7 2,2 3,5 4,8 1,4 1,8 1,14l0 48z"/>
   <polygon id="2" fill="black" fill-rule="nonzero" points="1699,617 1699,589 1671,589 1671,570 1699,570 1699,542 1718,542 1718,570 1746,570 1746,589 1718,589 1718,617 "/>
   <path id="3" fill="black" fill-rule="nonzero" d="M1853 632l-21 0 0 -77c-7,7 -16,12 -26,15l0 -18c5,-2 11,-5 17,-10 7,-5 11,-11 13,-18l17 0 0 108z"/>
   <path fill="black" fill-rule="nonzero" d="M2155 608l15 -1c1,3 2,7 4,9 3,2 5,3 8,3 3,0 6,-2 8,-4 3,-3 4,-6 4,-10 0,-4 -1,-7 -3,-10 -3,-2 -5,-3 -8,-3 -2,0 -5,0 -8,1l2 -13c5,0 8,-1 10,-3 2,-2 3,-5 3,-8 0,-3 0,-5 -2,-7 -2,-1 -4,-2 -7,-2 -2,0 -5,1 -7,3 -2,2 -3,4 -3,8l-15 -2c1,-6 3,-10 5,-13 2,-3 5,-5 8,-7 4,-2 8,-2 13,-2 8,0 14,2 19,7 4,4 6,9 6,14 0,7 -4,13 -12,18 4,1 8,3 11,7 3,3 4,7 4,13 0,7 -2,13 -8,18 -5,5 -12,8 -20,8 -7,0 -14,-2 -18,-6 -5,-5 -8,-11 -9,-18z"/>
   <path fill="black" fill-rule="nonzero" d="M2195 1132l-15 2c0,-3 -1,-6 -3,-7 -2,-2 -4,-3 -6,-3 -4,0 -6,2 -9,5 -2,3 -4,9 -4,19 4,-5 9,-7 15,-7 6,0 12,2 17,7 5,6 7,12 7,20 0,9 -3,16 -8,21 -5,5 -11,8 -19,8 -8,0 -15,-4 -21,-10 -5,-7 -8,-18 -8,-33 0,-15 3,-26 9,-33 5,-7 13,-10 22,-10 6,0 11,2 16,5 4,4 6,9 7,16zm-36 35c0,5 1,9 4,12 2,3 5,4 8,4 3,0 5,-1 7,-3 2,-3 3,-6 3,-12 0,-5 -1,-9 -3,-12 -2,-2 -5,-3 -8,-3 -3,0 -5,1 -8,3 -2,3 -3,6 -3,11z"/>
   <path fill="black" fill-rule="nonzero" d="M2584 613l0 19 -72 0c0,-7 3,-14 7,-20 4,-7 11,-15 23,-26 9,-9 15,-14 17,-17 3,-5 4,-9 4,-13 0,-5 -1,-8 -4,-11 -2,-2 -6,-3 -10,-3 -4,0 -8,1 -10,3 -3,3 -4,7 -4,13l-21 -2c1,-11 5,-19 11,-24 7,-5 15,-8 25,-8 10,0 19,3 25,9 6,6 9,13 9,21 0,5 -1,10 -3,14 -2,5 -4,9 -8,14 -3,3 -7,8 -14,14 -6,6 -10,10 -12,12 -2,2 -3,4 -4,5l41 0z"/>
   <path id="1" fill="black" fill-rule="nonzero" d="M2673 632l-21 0 0 -39c0,-9 0,-14 -1,-16 -1,-3 -2,-5 -4,-6 -2,-2 -5,-2 -8,-2 -3,0 -6,1 -9,3 -3,2 -5,4 -6,7 -1,4 -2,10 -2,18l0 35 -20 0 0 -77 19 0 0 11c7,-9 15,-13 26,-13 4,0 8,1 12,2 4,2 7,4 9,7 2,2 3,5 4,8 0,4 1,8 1,14l0 48z"/>
   <path fill="black" fill-rule="nonzero" d="M3064 443l0 19 -72 0c1,-7 3,-14 7,-20 4,-7 12,-15 23,-26 10,-9 15,-15 17,-18 3,-4 5,-8 5,-12 0,-5 -1,-9 -4,-11 -2,-2 -6,-4 -10,-4 -4,0 -8,2 -10,4 -3,3 -4,7 -5,13l-20 -2c1,-11 5,-19 11,-24 7,-5 15,-8 24,-8 11,0 19,3 25,9 6,6 9,13 9,21 0,5 0,10 -2,14 -2,4 -5,9 -8,14 -3,3 -7,8 -14,14 -6,6 -11,9 -12,11 -2,2 -3,4 -5,6l41 0z"/>
   <path id="1" fill="black" fill-rule="nonzero" d="M3113 354c11,0 19,4 25,11 7,9 10,24 10,44 0,21 -4,35 -11,44 -5,7 -13,11 -24,11 -10,0 -19,-4 -25,-12 -7,-8 -10,-22 -10,-43 0,-20 4,-35 11,-44 6,-7 14,-11 24,-11zm0 17c-2,0 -5,1 -6,3 -2,1 -4,4 -5,8 -1,6 -2,15 -2,27 0,13 1,22 2,26 1,5 3,8 5,10 2,1 4,2 6,2 3,0 5,-1 7,-2 2,-2 3,-5 4,-9 2,-5 2,-14 2,-27 0,-12 0,-21 -2,-26 -1,-5 -2,-8 -4,-9 -2,-2 -4,-3 -7,-3z"/>
   <path id="2" fill="black" fill-rule="nonzero" d="M3214 462l-20 0 0 -78c-8,8 -17,13 -27,16l0 -19c6,-1 11,-5 18,-10 6,-5 10,-10 13,-17l16 0 0 108z"/>
   <path id="3" fill="black" fill-rule="nonzero" d="M3246 437l20 -2c0,4 2,7 4,9 2,2 4,3 8,3 4,0 7,-2 10,-6 3,-4 5,-12 6,-24 -5,6 -12,9 -19,9 -9,0 -16,-3 -22,-10 -6,-7 -9,-15 -9,-25 0,-11 3,-20 9,-27 7,-6 15,-10 25,-10 11,0 20,4 27,13 7,8 10,22 10,42 0,19 -3,33 -11,42 -7,9 -16,13 -28,13 -8,0 -15,-2 -20,-7 -5,-4 -9,-11 -10,-20zm46 -45c0,-6 -1,-12 -4,-15 -3,-4 -7,-6 -11,-6 -4,0 -7,2 -9,5 -3,3 -4,8 -4,15 0,6 1,12 4,15 3,3 6,5 10,5 4,0 7,-2 10,-5 3,-3 4,-8 4,-14z"/>
   <path fill="black" fill-rule="nonzero" d="M1529 1184l0 19 -72 0c1,-7 3,-14 7,-21 4,-6 12,-15 23,-26 9,-8 15,-14 17,-17 3,-4 4,-9 4,-13 0,-4 -1,-8 -3,-10 -3,-3 -6,-4 -11,-4 -4,0 -7,1 -10,4 -2,2 -4,7 -4,13l-21 -2c1,-12 5,-20 12,-25 6,-5 14,-7 24,-7 11,0 19,3 25,8 6,6 9,13 9,22 0,5 -1,9 -3,14 -1,4 -4,9 -8,13 -2,4 -7,8 -13,14 -7,6 -11,10 -13,12 -1,2 -3,4 -4,6l41 0z"/>
   <path id="1" fill="black" fill-rule="nonzero" d="M1618 1203l-20 0 0 -40c0,-8 -1,-14 -2,-16 -1,-3 -2,-4 -4,-6 -2,-1 -4,-2 -7,-2 -4,0 -7,1 -10,3 -3,2 -5,5 -6,8 -1,3 -1,9 -1,18l0 35 -21 0 0 -78 19 0 0 11c7,-8 15,-13 26,-13 4,0 9,1 12,3 4,1 7,4 9,6 2,3 3,5 4,9 1,3 1,8 1,14l0 48z"/>
   <polygon id="2" fill="black" fill-rule="nonzero" points="1678,1174 1678,1154 1719,1154 1719,1174 "/>
   <path id="3" fill="black" fill-rule="nonzero" d="M1767 1174l20 -2c1,5 2,9 5,12 3,2 6,4 10,4 4,0 8,-2 11,-5 3,-3 4,-8 4,-13 0,-5 -1,-10 -4,-13 -3,-3 -6,-4 -10,-4 -3,0 -6,0 -9,1l2 -16c5,0 10,-1 13,-4 2,-2 4,-6 4,-10 0,-4 -1,-7 -3,-9 -2,-2 -5,-3 -9,-3 -3,0 -6,1 -9,4 -2,2 -4,6 -4,10l-19 -3c1,-6 3,-12 6,-16 2,-3 6,-7 11,-9 5,-2 10,-3 16,-3 10,0 18,3 24,10 5,5 8,11 8,18 0,9 -6,17 -16,22 6,2 11,4 15,9 4,5 5,10 5,17 0,9 -3,17 -10,24 -7,6 -15,10 -26,10 -9,0 -17,-3 -24,-9 -6,-5 -10,-13 -11,-22z"/>
   <path fill="black" fill-rule="nonzero" d="M2512 1169l20 -2c1,5 2,9 5,11 3,3 7,4 10,4 5,0 8,-1 11,-5 3,-3 5,-9 5,-16 0,-6 -2,-11 -5,-15 -3,-3 -7,-5 -11,-5 -6,0 -12,3 -16,8l-17 -2 11 -56 54 0 0 19 -39 0 -3 18c5,-2 9,-3 14,-3 9,0 17,3 23,10 7,7 10,15 10,26 0,9 -3,17 -8,24 -7,9 -17,14 -29,14 -10,0 -18,-3 -24,-8 -6,-5 -10,-13 -11,-22z"/>
   <path id="1" fill="black" fill-rule="nonzero" d="M2670 1197l-21 0 0 -40c0,-8 0,-13 -1,-16 -1,-2 -2,-4 -4,-6 -2,-1 -5,-2 -7,-2 -4,0 -7,1 -10,3 -3,2 -5,5 -6,8 -1,3 -2,9 -2,18l0 35 -20 0 0 -78 19 0 0 12c7,-9 15,-13 26,-13 4,0 8,0 12,2 4,2 7,4 9,6 2,3 3,6 4,9 1,3 1,8 1,14l0 48z"/>
   <line fill="none" stroke="black" stroke-width="23.6221" x1="1151" y1="891" x2="2845" y2= "891" />
   <polyline fill="none" stroke="black" stroke-width="23.6221" points="2125,629 2219,810 2257,448 2747,448 "/>
   <polyline fill="none" stroke="black" stroke-width="23.6221" points="748,908 909,1468 1034,295 3345,295 "/>
   <polyline fill="none" stroke="black" stroke-width="23.6221" points="2106,1162 2200,1343 2239,981 2728,981 "/>
  </g>
 </g>
</svg>
