<?xml version="1.0" encoding="UTF-8"?>
<!DOCTYPE svg PUBLIC "-//W3C//DTD SVG 1.1//EN" "http://www.w3.org/Graphics/SVG/1.1/DTD/svg11.dtd">
<!-- Creator: CorelDRAW X8 -->
<svg xmlns="http://www.w3.org/2000/svg" xml:space="preserve" width="2343px" height="519px" version="1.1" shape-rendering="geometricPrecision" text-rendering="geometricPrecision" image-rendering="optimizeQuality" fill-rule="evenodd" clip-rule="evenodd"
viewBox="0 0 2343 519"
 xmlns:xlink="http://www.w3.org/1999/xlink">
 <g id="Capa_x0020_1">
  <metadata id="CorelCorpID_0Corel-Layer"/>
  <rect fill="white" width="2343" height="519"/>
  <g id="_2426774668192">
   <path fill="black" fill-rule="nonzero" d="M718 336l26 -4c3,15 8,26 15,33 8,6 17,10 27,10 13,0 23,-5 32,-13 8,-9 12,-20 12,-32 0,-12 -4,-22 -11,-30 -8,-8 -18,-12 -31,-12 -5,0 -11,1 -18,3l3 -23c1,0 3,0 4,0 11,0 21,-3 30,-9 9,-6 14,-15 14,-27 0,-9 -3,-17 -10,-24 -7,-6 -15,-9 -25,-9 -11,0 -19,3 -26,10 -7,6 -11,16 -13,29l-27 -5c4,-18 11,-31 22,-41 12,-10 26,-15 43,-15 12,0 22,3 32,8 10,5 18,12 23,20 5,9 8,18 8,28 0,9 -3,18 -8,25 -5,8 -12,14 -22,18 13,3 23,9 30,19 7,9 10,20 10,34 0,19 -7,35 -20,48 -14,13 -31,20 -52,20 -19,0 -35,-6 -47,-17 -13,-12 -20,-26 -21,-44z"/>
   <path id="1" fill="black" fill-rule="nonzero" d="M1051 337l28 -3c2,14 7,24 14,31 7,7 16,10 27,10 13,0 24,-5 32,-14 9,-10 13,-23 13,-39 0,-15 -4,-26 -12,-35 -8,-9 -19,-13 -33,-13 -9,0 -16,2 -23,6 -7,4 -12,9 -16,15l-25 -4 21 -110 106 0 0 25 -85 0 -12 58c13,-9 27,-14 41,-14 18,0 34,7 47,20 13,13 19,30 19,50 0,19 -5,36 -17,50 -13,18 -32,27 -56,27 -19,0 -35,-6 -48,-17 -12,-11 -19,-25 -21,-43z"/>
   <polygon id="2" fill="black" fill-rule="nonzero" points="1298,328 1298,302 1380,302 1380,328 "/>
   <path id="3" fill="black" fill-rule="nonzero" d="M1485 336l26 -4c3,15 8,26 15,33 8,6 17,10 27,10 13,0 23,-5 32,-13 8,-9 12,-20 12,-32 0,-12 -3,-22 -11,-30 -8,-8 -18,-12 -31,-12 -5,0 -11,1 -18,3l3 -23c1,0 3,0 4,0 11,0 21,-3 30,-9 9,-6 14,-15 14,-27 0,-9 -3,-17 -10,-24 -7,-6 -15,-9 -25,-9 -11,0 -19,3 -26,10 -7,6 -11,16 -13,29l-27 -5c4,-18 11,-31 22,-41 12,-10 26,-15 43,-15 12,0 23,3 32,8 10,5 18,12 23,20 5,9 8,18 8,28 0,9 -3,18 -8,25 -5,8 -12,14 -22,18 13,3 23,9 30,19 7,9 10,20 10,34 0,19 -6,35 -20,48 -14,13 -31,20 -52,20 -19,0 -35,-6 -47,-17 -12,-12 -20,-26 -21,-44z"/>
   <polyline fill="none" stroke="black" stroke-width="23.6221" points="901,256 970,389 999,122 1269,122 "/>
  </g>
 </g>
</svg>
