<?xml version="1.0" encoding="UTF-8"?>
<!DOCTYPE svg PUBLIC "-//W3C//DTD SVG 1.1//EN" "http://www.w3.org/Graphics/SVG/1.1/DTD/svg11.dtd">
<!-- Creator: CorelDRAW X8 -->
<svg xmlns="http://www.w3.org/2000/svg" xml:space="preserve" width="4370px" height="8278px" version="1.1" shape-rendering="geometricPrecision" text-rendering="geometricPrecision" image-rendering="optimizeQuality" fill-rule="evenodd" clip-rule="evenodd"
viewBox="0 0 4370 8278"
 xmlns:xlink="http://www.w3.org/1999/xlink">
 <g id="Capa_x0020_1">
  <metadata id="CorelCorpID_0Corel-Layer"/>
  <rect fill="white" width="4370" height="8278"/>
  <g id="_2426766513040">
   <g>
    <polygon fill="none" stroke="black" stroke-width="23.6221" points="2041,1005 3544,2507 1026,2021 "/>
    <rect fill="none" stroke="black" stroke-width="23.6221" transform="matrix(0.302894 -0.302894 0.302894 0.302894 1927.88 1118.6)" width="375" height="350"/>
    <circle fill="black" cx="2041" cy="1005" r="58"/>
    <path fill="black" fill-rule="nonzero" d="M831 2093l55 -144 21 0 58 144 -22 0 -16 -44 -60 0 -16 44 -20 0zm41 -59l49 0 -15 -40c-4,-12 -8,-22 -10,-30 -2,9 -5,19 -8,28l-16 42z"/>
    <path fill="black" fill-rule="nonzero" d="M3635 2579l0 -143 53 0c11,0 20,1 27,4 6,3 12,7 15,13 4,6 6,13 6,19 0,6 -2,12 -5,17 -3,6 -8,10 -15,14 9,2 15,6 20,13 5,6 7,13 7,21 0,7 -1,13 -4,19 -3,6 -7,10 -11,13 -4,3 -9,6 -15,7 -7,2 -14,3 -24,3l-54 0zm19 -83l31 0c8,0 14,-1 18,-2 5,-1 8,-4 11,-7 2,-3 3,-8 3,-13 0,-4 -1,-9 -3,-12 -2,-4 -6,-6 -10,-8 -4,-1 -11,-2 -22,-2l-28 0 0 44zm0 66l35 0c7,0 11,0 13,-1 5,0 8,-2 11,-4 3,-1 6,-4 8,-8 1,-3 2,-7 2,-12 0,-5 -1,-10 -4,-14 -3,-4 -6,-6 -11,-8 -5,-2 -12,-2 -21,-2l-33 0 0 49z"/>
    <path fill="black" fill-rule="nonzero" d="M2011 856l19 5c-4,16 -11,28 -21,36 -10,8 -23,12 -38,12 -15,0 -28,-3 -38,-9 -9,-7 -17,-16 -22,-28 -5,-12 -7,-24 -7,-38 0,-15 3,-28 8,-39 6,-11 14,-20 25,-25 10,-6 22,-9 34,-9 15,0 27,4 36,11 10,7 17,17 21,31l-19 4c-3,-10 -8,-18 -14,-23 -7,-4 -14,-7 -24,-7 -11,0 -20,3 -28,8 -7,5 -12,12 -15,21 -3,9 -5,18 -5,28 0,12 2,23 6,32 3,9 9,16 16,20 8,5 16,7 24,7 11,0 20,-3 27,-9 8,-7 13,-16 15,-28z"/>
    <path fill="black" fill-rule="nonzero" d="M2823 802c0,-11 1,-20 5,-28 2,-5 5,-10 10,-15 4,-4 9,-7 14,-9 6,-3 14,-5 23,-5 16,0 28,5 38,15 9,10 14,24 14,41 0,18 -5,31 -14,41 -10,10 -22,15 -38,15 -16,0 -29,-5 -38,-15 -10,-10 -14,-23 -14,-40zm22 -1c0,12 3,21 9,28 5,6 12,9 21,9 9,0 16,-3 21,-9 6,-6 9,-16 9,-28 0,-13 -3,-22 -8,-28 -6,-6 -13,-9 -22,-9 -9,0 -16,3 -22,9 -5,6 -8,16 -8,28z"/>
    <path id="1" fill="black" fill-rule="nonzero" d="M2963 855l-20 0 0 -78 19 0 0 11c3,-5 6,-9 9,-10 2,-2 5,-3 9,-3 4,0 9,2 13,4l-6 18c-4,-2 -7,-3 -10,-3 -3,0 -5,1 -7,2 -2,2 -4,5 -5,9 -1,4 -2,13 -2,26l0 24z"/>
    <path id="2" fill="black" fill-rule="nonzero" d="M3038 777l0 16 -14 0 0 32c0,6 0,10 0,11 0,1 1,2 2,3 1,0 2,1 3,1 2,0 5,-1 9,-2l1 16c-4,2 -10,3 -16,3 -4,0 -7,-1 -10,-2 -3,-1 -5,-3 -6,-5 -2,-2 -3,-5 -3,-8 -1,-2 -1,-7 -1,-15l0 -34 -9 0 0 -16 9 0 0 -15 21 -13 0 28 14 0z"/>
    <path id="3" fill="black" fill-rule="nonzero" d="M3047 815c0,-7 2,-14 5,-20 4,-6 9,-11 15,-15 6,-3 13,-5 20,-5 12,0 22,4 29,12 8,7 12,17 12,29 0,12 -4,21 -12,29 -7,8 -17,12 -28,12 -8,0 -14,-2 -21,-5 -6,-3 -11,-8 -15,-14 -3,-7 -5,-14 -5,-23zm21 1c0,8 2,14 6,18 4,4 8,6 13,6 6,0 10,-2 14,-6 4,-4 5,-10 5,-18 0,-8 -1,-14 -5,-18 -4,-4 -8,-6 -14,-6 -5,0 -9,2 -13,6 -4,4 -6,10 -6,18z"/>
    <path id="4" fill="black" fill-rule="nonzero" d="M3212 800l-21 4c0,-4 -2,-7 -4,-9 -3,-2 -6,-3 -10,-3 -5,0 -9,1 -12,5 -3,3 -5,9 -5,18 0,9 2,15 5,19 3,4 7,6 12,6 4,0 8,-1 10,-3 3,-3 4,-6 5,-12l21 4c-3,9 -7,16 -12,21 -6,4 -14,7 -24,7 -12,0 -21,-4 -28,-11 -6,-7 -10,-17 -10,-30 0,-13 4,-23 10,-30 7,-7 16,-11 28,-11 9,0 17,2 23,6 5,5 9,11 12,19z"/>
    <path id="5" fill="black" fill-rule="nonzero" d="M3272 830l21 4c-3,7 -7,13 -13,17 -5,4 -13,6 -21,6 -14,0 -24,-5 -30,-14 -5,-7 -8,-16 -8,-26 0,-13 4,-23 10,-31 7,-7 16,-11 26,-11 11,0 20,4 27,12 7,7 10,19 10,35l-52 0c0,6 2,11 5,14 3,4 7,5 12,5 3,0 6,-1 8,-2 2,-2 4,-5 5,-9zm1 -21c0,-6 -1,-10 -4,-13 -3,-3 -7,-5 -11,-5 -4,0 -8,2 -11,5 -3,3 -4,8 -4,13l30 0z"/>
    <path id="6" fill="black" fill-rule="nonzero" d="M3381 855l-20 0 0 -40c0,-8 -1,-14 -1,-16 -1,-3 -3,-5 -5,-6 -2,-1 -4,-2 -7,-2 -4,0 -7,1 -10,3 -3,2 -5,5 -6,8 -1,3 -1,9 -1,18l0 35 -21 0 0 -78 19 0 0 11c7,-8 16,-13 26,-13 5,0 9,1 13,3 3,1 6,3 8,6 2,3 3,5 4,9 1,3 1,7 1,13l0 49z"/>
    <path id="7" fill="black" fill-rule="nonzero" d="M3438 777l0 16 -14 0 0 32c0,6 0,10 0,11 0,1 1,2 2,3 1,0 2,1 3,1 2,0 5,-1 9,-2l1 16c-4,2 -10,3 -16,3 -4,0 -7,-1 -10,-2 -3,-1 -5,-3 -6,-5 -2,-2 -3,-5 -3,-8 -1,-2 -1,-7 -1,-15l0 -34 -9 0 0 -16 9 0 0 -15 21 -13 0 28 14 0z"/>
    <path id="8" fill="black" fill-rule="nonzero" d="M3472 855l-21 0 0 -78 19 0 0 11c4,-5 7,-9 9,-10 3,-2 6,-3 9,-3 5,0 9,2 14,4l-7 18c-3,-2 -6,-3 -9,-3 -3,0 -6,1 -8,2 -2,2 -3,5 -4,9 -2,4 -2,13 -2,26l0 24z"/>
    <path id="9" fill="black" fill-rule="nonzero" d="M3506 815c0,-7 1,-14 5,-20 3,-6 8,-11 14,-15 6,-3 13,-5 21,-5 12,0 21,4 29,12 7,7 11,17 11,29 0,12 -4,21 -11,29 -8,8 -18,12 -29,12 -7,0 -14,-2 -20,-5 -7,-3 -12,-8 -15,-14 -4,-7 -5,-14 -5,-23zm21 1c0,8 2,14 5,18 4,4 9,6 14,6 5,0 10,-2 13,-6 4,-4 6,-10 6,-18 0,-8 -2,-14 -6,-18 -3,-4 -8,-6 -13,-6 -5,0 -10,2 -14,6 -3,4 -5,10 -5,18z"/>
    <g>
     <path fill="black" fill-rule="nonzero" d="M2054 971l14 10 -2 4 -9 12 -8 13 -15 -10 8 -13 9 -13 3 -3zm58 -69l13 13 -5 4 -10 10 -9 10 0 1 -14 -12 1 0 10 -11 10 -10 4 -5zm71 -56l10 15 0 0 -11 7 -11 8 -7 5 -11 -14 8 -6 11 -7 11 -8 0 0zm82 -38l6 17 -8 3 -12 4 -12 5 0 0 -8 -16 1 0 12 -5 13 -5 8 -3zm89 -19l2 17 -2 0 -13 2 -14 2 -6 2 -3 -18 6 -1 14 -2 14 -2 2 0zm57 -4l0 18 0 0 -3 0 -1 -18 4 0 0 0zm32 0l0 18 -3 0 -11 0 -9 0 -9 0 0 -18 9 0 9 0 11 0 3 0zm89 0l0 18 -8 0 -13 0 -13 0 -2 0 0 -18 2 0 13 0 13 0 8 0zm88 0l0 18 -5 0 -13 0 -13 0 -4 0 0 -18 4 0 13 0 13 0 5 0zm89 0l0 18 -4 0 -7 0 -8 0 -9 0 -8 0 0 -18 8 0 9 0 8 0 7 0 4 0zm36 17l-10 -15 0 15 -70 -46 10 -15 70 46 0 15zm0 0l0 -15 11 7 -11 8zm-75 38l-5 -8 70 -45 10 15 -70 45 -5 -7z"/>
    </g>
   </g>
   <polygon fill="none" stroke="black" stroke-width="23.6221" points="1929,6303 3614,7554 999,7554 "/>
   <circle fill="black" cx="2180" cy="7137" r="58"/>
   <path fill="black" fill-rule="nonzero" d="M837 7719l55 -143 21 0 58 143 -22 0 -16 -44 -61 0 -15 44 -20 0zm41 -59l49 0 -15 -40c-5,-12 -8,-22 -10,-30 -2,10 -5,19 -8,28l-16 42z"/>
   <path fill="black" fill-rule="nonzero" d="M3816 7634l19 5c-4,15 -11,27 -21,35 -10,8 -23,12 -38,12 -15,0 -28,-3 -37,-9 -10,-6 -17,-15 -23,-27 -5,-12 -7,-25 -7,-39 0,-15 3,-28 8,-39 6,-11 14,-19 25,-25 10,-6 22,-9 34,-9 15,0 27,4 37,11 9,8 16,18 20,31l-19 4c-3,-10 -8,-18 -14,-22 -6,-5 -14,-7 -24,-7 -11,0 -20,2 -27,7 -8,6 -13,13 -16,22 -3,9 -4,18 -4,27 0,12 1,23 5,32 3,9 9,16 16,20 8,5 16,7 25,7 10,0 19,-3 26,-9 8,-6 13,-15 15,-27z"/>
   <path fill="black" fill-rule="nonzero" d="M2797 6453l21 6c-3,12 -8,21 -16,27 -7,5 -17,8 -28,8 -14,0 -26,-5 -35,-14 -10,-10 -14,-24 -14,-40 0,-18 4,-32 14,-42 9,-10 21,-15 36,-15 13,0 24,4 32,12 5,4 9,11 11,19l-21 6c-2,-6 -4,-10 -8,-14 -4,-3 -9,-4 -15,-4 -8,0 -14,2 -19,8 -5,6 -8,15 -8,28 0,13 3,23 8,29 4,6 11,9 19,9 5,0 10,-2 14,-6 5,-4 8,-9 9,-17z"/>
   <path id="1" fill="black" fill-rule="nonzero" d="M2837 6404l0 -19 20 0 0 19 -20 0zm0 88l0 -78 20 0 0 78 -20 0z"/>
   <path id="2" fill="black" fill-rule="nonzero" d="M2898 6492l-20 0 0 -78 19 0 0 12c3,-6 6,-9 9,-11 2,-1 5,-2 9,-2 4,0 9,1 13,4l-6 18c-4,-3 -7,-4 -10,-4 -3,0 -5,1 -7,3 -2,1 -4,4 -5,8 -1,4 -2,13 -2,26l0 24z"/>
   <path id="3" fill="black" fill-rule="nonzero" d="M3005 6438l-20 3c-1,-4 -3,-7 -5,-9 -3,-2 -6,-3 -10,-3 -5,0 -9,2 -12,5 -3,4 -4,10 -4,18 0,9 1,16 4,20 3,4 7,5 13,5 4,0 7,-1 9,-3 3,-2 5,-6 6,-11l20 3c-2,9 -6,16 -12,21 -6,5 -14,7 -24,7 -12,0 -21,-3 -27,-10 -7,-8 -11,-18 -11,-30 0,-13 4,-23 11,-30 6,-8 16,-11 27,-11 10,0 17,2 23,6 5,4 9,10 12,19z"/>
   <path id="4" fill="black" fill-rule="nonzero" d="M3072 6492l0 -11c-3,4 -7,7 -11,10 -5,2 -10,3 -15,3 -5,0 -10,-1 -14,-3 -4,-2 -7,-6 -9,-10 -2,-4 -3,-10 -3,-17l0 -50 21 0 0 36c0,11 0,18 1,20 1,3 2,5 4,6 2,2 4,3 8,3 3,0 6,-1 9,-3 3,-2 5,-5 6,-8 1,-2 1,-9 1,-21l0 -33 21 0 0 78 -19 0z"/>
   <path id="5" fill="black" fill-rule="nonzero" d="M3180 6438l-20 3c-1,-4 -3,-7 -5,-9 -3,-2 -6,-3 -10,-3 -5,0 -9,2 -12,5 -3,4 -4,10 -4,18 0,9 1,16 4,20 3,4 8,5 13,5 4,0 7,-1 9,-3 3,-2 5,-6 6,-11l20 3c-2,9 -6,16 -12,21 -6,5 -14,7 -24,7 -12,0 -21,-3 -27,-10 -7,-8 -10,-18 -10,-30 0,-13 3,-23 10,-30 6,-8 16,-11 27,-11 10,0 17,2 23,6 5,4 9,10 12,19z"/>
   <path id="6" fill="black" fill-rule="nonzero" d="M3240 6468l21 3c-3,8 -7,13 -12,17 -6,4 -13,6 -22,6 -13,0 -23,-4 -30,-13 -5,-7 -8,-16 -8,-27 0,-13 4,-23 11,-30 6,-8 15,-11 25,-11 12,0 21,4 27,11 7,8 10,20 10,35l-51 0c0,7 1,11 5,15 3,3 7,5 11,5 4,0 6,-1 8,-3 3,-2 4,-4 5,-8zm2 -21c-1,-6 -2,-11 -5,-14 -3,-3 -6,-4 -11,-4 -4,0 -8,1 -11,5 -3,3 -4,7 -4,13l31 0z"/>
   <path id="7" fill="black" fill-rule="nonzero" d="M3350 6492l-21 0 0 -39c0,-9 0,-14 -1,-17 -1,-2 -3,-4 -5,-5 -2,-2 -4,-2 -7,-2 -3,0 -7,1 -9,3 -3,1 -5,4 -6,7 -1,3 -2,9 -2,18l0 35 -20 0 0 -78 19 0 0 12c6,-9 15,-13 25,-13 5,0 9,1 13,2 4,2 7,4 8,7 2,2 4,5 4,8 1,3 2,8 2,14l0 48z"/>
   <path id="8" fill="black" fill-rule="nonzero" d="M3406 6414l0 17 -14 0 0 31c0,7 0,10 0,12 1,1 1,1 2,2 1,1 2,1 4,1 2,0 4,0 8,-2l2 16c-5,2 -10,3 -17,3 -3,0 -7,0 -10,-2 -3,-1 -5,-2 -6,-4 -1,-2 -2,-5 -3,-9 0,-2 -1,-7 -1,-14l0 -34 -9 0 0 -17 9 0 0 -15 21 -12 0 27 14 0z"/>
   <path id="9" fill="black" fill-rule="nonzero" d="M3440 6492l-20 0 0 -78 19 0 0 12c3,-6 6,-9 8,-11 3,-1 6,-2 9,-2 5,0 10,1 14,4l-6 18c-4,-3 -7,-4 -10,-4 -3,0 -5,1 -7,3 -2,1 -4,4 -5,8 -1,4 -2,13 -2,26l0 24z"/>
   <path id="10" fill="black" fill-rule="nonzero" d="M3474 6452c0,-6 2,-13 5,-19 3,-7 8,-12 14,-15 7,-3 13,-5 21,-5 12,0 21,4 29,11 8,8 11,18 11,29 0,12 -4,22 -11,30 -8,7 -17,11 -29,11 -7,0 -14,-1 -20,-5 -7,-3 -12,-8 -15,-14 -3,-6 -5,-14 -5,-23zm21 2c0,7 2,13 6,17 3,4 8,6 13,6 6,0 10,-2 14,-6 3,-4 5,-10 5,-18 0,-7 -2,-13 -5,-17 -4,-4 -8,-6 -14,-6 -5,0 -10,2 -13,6 -4,4 -6,10 -6,18z"/>
   <g>
    <path fill="black" fill-rule="nonzero" d="M2169 7102l17 -1 3 35 -17 2 -3 -36zm-7 -88l18 -1 1 24 1 11 -18 1 0 -11 -2 -24zm-4 -89l18 -1 1 23 0 13 -17 0 -1 -12 -1 -23zm0 -89l17 0 0 30 0 5 -17 1 -1 -6 1 -30zm4 -89l17 1 0 12 -2 23 -17 0 1 -24 1 -12zm11 -89l17 3 -2 11 -3 24 -18 -2 4 -25 2 -11zm22 -87l16 6 -1 2 -6 21 -3 10 -17 -4 3 -11 7 -21 1 -3zm41 -80l15 10 -9 13 -9 14 -1 1 -16 -8 2 -2 9 -15 9 -13zm74 -56l7 16 -2 1 -12 5 -11 7 -4 2 -11 -14 6 -3 12 -8 14 -5 1 -1zm71 -12l0 18 0 0 -14 0 0 0 -3 -18 2 0 15 0 0 0zm20 0l0 18 -2 0 -9 0 -9 0 0 -18 9 0 9 0 2 0zm89 0l0 18 -2 0 -10 0 -11 0 -10 0 -3 0 0 -18 3 0 10 0 11 0 10 0 2 0zm88 0l0 18 -5 0 -8 0 -9 0 -9 0 -4 0 0 -18 4 0 9 0 9 0 8 0 5 0zm68 16l-9 -15 0 15 -70 -45 10 -15 69 45 0 15zm0 0l0 -15 12 8 -12 7zm-74 38l-5 -7 70 -46 9 15 -70 46 -4 -8z"/>
   </g>
   <polygon fill="black" fill-rule="nonzero" points="535,774 535,559 563,559 563,774 "/>
   <polygon id="1" fill="black" fill-rule="nonzero" points="617,774 617,744 647,744 647,774 "/>
   <polygon fill="black" fill-rule="nonzero" points="537,3358 537,3143 565,3143 565,3358 "/>
   <polygon id="1" fill="black" fill-rule="nonzero" points="620,3358 620,3143 649,3143 649,3358 "/>
   <polygon id="2" fill="black" fill-rule="nonzero" points="703,3358 703,3328 733,3328 733,3358 "/>
   <polygon fill="black" fill-rule="nonzero" points="535,6046 535,5832 563,5832 563,6046 "/>
   <polygon id="1" fill="black" fill-rule="nonzero" points="618,6046 618,5832 647,5832 647,6046 "/>
   <polygon id="2" fill="black" fill-rule="nonzero" points="701,6046 701,5832 730,5832 730,6046 "/>
   <polygon id="3" fill="black" fill-rule="nonzero" points="784,6046 784,6016 814,6016 814,6046 "/>
   <g>
    <polygon fill="none" stroke="black" stroke-width="23.6221" points="1373,5257 3240,5257 1373,3389 "/>
    <rect fill="none" stroke="black" stroke-width="17.7165" transform="matrix(-1.13448E-14 0.428357 0.428357 1.13448E-14 1373.32 5096.03)" width="375" height="350"/>
    <rect fill="none" stroke="black" stroke-width="17.7165" transform="matrix(-1.13448E-14 0.428357 0.428357 1.13448E-14 1890.19 5096.03)" width="375" height="350"/>
    <rect fill="none" stroke="black" stroke-width="17.7165" transform="matrix(-1.13448E-14 0.428357 0.428357 1.13448E-14 1373.32 4702.98)" width="375" height="350"/>
    <rect fill="none" stroke="black" stroke-width="17.7165" transform="matrix(0.302894 -0.302894 -0.302894 -0.302894 2274.13 4531.07)" width="375" height="350"/>
    <circle fill="black" cx="1890" cy="4703" r="58"/>
    <polygon fill="black" fill-rule="nonzero" points="2748,4257 2748,4150 2770,4150 2770,4257 "/>
    <path id="1" fill="black" fill-rule="nonzero" d="M2861 4257l-20 0 0 -39c0,-9 -1,-14 -2,-16 -1,-3 -2,-5 -4,-6 -2,-2 -4,-2 -7,-2 -4,0 -7,1 -10,3 -3,2 -5,4 -6,7 -1,4 -1,10 -1,18l0 35 -21 0 0 -77 19 0 0 11c7,-9 16,-13 26,-13 4,0 9,1 12,2 4,2 7,4 9,7 2,2 3,5 4,8 1,4 1,8 1,14l0 48z"/>
    <path id="2" fill="black" fill-rule="nonzero" d="M2950 4203l-20 3c-1,-4 -3,-7 -5,-9 -2,-2 -6,-3 -9,-3 -6,0 -10,2 -13,6 -3,3 -4,9 -4,17 0,10 1,16 4,20 3,4 8,6 13,6 4,0 7,-1 9,-4 3,-2 5,-6 6,-11l20 3c-2,10 -6,17 -12,21 -6,5 -14,7 -24,7 -11,0 -21,-3 -27,-10 -7,-8 -10,-17 -10,-30 0,-13 3,-23 10,-30 6,-7 16,-11 27,-11 10,0 17,2 23,6 5,4 9,10 12,19z"/>
    <path id="3" fill="black" fill-rule="nonzero" d="M3010 4233l21 3c-3,8 -7,14 -12,18 -6,3 -13,5 -22,5 -13,0 -23,-4 -30,-13 -5,-7 -8,-16 -8,-27 0,-13 4,-23 11,-30 6,-7 15,-11 25,-11 12,0 21,4 27,11 7,8 10,20 10,36l-51 0c0,6 1,10 5,14 3,3 7,5 11,5 4,0 6,-1 8,-3 3,-1 4,-4 5,-8zm2 -21c0,-6 -2,-10 -5,-14 -3,-3 -6,-4 -11,-4 -4,0 -8,1 -11,5 -3,3 -4,7 -4,13l31 0z"/>
    <path id="4" fill="black" fill-rule="nonzero" d="M3120 4257l-21 0 0 -39c0,-9 0,-14 -1,-16 -1,-3 -3,-5 -5,-6 -2,-2 -4,-2 -7,-2 -3,0 -7,1 -9,3 -3,2 -5,4 -6,7 -1,4 -2,10 -2,18l0 35 -20 0 0 -77 19 0 0 11c6,-9 15,-13 25,-13 5,0 9,1 13,2 4,2 7,4 8,7 2,2 4,5 5,8 0,4 1,8 1,14l0 48z"/>
    <path id="5" fill="black" fill-rule="nonzero" d="M3176 4180l0 16 -14 0 0 32c0,6 0,10 0,11 1,1 1,2 2,2 1,1 2,1 4,1 2,0 4,0 8,-2l2 16c-5,2 -10,3 -17,3 -3,0 -7,0 -10,-1 -2,-2 -5,-3 -6,-5 -1,-2 -2,-5 -3,-8 0,-3 -1,-8 -1,-15l0 -34 -9 0 0 -16 9 0 0 -16 21 -12 0 28 14 0z"/>
    <path id="6" fill="black" fill-rule="nonzero" d="M3210 4257l-20 0 0 -77 19 0 0 11c3,-6 6,-9 8,-11 3,-1 6,-2 9,-2 5,0 10,1 14,4l-6 18c-4,-2 -7,-4 -10,-4 -3,0 -5,1 -7,3 -2,1 -4,4 -5,8 -1,5 -2,13 -2,26l0 24z"/>
    <path id="7" fill="black" fill-rule="nonzero" d="M3244 4218c0,-7 2,-14 5,-20 3,-7 8,-12 14,-15 7,-3 13,-5 21,-5 12,0 21,4 29,11 8,8 11,18 11,29 0,12 -4,22 -11,30 -8,8 -17,11 -29,11 -7,0 -14,-1 -20,-4 -7,-4 -12,-8 -15,-15 -3,-6 -5,-13 -5,-22zm21 1c0,7 2,13 6,17 3,5 8,7 13,7 6,0 10,-2 14,-7 3,-4 5,-10 5,-17 0,-8 -2,-14 -5,-18 -4,-4 -8,-6 -14,-6 -5,0 -10,2 -13,6 -4,4 -6,10 -6,18z"/>
    <g>
     <path fill="black" fill-rule="nonzero" d="M1883 4667l18 1 -2 35 -18 0 2 -36zm12 -89l17 3 -3 15 -2 20 -18 -2 3 -20 3 -16zm22 -87l17 6 -3 8 -7 25 -17 -4 7 -26 3 -9zm36 -82l16 8 -7 12 -9 19 -16 -7 10 -20 6 -12zm52 -74l13 11 -2 2 -15 19 -4 6 -15 -10 5 -7 15 -19 3 -2zm66 -62l10 14 -2 2 -16 13 -8 7 -13 -13 9 -8 18 -14 2 -1zm78 -45l7 16 -8 3 -17 9 -6 3 -9 -15 6 -4 19 -9 8 -3zm85 -29l4 17 -2 1 -17 4 -14 4 -6 -17 15 -4 18 -4 2 -1zm90 -11l0 18 -6 0 -15 1 -13 1 -2 -18 13 -1 16 -1 7 0zm89 0l0 18 -6 0 -12 0 -12 0 -6 0 0 -18 6 0 12 0 12 0 6 0zm88 0l0 18 -3 0 -13 0 -13 0 -6 0 0 -18 6 0 13 0 13 0 3 0zm89 0l0 18 -7 0 -11 0 -12 0 -6 0 0 -18 6 0 12 0 11 0 7 0zm58 0l0 18 -1 0 -2 0 -2 0 0 -18 2 0 2 0 1 0zm19 16l-10 -15 0 15 -70 -45 10 -15 70 45 0 15zm0 0l0 -15 11 8 -11 7zm-75 38l-5 -7 70 -46 10 15 -70 46 -5 -8z"/>
    </g>
    <rect fill="none" stroke="black" stroke-width="17.7165" transform="matrix(-3.91112E-14 1.47676 1.47676 3.91112E-14 1373.32 4702.98)" width="375" height="350"/>
    <line fill="none" stroke="black" stroke-width="17.7165" x1="1373" y1="5257" x2="1890" y2= "4703" />
    <line fill="none" stroke="black" stroke-width="17.7165" x1="1890" y1="4703" x2="2282" y2= "4311" />
    <line fill="none" stroke="black" stroke-width="17.7165" x1="1996" y1="4494" x2="2099" y2= "4597" />
    <line fill="none" stroke="black" stroke-width="17.7165" x1="1632" y1="4630" x2="1632" y2= "4776" />
    <line fill="none" stroke="black" stroke-width="17.7165" x1="1963" y1="4980" x2="1817" y2= "4980" />
   </g>
   <path fill="black" fill-rule="nonzero" d="M1293 3317l55 -143 21 0 58 143 -21 0 -17 -44 -60 0 -16 44 -20 0zm42 -59l48 0 -15 -40c-4,-12 -8,-22 -10,-30 -2,10 -4,19 -8,28l-15 42z"/>
   <line fill="none" stroke="black" stroke-width="17.7165" x1="3614" y1="7554" x2="1464" y2= "6928" />
   <line fill="none" stroke="black" stroke-width="17.7165" x1="2306" y1="7554" x2="1929" y2= "6303" />
   <line fill="none" stroke="black" stroke-width="17.7165" x1="1214" y1="7150" x2="1330" y2= "7223" />
   <line fill="none" stroke="black" stroke-width="17.7165" x1="1629" y1="6592" x2="1745" y2= "6665" />
   <line fill="none" stroke="black" stroke-width="17.7165" x1="1751" y1="7622" x2="1751" y2= "7485" />
   <line fill="none" stroke="black" stroke-width="17.7165" x1="2838" y1="7622" x2="2838" y2= "7485" />
   <path fill="black" fill-rule="nonzero" d="M3320 5398l0 -143 54 0c11,0 20,2 26,5 7,2 12,7 16,13 4,6 5,12 5,19 0,6 -1,12 -5,17 -3,6 -8,10 -15,13 9,3 16,7 20,13 5,6 7,14 7,22 0,7 -1,13 -4,19 -3,5 -6,10 -10,13 -5,3 -10,5 -16,7 -6,2 -14,2 -23,2l-55 0zm19 -83l31 0c9,0 15,0 18,-1 5,-2 9,-4 11,-7 3,-4 4,-8 4,-13 0,-5 -1,-9 -4,-13 -2,-3 -5,-6 -9,-7 -5,-1 -12,-2 -22,-2l-29 0 0 43zm0 67l36 0c6,0 10,-1 13,-1 4,-1 8,-2 11,-4 3,-2 5,-4 7,-8 2,-3 3,-8 3,-12 0,-5 -2,-10 -4,-14 -3,-4 -7,-7 -12,-8 -5,-2 -12,-3 -21,-3l-33 0 0 50z"/>
   <path fill="black" fill-rule="nonzero" d="M1893 6231l0 -143 54 0c11,0 19,1 26,4 7,3 12,7 16,13 3,6 5,13 5,19 0,6 -2,12 -5,18 -3,5 -8,9 -15,13 9,2 16,6 20,13 5,6 7,13 7,21 0,7 -1,13 -4,19 -3,6 -6,10 -11,13 -4,3 -9,6 -15,7 -7,2 -14,3 -23,3l-55 0zm19 -83l31 0c8,0 14,-1 18,-2 5,-1 8,-4 11,-7 2,-3 4,-8 4,-13 0,-4 -2,-9 -4,-12 -2,-4 -5,-6 -10,-8 -4,-1 -11,-2 -21,-2l-29 0 0 44zm0 66l36 0c6,0 10,0 13,-1 4,0 8,-2 10,-4 3,-1 6,-4 8,-8 2,-3 3,-7 3,-12 0,-5 -2,-10 -5,-14 -2,-4 -6,-6 -11,-8 -5,-2 -12,-2 -21,-2l-33 0 0 49z"/>
   <path fill="black" fill-rule="nonzero" d="M1283 5351l19 4c-4,16 -11,28 -21,36 -10,8 -23,12 -38,12 -15,0 -28,-3 -37,-9 -10,-6 -17,-16 -22,-27 -5,-12 -8,-25 -8,-39 0,-15 3,-28 9,-39 5,-11 13,-19 24,-25 10,-6 22,-9 35,-9 14,0 26,4 36,11 9,7 16,18 20,31l-19 4c-3,-10 -8,-18 -14,-22 -6,-5 -14,-8 -24,-8 -11,0 -20,3 -27,8 -8,6 -13,13 -16,22 -3,8 -4,18 -4,27 0,12 1,23 5,32 3,9 9,16 16,20 8,5 16,7 25,7 10,0 19,-3 27,-9 7,-6 12,-15 14,-27z"/>
  </g>
 </g>
</svg>
