<?xml version="1.0" encoding="UTF-8"?>
<!DOCTYPE svg PUBLIC "-//W3C//DTD SVG 1.1//EN" "http://www.w3.org/Graphics/SVG/1.1/DTD/svg11.dtd">
<!-- Creator: CorelDRAW X8 -->
<svg xmlns="http://www.w3.org/2000/svg" xml:space="preserve" width="2343px" height="519px" version="1.1" shape-rendering="geometricPrecision" text-rendering="geometricPrecision" image-rendering="optimizeQuality" fill-rule="evenodd" clip-rule="evenodd"
viewBox="0 0 2343 519"
 xmlns:xlink="http://www.w3.org/1999/xlink">
 <g id="Capa_x0020_1">
  <metadata id="CorelCorpID_0Corel-Layer"/>
  <rect fill="white" width="2343" height="519"/>
  <path fill="black" fill-rule="nonzero" d="M977 310l27 -4c3,15 8,26 15,33 7,6 16,10 27,10 12,0 23,-5 31,-13 9,-9 13,-20 13,-32 0,-12 -4,-22 -12,-30 -8,-8 -18,-12 -30,-12 -5,0 -11,1 -19,3l3 -23c2,0 3,0 4,0 12,0 22,-3 31,-9 9,-6 13,-15 13,-27 0,-9 -3,-17 -9,-24 -7,-6 -15,-9 -26,-9 -10,0 -19,3 -25,10 -7,6 -12,16 -14,29l-26 -5c3,-18 10,-31 22,-41 11,-10 26,-15 43,-15 11,0 22,3 32,8 10,5 17,12 23,20 5,9 7,18 7,28 0,9 -2,18 -7,25 -5,8 -12,14 -22,18 13,3 22,9 29,19 7,9 11,20 11,34 0,19 -7,35 -21,48 -13,13 -31,19 -51,19 -19,0 -35,-5 -47,-16 -13,-12 -20,-26 -22,-44z"/>
  <polygon id="1" fill="black" fill-rule="nonzero" points="1131,370 1194,148 1215,148 1153,370 "/>
  <path id="2" fill="black" fill-rule="nonzero" d="M1366 342l0 25 -142 0c-1,-6 0,-13 3,-18 3,-10 9,-20 17,-29 8,-9 20,-20 35,-32 23,-20 39,-35 47,-46 8,-11 12,-22 12,-32 0,-10 -3,-19 -11,-26 -7,-7 -17,-11 -29,-11 -13,0 -23,4 -31,11 -7,8 -11,19 -11,32l-27 -3c1,-20 9,-35 21,-46 12,-11 28,-16 48,-16 21,0 37,6 49,17 12,12 18,26 18,43 0,8 -1,17 -5,25 -3,9 -9,17 -17,27 -9,9 -22,21 -41,37 -16,14 -26,23 -31,27 -4,5 -8,10 -11,15l106 0z"/>
 </g>
</svg>
