<?xml version="1.0" encoding="UTF-8"?>
<!DOCTYPE svg PUBLIC "-//W3C//DTD SVG 1.1//EN" "http://www.w3.org/Graphics/SVG/1.1/DTD/svg11.dtd">
<!-- Creator: CorelDRAW X8 -->
<svg xmlns="http://www.w3.org/2000/svg" xml:space="preserve" width="2343px" height="519px" version="1.1" shape-rendering="geometricPrecision" text-rendering="geometricPrecision" image-rendering="optimizeQuality" fill-rule="evenodd" clip-rule="evenodd"
viewBox="0 0 2343 519"
 xmlns:xlink="http://www.w3.org/1999/xlink">
 <g id="Capa_x0020_1">
  <metadata id="CorelCorpID_0Corel-Layer"/>
  <rect fill="white" width="2343" height="519"/>
  <g id="_2426774982928">
   <path fill="black" fill-rule="nonzero" d="M1114 309l27 -3c3,15 8,25 15,32 7,7 16,10 27,10 12,0 23,-4 31,-13 9,-9 13,-19 13,-32 0,-12 -4,-22 -12,-30 -8,-8 -18,-12 -30,-12 -5,0 -11,1 -19,3l3 -23c2,0 3,0 4,0 12,0 22,-3 31,-8 9,-6 13,-15 13,-27 0,-10 -3,-18 -9,-24 -7,-7 -15,-10 -26,-10 -10,0 -19,3 -26,10 -6,6 -11,16 -13,29l-26 -5c3,-17 10,-31 22,-41 11,-10 26,-15 43,-15 11,0 22,3 32,8 10,5 17,12 23,20 5,9 7,18 7,28 0,9 -2,18 -7,25 -5,8 -12,14 -22,19 12,2 22,9 29,18 7,9 11,21 11,34 0,19 -7,35 -21,48 -13,13 -31,20 -52,20 -18,0 -34,-6 -46,-17 -13,-11 -20,-26 -22,-44z"/>
   <polyline fill="none" stroke="black" stroke-width="23.6221" points="950,220 1020,353 1048,87 1318,87 "/>
  </g>
 </g>
</svg>
