<?xml version="1.0" encoding="UTF-8"?>
<!DOCTYPE svg PUBLIC "-//W3C//DTD SVG 1.1//EN" "http://www.w3.org/Graphics/SVG/1.1/DTD/svg11.dtd">
<!-- Creator: CorelDRAW X8 -->
<svg xmlns="http://www.w3.org/2000/svg" xml:space="preserve" width="5053px" height="2201px" version="1.1" shape-rendering="geometricPrecision" text-rendering="geometricPrecision" image-rendering="optimizeQuality" fill-rule="evenodd" clip-rule="evenodd"
viewBox="0 0 5053 2201"
 xmlns:xlink="http://www.w3.org/1999/xlink">
 <g id="Capa_x0020_1">
  <metadata id="CorelCorpID_0Corel-Layer"/>
  <rect fill="white" width="5053" height="2201"/>
  <g id="_2426772390128">
   <path fill="black" fill-rule="nonzero" d="M552 543l0 -215 81 0c14,0 25,1 33,2 10,2 19,5 26,10 8,5 13,12 18,21 4,9 6,19 6,29 0,18 -6,34 -17,46 -12,13 -33,19 -63,19l-55 0 0 88 -29 0zm29 -113l55 0c19,0 32,-3 39,-10 8,-7 12,-17 12,-29 0,-9 -2,-17 -7,-23 -5,-6 -11,-11 -18,-13 -5,-1 -14,-2 -26,-2l-55 0 0 77z"/>
   <path id="1" fill="black" fill-rule="nonzero" d="M799 606c-14,-18 -26,-40 -37,-64 -10,-25 -15,-51 -15,-77 0,-23 4,-45 12,-67 8,-24 22,-49 40,-73l19 0c-12,20 -19,34 -23,43 -6,14 -11,28 -14,42 -4,18 -7,37 -7,55 0,47 15,94 44,141l-19 0z"/>
   <path id="2" fill="black" fill-rule="nonzero" d="M831 543l57 -81 -53 -75 32 0 25 37c5,7 8,13 11,17 4,-6 8,-12 12,-17l26 -37 32 0 -53 75 56 81 -32 0 -32 -48 -7 -12 -42 60 -32 0z"/>
   <path id="3" fill="black" fill-rule="nonzero" d="M1016 606l-19 0c30,-47 44,-94 44,-141 0,-18 -2,-36 -6,-54 -3,-15 -8,-29 -14,-43 -4,-8 -12,-23 -24,-43l19 0c19,24 32,49 41,73 7,22 11,44 11,67 0,26 -5,52 -15,77 -10,24 -22,46 -37,64z"/>
   <path id="4" fill="black" fill-rule="nonzero" d="M1321 417l-142 0 0 -25 142 0 0 25zm0 65l-142 0 0 -25 142 0 0 25z"/>
   <path id="5" fill="black" fill-rule="nonzero" d="M1423 543l56 -81 -52 -75 32 0 25 37c4,7 8,13 11,17 4,-6 8,-12 12,-17l25 -37 33 0 -53 75 56 81 -32 0 -32 -48 -8 -12 -41 60 -32 0z"/>
   <polygon id="6" fill="black" fill-rule="nonzero" points="1813,508 1813,449 1754,449 1754,425 1813,425 1813,366 1838,366 1838,425 1896,425 1896,449 1838,449 1838,508 "/>
   <path id="7" fill="black" fill-rule="nonzero" d="M2147 518l0 25 -142 0c0,-6 1,-12 3,-18 4,-10 9,-20 17,-29 8,-9 20,-20 35,-32 23,-19 39,-35 47,-46 9,-11 13,-22 13,-32 0,-10 -4,-19 -12,-26 -7,-7 -17,-11 -29,-11 -13,0 -23,4 -31,12 -7,7 -11,18 -11,31l-27 -3c2,-20 9,-35 21,-46 12,-10 28,-16 49,-16 20,0 37,6 49,17 12,12 18,26 18,43 0,9 -2,17 -6,25 -3,9 -9,17 -17,27 -8,9 -22,21 -41,37 -16,14 -26,23 -30,27 -5,5 -8,10 -11,15l105 0z"/>
   <path id="8" fill="black" fill-rule="nonzero" d="M2165 543l57 -81 -53 -75 32 0 25 37c5,7 8,13 11,17 4,-6 8,-12 12,-17l26 -37 32 0 -53 75 56 81 -32 0 -32 -48 -7 -12 -42 60 -32 0z"/>
   <polygon id="9" fill="black" fill-rule="nonzero" points="2406,478 2406,452 2487,452 2487,478 "/>
   <path id="10" fill="black" fill-rule="nonzero" d="M2599 543l0 -156 24 0 0 22c11,-17 28,-25 50,-25 9,0 18,2 25,5 8,3 14,8 18,13 4,6 7,12 8,20 1,5 2,13 2,25l0 96 -27 0 0 -95c0,-10 -1,-18 -3,-24 -2,-5 -5,-9 -11,-12 -5,-4 -11,-5 -18,-5 -11,0 -21,3 -29,10 -8,8 -12,21 -12,41l0 85 -27 0z"/>
   <path id="11" fill="black" fill-rule="nonzero" d="M715 1190c13,9 25,16 36,20l-8 20c-16,-6 -31,-14 -46,-26 -16,8 -34,13 -53,13 -19,0 -37,-5 -53,-14 -16,-10 -28,-23 -36,-40 -9,-17 -13,-36 -13,-57 0,-21 4,-40 13,-58 8,-17 21,-30 36,-40 16,-9 34,-13 54,-13 19,0 37,5 53,14 16,9 28,23 37,40 8,16 12,36 12,57 0,17 -3,33 -8,47 -5,15 -13,27 -24,37zm-63 -36c17,5 30,11 41,20 16,-15 25,-38 25,-68 0,-17 -3,-33 -9,-46 -6,-13 -15,-23 -26,-30 -11,-7 -24,-11 -38,-11 -21,0 -39,8 -53,22 -14,15 -21,36 -21,65 0,28 7,49 21,64 14,15 31,23 53,23 10,0 19,-2 28,-6 -8,-6 -18,-10 -28,-12l7 -21z"/>
   <path id="12" fill="black" fill-rule="nonzero" d="M833 1276c-15,-18 -27,-40 -37,-64 -10,-25 -15,-50 -15,-77 0,-23 3,-45 11,-66 9,-25 22,-50 41,-74l18 0c-11,20 -19,35 -23,43 -6,14 -11,28 -14,43 -4,18 -6,36 -6,55 0,47 14,93 43,140l-18 0z"/>
   <path id="13" fill="black" fill-rule="nonzero" d="M864 1213l57 -80 -53 -75 33 0 24 36c5,7 8,13 11,17 4,-6 8,-12 12,-17l26 -36 32 0 -53 75 57 80 -33 0 -32 -48 -7 -11 -42 59 -32 0z"/>
   <path id="14" fill="black" fill-rule="nonzero" d="M1049 1276l-18 0c29,-47 43,-93 43,-140 0,-19 -2,-37 -6,-55 -3,-15 -8,-29 -14,-42 -4,-9 -12,-24 -23,-44l18 0c19,24 32,49 41,74 8,21 11,43 11,66 0,27 -5,52 -15,77 -10,24 -22,46 -37,64z"/>
   <path id="15" fill="black" fill-rule="nonzero" d="M1354 1087l-142 0 0 -25 142 0 0 25zm0 65l-142 0 0 -25 142 0 0 25z"/>
   <path id="16" fill="black" fill-rule="nonzero" d="M1456 1213l57 -80 -53 -75 33 0 24 36c5,7 8,13 11,17 4,-6 8,-12 12,-17l26 -36 32 0 -53 75 56 80 -32 0 -32 -48 -7 -11 -42 59 -32 0z"/>
   <polygon id="17" fill="black" fill-rule="nonzero" points="1780,1149 1780,1122 1862,1122 1862,1149 "/>
   <path id="18" fill="black" fill-rule="nonzero" d="M2051 1213l0 -51 -93 0 0 -24 98 -140 21 0 0 140 29 0 0 24 -29 0 0 51 -26 0zm0 -75l0 -97 -67 97 67 0z"/>
   <path id="19" fill="black" fill-rule="nonzero" d="M2123 1213l57 -80 -53 -75 32 0 25 36c5,7 8,13 11,17 4,-6 8,-12 12,-17l25 -36 33 0 -53 75 56 80 -32 0 -32 -48 -7 -11 -42 59 -32 0z"/>
   <polygon id="20" fill="black" fill-rule="nonzero" points="2430,1178 2430,1120 2371,1120 2371,1095 2430,1095 2430,1037 2454,1037 2454,1095 2513,1095 2513,1120 2454,1120 2454,1178 "/>
   <path id="21" fill="black" fill-rule="nonzero" d="M2633 1213l0 -155 23 0 0 22c12,-17 28,-26 50,-26 9,0 18,2 26,5 7,4 13,8 17,14 4,5 7,12 8,19 1,5 2,13 2,26l0 95 -26 0 0 -94c0,-11 -1,-19 -4,-24 -2,-6 -5,-10 -10,-13 -6,-3 -12,-5 -19,-5 -11,0 -21,4 -29,11 -8,7 -12,20 -12,40l0 85 -26 0z"/>
   <path id="22" fill="black" fill-rule="nonzero" d="M543 1815l27 -3c1,11 4,20 8,27 5,7 12,12 22,17 10,4 21,6 33,6 11,0 20,-2 29,-5 8,-3 14,-8 18,-13 4,-6 6,-12 6,-19 0,-6 -2,-12 -6,-17 -4,-5 -10,-9 -19,-13 -6,-2 -18,-6 -38,-10 -20,-5 -34,-10 -42,-14 -10,-5 -18,-12 -23,-20 -5,-8 -7,-17 -7,-27 0,-10 3,-21 9,-30 6,-9 15,-17 27,-21 12,-5 25,-8 40,-8 15,0 29,3 42,8 12,5 21,13 28,23 6,9 10,21 10,33l-27 2c-2,-13 -6,-23 -15,-30 -8,-7 -21,-11 -37,-11 -18,0 -30,4 -38,10 -8,6 -12,14 -12,23 0,7 3,14 9,19 5,5 19,10 42,15 24,5 39,10 48,14 12,5 22,13 28,22 6,8 9,18 9,30 0,11 -4,22 -10,32 -7,10 -16,18 -28,24 -13,5 -26,8 -42,8 -19,0 -35,-3 -49,-8 -13,-6 -23,-14 -30,-26 -8,-11 -12,-24 -12,-38z"/>
   <path id="23" fill="black" fill-rule="nonzero" d="M749 1699l0 -30 26 0 0 30 -26 0zm0 185l0 -156 26 0 0 156 -26 0z"/>
   <path id="24" fill="black" fill-rule="nonzero" d="M902 1884l0 -215 42 0 51 152c5,14 8,25 10,32 3,-8 7,-20 12,-35l51 -149 39 0 0 215 -28 0 0 -180 -62 180 -26 0 -62 -183 0 183 -27 0z"/>
   <path id="25" fill="black" fill-rule="nonzero" d="M1305 1808l29 7c-6,24 -17,42 -32,54 -16,12 -35,18 -57,18 -23,0 -42,-5 -57,-14 -14,-9 -25,-23 -33,-41 -7,-18 -11,-37 -11,-57 0,-23 4,-42 13,-59 8,-17 21,-29 36,-38 16,-9 33,-13 52,-13 22,0 40,6 54,17 15,11 25,26 31,46l-28 6c-5,-15 -12,-27 -22,-34 -9,-7 -21,-11 -35,-11 -17,0 -30,4 -42,12 -11,8 -18,19 -23,32 -4,14 -7,27 -7,41 0,19 3,35 8,48 6,14 14,24 25,31 11,7 23,10 36,10 16,0 30,-5 41,-14 11,-9 18,-23 22,-41z"/>
   <path id="26" fill="black" fill-rule="nonzero" d="M1368 1884l0 -215 43 0 51 152c4,14 8,25 10,32 2,-8 6,-20 11,-35l52 -149 38 0 0 215 -27 0 0 -180 -63 180 -26 0 -62 -183 0 183 -27 0z"/>
   <path id="27" fill="black" fill-rule="nonzero" d="M1666 1947c-15,-19 -27,-40 -37,-65 -10,-24 -15,-50 -15,-76 0,-24 4,-46 11,-67 9,-25 22,-49 41,-74l19 0c-12,20 -20,35 -24,44 -6,13 -10,27 -14,42 -4,18 -6,36 -6,55 0,47 14,94 44,141l-19 0z"/>
   <path id="28" fill="black" fill-rule="nonzero" d="M1719 1884l0 -215 81 0c14,0 25,0 32,2 11,2 20,5 27,10 7,5 13,12 17,21 5,8 7,18 7,29 0,18 -6,33 -18,46 -11,13 -32,19 -63,19l-55 0 0 88 -28 0zm28 -113l56 0c18,0 31,-4 39,-10 7,-7 11,-17 11,-29 0,-9 -2,-17 -7,-23 -4,-7 -10,-11 -17,-13 -5,-1 -14,-2 -27,-2l-55 0 0 77z"/>
   <path id="29" fill="black" fill-rule="nonzero" d="M1884 1884l0 -30 30 0 0 30c0,11 -2,20 -6,26 -4,7 -10,12 -19,16l-7 -11c5,-3 10,-6 12,-11 3,-5 4,-12 5,-20l-15 0z"/>
   <path id="30" fill="black" fill-rule="nonzero" d="M2209 1861c14,9 26,15 37,19l-9 20c-15,-5 -30,-14 -46,-26 -16,9 -33,13 -52,13 -20,0 -37,-5 -53,-14 -16,-9 -28,-22 -37,-39 -8,-17 -12,-36 -12,-58 0,-21 4,-40 12,-58 9,-17 21,-30 37,-39 16,-9 34,-14 53,-14 20,0 38,5 54,14 16,10 28,23 36,40 9,17 13,36 13,57 0,18 -3,34 -8,48 -6,14 -14,26 -25,37zm-62 -37c16,5 30,12 40,21 17,-15 25,-38 25,-69 0,-17 -3,-32 -9,-45 -5,-13 -14,-23 -25,-30 -12,-8 -24,-11 -39,-11 -21,0 -38,7 -52,21 -14,15 -21,37 -21,65 0,28 7,50 21,65 13,14 31,22 52,22 11,0 20,-2 29,-6 -9,-6 -18,-10 -28,-12l7 -21z"/>
   <path id="31" fill="black" fill-rule="nonzero" d="M2294 1947l-19 0c29,-47 44,-94 44,-141 0,-18 -2,-37 -6,-55 -4,-14 -8,-28 -14,-42 -4,-9 -12,-23 -24,-44l19 0c18,25 32,49 41,74 7,21 11,43 11,67 0,26 -5,52 -15,76 -10,25 -22,46 -37,65z"/>
   <path id="32" fill="black" fill-rule="nonzero" d="M2599 1757l-142 0 0 -24 142 0 0 24zm0 65l-142 0 0 -24 142 0 0 24z"/>
   <path id="33" fill="black" fill-rule="nonzero" d="M2701 1884l56 -81 -52 -75 32 0 25 37c4,7 8,12 11,17 4,-7 8,-12 11,-17l26 -37 33 0 -53 75 56 81 -32 0 -32 -48 -8 -12 -41 60 -32 0z"/>
   <polygon id="34" fill="black" fill-rule="nonzero" points="3025,1819 3025,1793 3106,1793 3106,1819 "/>
   <path id="35" fill="black" fill-rule="nonzero" d="M3201 1884l56 -81 -52 -75 32 0 25 37c4,7 8,12 11,17 4,-7 8,-12 11,-17l26 -37 33 0 -53 75 56 81 -32 0 -32 -48 -8 -12 -41 60 -32 0z"/>
   <polygon id="36" fill="black" fill-rule="nonzero" points="3525,1819 3525,1793 3606,1793 3606,1819 "/>
   <path id="37" fill="black" fill-rule="nonzero" d="M3715 1834l25 -2c3,12 7,20 13,26 6,5 14,8 23,8 8,0 15,-2 21,-6 7,-4 12,-9 15,-15 4,-6 7,-15 10,-25 3,-11 4,-21 4,-32 0,-1 0,-3 0,-6 -5,9 -13,16 -22,21 -9,5 -19,8 -29,8 -18,0 -33,-7 -45,-20 -13,-13 -19,-30 -19,-51 0,-21 7,-39 20,-52 12,-13 28,-20 48,-20 14,0 26,4 38,11 12,8 20,18 26,32 6,14 9,34 9,61 0,27 -3,49 -9,65 -6,17 -14,29 -26,37 -12,9 -26,13 -41,13 -17,0 -31,-4 -42,-14 -10,-9 -17,-22 -19,-39zm108 -95c0,-15 -4,-27 -12,-36 -8,-9 -18,-13 -29,-13 -12,0 -22,5 -31,14 -8,10 -13,22 -13,37 0,14 4,25 13,33 8,9 18,13 30,13 12,0 22,-4 30,-13 8,-8 12,-20 12,-35z"/>
   <path id="38" fill="black" fill-rule="nonzero" d="M3867 1884l57 -81 -52 -75 32 0 25 37c4,7 8,12 10,17 5,-7 9,-12 12,-17l26 -37 32 0 -53 75 57 81 -32 0 -32 -48 -8 -12 -41 60 -33 0z"/>
   <polygon id="39" fill="black" fill-rule="nonzero" points="4174,1849 4174,1790 4116,1790 4116,1765 4174,1765 4174,1707 4199,1707 4199,1765 4258,1765 4258,1790 4199,1790 4199,1849 "/>
   <path id="40" fill="black" fill-rule="nonzero" d="M4374 1834l25 -2c2,12 6,20 12,26 7,5 14,8 24,8 8,0 15,-2 21,-6 6,-4 11,-9 15,-15 4,-6 7,-15 10,-25 3,-11 4,-21 4,-32 0,-1 0,-3 0,-6 -6,9 -13,16 -22,21 -9,5 -19,8 -29,8 -18,0 -33,-7 -46,-20 -12,-13 -18,-30 -18,-51 0,-21 6,-39 19,-52 13,-13 29,-20 49,-20 13,0 26,4 38,11 11,8 20,18 26,32 6,14 9,34 9,61 0,27 -3,49 -9,65 -6,17 -15,29 -26,37 -12,9 -26,13 -42,13 -17,0 -30,-4 -41,-14 -10,-9 -17,-22 -19,-39zm108 -95c0,-15 -4,-27 -12,-36 -8,-9 -18,-13 -29,-13 -12,0 -22,5 -31,14 -9,10 -13,22 -13,37 0,14 4,25 12,33 9,9 19,13 31,13 12,0 22,-4 30,-13 8,-8 12,-20 12,-35z"/>
   <path fill="black" fill-rule="nonzero" d="M1678 343l0 19 -73 0c1,-7 3,-14 7,-20 4,-7 12,-15 24,-26 9,-9 14,-14 17,-18 2,-4 4,-8 4,-12 0,-5 -1,-8 -4,-11 -2,-2 -6,-3 -10,-3 -4,0 -8,1 -10,3 -3,3 -4,7 -5,13l-20 -2c1,-11 5,-19 11,-24 7,-5 15,-8 24,-8 11,0 19,3 25,9 6,6 10,13 10,21 0,5 -1,10 -3,14 -2,5 -5,9 -8,14 -3,3 -7,8 -14,14 -6,6 -10,10 -12,12 -2,2 -3,4 -4,5l41 0z"/>
   <path fill="black" fill-rule="nonzero" d="M3460 1710l0 19 -72 0c0,-7 3,-14 7,-21 4,-6 11,-15 23,-25 9,-9 15,-15 17,-18 3,-4 4,-8 4,-13 0,-4 -1,-8 -4,-10 -2,-3 -5,-4 -10,-4 -4,0 -7,1 -10,4 -3,3 -4,7 -4,13l-21 -2c1,-11 5,-20 12,-25 6,-4 14,-7 24,-7 10,0 19,3 25,9 6,5 9,12 9,21 0,5 -1,9 -3,14 -2,4 -4,9 -8,14 -3,3 -7,7 -14,13 -6,6 -10,10 -12,12 -2,2 -3,4 -4,6l41 0z"/>
   <path fill="black" fill-rule="nonzero" d="M1695 1012l0 19 -72 0c1,-7 3,-14 7,-20 4,-7 11,-15 23,-26 9,-9 15,-14 17,-18 3,-4 4,-8 4,-12 0,-5 -1,-8 -3,-11 -3,-2 -6,-3 -11,-3 -4,0 -7,1 -10,3 -2,3 -4,7 -4,13l-21 -2c1,-11 5,-19 12,-24 6,-5 14,-8 24,-8 10,0 19,3 25,9 6,6 9,13 9,21 0,5 -1,10 -3,14 -1,5 -4,9 -8,14 -2,3 -7,8 -13,14 -7,6 -11,10 -13,12 -2,2 -3,4 -4,5l41 0z"/>
   <path fill="black" fill-rule="nonzero" d="M2879 1701l20 -3c0,5 2,9 5,12 3,3 6,4 10,4 4,0 8,-2 11,-5 2,-3 4,-8 4,-13 0,-5 -2,-9 -4,-12 -3,-3 -6,-5 -10,-5 -3,0 -6,1 -10,2l2 -17c6,0 10,-1 13,-4 3,-2 4,-6 4,-10 0,-4 -1,-6 -3,-9 -2,-2 -5,-3 -8,-3 -4,0 -7,1 -9,4 -3,2 -4,6 -5,11l-19 -4c2,-6 4,-11 6,-15 3,-4 7,-7 11,-10 5,-2 10,-3 16,-3 10,0 19,3 25,10 5,5 7,11 7,18 0,9 -5,17 -15,22 6,2 11,5 14,9 4,5 6,10 6,17 0,9 -3,17 -10,24 -7,7 -16,10 -26,10 -10,0 -18,-3 -24,-8 -7,-6 -10,-13 -11,-22z"/>
  </g>
 </g>
</svg>
