<?xml version="1.0" encoding="UTF-8"?>
<!DOCTYPE svg PUBLIC "-//W3C//DTD SVG 1.1//EN" "http://www.w3.org/Graphics/SVG/1.1/DTD/svg11.dtd">
<!-- Creator: CorelDRAW X8 -->
<svg xmlns="http://www.w3.org/2000/svg" xml:space="preserve" width="6129px" height="1330px" version="1.1" shape-rendering="geometricPrecision" text-rendering="geometricPrecision" image-rendering="optimizeQuality" fill-rule="evenodd" clip-rule="evenodd"
viewBox="0 0 6129 1330"
 xmlns:xlink="http://www.w3.org/1999/xlink">
 <g id="Capa_x0020_1">
  <metadata id="CorelCorpID_0Corel-Layer"/>
  <rect fill="white" width="6129" height="1330"/>
  <g id="_2426678797584">
   <path fill="black" fill-rule="nonzero" d="M1618 530l0 25 -142 0c0,-7 1,-13 3,-19 4,-9 10,-19 18,-28 8,-10 19,-20 34,-33 23,-19 39,-34 47,-45 9,-11 13,-22 13,-32 0,-10 -4,-19 -11,-26 -8,-7 -18,-11 -30,-11 -13,0 -23,4 -30,11 -8,8 -12,18 -12,32l-27 -3c2,-20 9,-35 21,-46 12,-11 28,-16 49,-16 20,0 37,6 49,17 12,12 18,26 18,43 0,8 -2,17 -5,25 -4,8 -10,17 -18,26 -8,10 -22,22 -41,38 -15,13 -26,22 -30,27 -5,5 -8,10 -11,15l105 0z"/>
   <path fill="black" fill-rule="nonzero" d="M3251 498l27 -4c3,15 8,26 15,33 7,6 16,9 27,9 12,0 23,-4 31,-12 9,-9 13,-20 13,-32 0,-13 -4,-23 -12,-30 -8,-8 -18,-12 -30,-12 -5,0 -11,1 -19,3l3 -23c2,0 4,0 5,0 11,0 21,-3 30,-9 9,-6 14,-15 14,-27 0,-10 -4,-18 -10,-24 -7,-6 -15,-9 -26,-9 -10,0 -18,3 -25,9 -7,7 -12,17 -13,30l-27 -5c3,-18 11,-32 22,-41 12,-10 26,-15 43,-15 11,0 22,3 32,8 10,5 18,11 23,20 5,9 8,18 8,28 0,9 -3,17 -8,25 -5,8 -12,14 -22,18 13,3 23,9 30,18 7,10 10,21 10,35 0,19 -7,35 -20,48 -14,13 -31,19 -52,19 -19,0 -35,-5 -47,-17 -13,-11 -20,-25 -22,-43z"/>
   <path fill="black" fill-rule="nonzero" d="M545 758l82 -215 31 0 88 215 -33 0 -25 -65 -90 0 -23 65 -30 0zm61 -88l74 0 -23 -60c-7,-18 -12,-33 -15,-45 -3,14 -7,28 -12,42l-24 63z"/>
   <path id="1" fill="black" fill-rule="nonzero" d="M970 632l-141 0 0 -25 141 0 0 25zm0 65l-141 0 0 -25 141 0 0 25z"/>
   <path fill="black" fill-rule="nonzero" d="M2321 758l0 -215 80 0c17,0 30,2 40,7 10,4 17,11 23,20 6,9 8,18 8,28 0,9 -2,18 -7,26 -5,8 -12,15 -22,20 13,3 23,10 29,19 7,9 11,20 11,33 0,10 -2,19 -6,28 -5,8 -10,15 -16,20 -6,4 -14,8 -24,10 -9,3 -21,4 -34,4l-82 0zm28 -125l47 0c12,0 21,0 27,-2 7,-2 12,-6 16,-11 4,-5 6,-11 6,-19 0,-7 -2,-13 -6,-18 -3,-6 -8,-10 -14,-12 -7,-2 -17,-3 -33,-3l-43 0 0 65zm0 100l54 0c9,0 15,-1 19,-1 7,-1 12,-3 16,-6 5,-3 8,-7 11,-12 3,-5 5,-11 5,-18 0,-8 -2,-15 -7,-21 -4,-6 -9,-10 -17,-13 -7,-2 -17,-3 -31,-3l-50 0 0 74z"/>
   <path id="1" fill="black" fill-rule="nonzero" d="M2741 632l-142 0 0 -25 142 0 0 25zm0 65l-142 0 0 -25 142 0 0 25z"/>
   <path fill="black" fill-rule="nonzero" d="M4237 683l29 7c-6,23 -17,41 -32,53 -16,12 -35,19 -57,19 -23,0 -42,-5 -56,-15 -15,-9 -26,-23 -33,-40 -8,-18 -12,-38 -12,-58 0,-22 4,-42 13,-59 9,-16 21,-29 36,-37 16,-9 34,-13 52,-13 22,0 40,5 55,16 14,11 24,26 30,46l-28 7c-5,-16 -12,-27 -21,-34 -10,-8 -22,-11 -36,-11 -16,0 -30,4 -41,12 -11,8 -19,18 -24,32 -4,13 -6,27 -6,41 0,18 2,34 8,48 5,13 13,23 24,30 12,7 24,10 37,10 16,0 29,-4 40,-13 11,-10 18,-23 22,-41z"/>
   <path id="1" fill="black" fill-rule="nonzero" d="M4520 632l-142 0 0 -25 142 0 0 25zm0 65l-142 0 0 -25 142 0 0 25z"/>
   <path fill="black" fill-rule="nonzero" d="M2045 644l0 -30 30 0 0 30c0,11 -2,20 -6,27 -4,7 -10,12 -19,16l-7 -12c6,-2 10,-6 12,-10 3,-5 4,-12 5,-21l-15 0z"/>
   <path fill="black" fill-rule="nonzero" d="M3816 644l0 -30 30 0 0 30c0,11 -2,20 -6,27 -4,7 -10,12 -19,16l-7 -12c6,-2 10,-6 13,-10 2,-5 4,-12 4,-21l-15 0z"/>
   <path fill="black" fill-rule="nonzero" d="M1216 937l25 -2c3,12 7,20 13,26 6,5 14,8 23,8 8,0 15,-2 21,-6 7,-4 12,-8 15,-15 4,-6 7,-14 10,-25 3,-10 4,-21 4,-32 0,-1 0,-3 0,-5 -5,8 -13,15 -22,20 -9,5 -19,8 -29,8 -18,0 -33,-7 -45,-19 -13,-13 -19,-30 -19,-51 0,-22 7,-40 20,-53 12,-13 28,-20 48,-20 14,0 26,4 38,11 12,8 20,19 26,33 6,13 9,34 9,60 0,27 -3,49 -9,65 -6,17 -14,29 -26,38 -12,8 -26,12 -41,12 -17,0 -31,-4 -42,-14 -10,-9 -17,-22 -19,-39zm108 -95c0,-15 -4,-27 -12,-36 -8,-9 -18,-13 -29,-13 -12,0 -22,5 -31,14 -8,10 -13,22 -13,37 0,14 4,25 13,34 8,8 18,12 30,12 12,0 22,-4 30,-12 8,-9 12,-21 12,-36z"/>
   <polygon id="1" fill="black" fill-rule="nonzero" points="1525,952 1525,893 1467,893 1467,869 1525,869 1525,810 1550,810 1550,869 1609,869 1609,893 1550,893 1550,952 "/>
   <path id="2" fill="black" fill-rule="nonzero" d="M1859 962l0 25 -142 0c0,-7 1,-13 3,-19 4,-9 10,-19 18,-28 8,-9 19,-20 34,-33 24,-19 39,-34 48,-45 8,-11 12,-22 12,-32 0,-10 -4,-19 -11,-26 -8,-7 -17,-11 -30,-11 -12,0 -22,4 -30,11 -8,8 -12,18 -12,32l-27 -3c2,-20 9,-35 21,-46 12,-11 29,-16 49,-16 21,0 37,6 49,17 12,12 18,26 18,43 0,8 -2,17 -5,25 -4,8 -10,17 -18,26 -8,10 -21,22 -40,38 -16,14 -26,23 -31,27 -4,5 -8,10 -11,15l105 0z"/>
   <path fill="black" fill-rule="nonzero" d="M2990 930l27 -2c2,14 7,24 14,31 8,6 17,10 28,10 12,0 23,-5 32,-15 9,-9 13,-22 13,-38 0,-15 -4,-27 -13,-35 -8,-9 -19,-13 -33,-13 -8,0 -16,2 -23,6 -6,3 -12,8 -16,15l-25 -4 21 -110 107 0 0 25 -86 0 -11 58c13,-9 26,-14 40,-14 19,0 35,7 48,20 12,13 19,29 19,50 0,19 -6,36 -17,50 -14,18 -33,26 -56,26 -20,0 -36,-5 -48,-16 -13,-11 -20,-26 -21,-44z"/>
   <polygon id="1" fill="black" fill-rule="nonzero" points="3237,922 3237,896 3318,896 3318,922 "/>
   <path id="2" fill="black" fill-rule="nonzero" d="M3728 962l0 25 -142 0c0,-7 1,-13 3,-19 4,-9 10,-19 18,-28 8,-9 19,-20 34,-33 23,-19 39,-34 47,-45 9,-11 13,-22 13,-32 0,-10 -4,-19 -11,-26 -8,-7 -18,-11 -30,-11 -13,0 -23,4 -30,11 -8,8 -12,18 -12,32l-27 -3c2,-20 9,-35 21,-46 12,-11 28,-16 49,-16 20,0 37,6 49,17 12,12 18,26 18,43 0,8 -2,17 -5,25 -4,8 -10,17 -18,26 -8,10 -22,22 -41,38 -15,14 -26,23 -30,27 -5,5 -8,10 -11,15l105 0z"/>
   <line fill="none" stroke="black" stroke-width="23.6221" x1="1079" y1="651" x2="1998" y2= "651" />
   <line fill="none" stroke="black" stroke-width="23.6221" x1="2851" y1="651" x2="3770" y2= "651" />
   <g>
    <path fill="black" fill-rule="nonzero" d="M1072 818l16 -2c0,4 2,7 4,9 2,2 4,3 8,3 3,0 6,-1 8,-4 2,-2 3,-6 3,-10 0,-4 -1,-7 -3,-9 -2,-3 -5,-4 -8,-4 -2,0 -4,0 -7,1l2 -13c4,0 7,-1 9,-3 3,-2 4,-4 4,-8 0,-2 -1,-5 -3,-6 -1,-2 -4,-3 -6,-3 -3,0 -5,1 -7,3 -2,2 -4,5 -4,8l-15 -2c1,-5 3,-9 5,-12 2,-3 5,-6 9,-7 3,-2 8,-3 12,-3 8,0 14,2 19,7 4,5 6,9 6,14 0,8 -4,14 -12,18 5,1 8,3 11,7 3,4 5,8 5,13 0,7 -3,13 -8,19 -6,5 -12,7 -20,7 -8,0 -14,-2 -19,-6 -5,-4 -8,-10 -9,-17z"/>
    <polyline fill="none" stroke="black" stroke-width="23.6221" points="1065,858 1134,991 1162,724 1407,724 "/>
   </g>
   <g>
    <path fill="black" fill-rule="nonzero" d="M3440 818l16 -2c0,4 2,7 4,9 2,2 5,3 8,3 3,0 6,-1 8,-4 2,-2 3,-6 3,-10 0,-4 -1,-7 -3,-9 -2,-3 -5,-4 -8,-4 -2,0 -4,0 -7,1l2 -13c4,0 7,-1 10,-3 2,-2 3,-4 3,-8 0,-2 -1,-5 -3,-6 -1,-2 -3,-3 -6,-3 -3,0 -5,1 -7,3 -2,2 -3,5 -4,8l-14 -2c1,-5 2,-9 4,-12 2,-3 5,-6 9,-7 4,-2 8,-3 12,-3 8,0 14,2 19,7 4,5 6,9 6,14 0,8 -4,14 -12,18 5,1 9,3 12,7 2,4 4,8 4,13 0,7 -3,13 -8,19 -6,5 -12,7 -20,7 -8,0 -14,-2 -19,-6 -5,-4 -8,-10 -9,-17z"/>
    <polyline fill="none" stroke="black" stroke-width="23.6221" points="3433,858 3502,991 3530,724 3775,724 "/>
   </g>
   <g>
    <path fill="black" fill-rule="nonzero" d="M2861 818l16 -2c0,4 2,7 4,9 2,2 5,3 8,3 3,0 6,-1 8,-4 2,-2 3,-6 3,-10 0,-4 -1,-7 -3,-9 -2,-3 -5,-4 -8,-4 -2,0 -4,0 -7,1l2 -13c4,0 7,-1 9,-3 3,-2 4,-4 4,-8 0,-2 -1,-5 -3,-6 -1,-2 -4,-3 -6,-3 -3,0 -5,1 -7,3 -2,2 -3,5 -4,8l-15 -2c2,-5 3,-9 5,-12 2,-3 5,-6 9,-7 3,-2 8,-3 12,-3 8,0 14,2 19,7 4,5 6,9 6,14 0,8 -4,14 -12,18 5,1 9,3 11,7 3,4 5,8 5,13 0,7 -3,13 -8,19 -6,5 -12,7 -20,7 -8,0 -14,-2 -19,-6 -5,-4 -8,-10 -9,-17z"/>
    <polyline fill="none" stroke="black" stroke-width="23.6221" points="2854,858 2923,991 2951,724 3196,724 "/>
   </g>
   <path fill="black" fill-rule="nonzero" d="M5165 555l-26 0 0 -168c-6,6 -15,12 -25,18 -10,6 -20,10 -28,13l0 -25c15,-7 28,-15 39,-25 11,-10 19,-20 23,-29l17 0 0 216z"/>
   <path fill="black" fill-rule="nonzero" d="M4993 962l0 25 -142 0c0,-7 1,-13 3,-19 4,-9 10,-19 18,-28 8,-9 19,-20 34,-33 24,-19 39,-34 48,-45 8,-11 12,-22 12,-32 0,-10 -4,-19 -11,-26 -8,-7 -17,-11 -29,-11 -13,0 -23,4 -31,11 -8,8 -12,18 -12,32l-27 -3c2,-20 9,-35 21,-46 12,-11 29,-16 49,-16 21,0 37,6 49,17 12,12 18,26 18,43 0,8 -2,17 -5,25 -4,8 -10,17 -18,26 -8,10 -21,22 -40,38 -16,14 -26,23 -31,27 -4,5 -8,10 -11,15l105 0z"/>
   <polygon id="1" fill="black" fill-rule="nonzero" points="5102,922 5102,896 5184,896 5184,922 "/>
   <path id="2" fill="black" fill-rule="nonzero" d="M5388 987l-27 0 0 -168c-6,6 -15,12 -25,18 -10,6 -19,10 -28,13l0 -25c15,-7 28,-15 39,-25 11,-10 19,-20 24,-29l17 0 0 216z"/>
   <line fill="none" stroke="black" stroke-width="23.6221" x1="4666" y1="651" x2="5584" y2= "651" />
   <polyline fill="none" stroke="black" stroke-width="23.6221" points="4706,858 4776,991 4804,724 5049,724 "/>
  </g>
 </g>
</svg>
