<?xml version="1.0" encoding="UTF-8"?>
<!DOCTYPE svg PUBLIC "-//W3C//DTD SVG 1.1//EN" "http://www.w3.org/Graphics/SVG/1.1/DTD/svg11.dtd">
<!-- Creator: CorelDRAW X8 -->
<svg xmlns="http://www.w3.org/2000/svg" xml:space="preserve" width="1000px" height="1000px" version="1.1" shape-rendering="geometricPrecision" text-rendering="geometricPrecision" image-rendering="optimizeQuality" fill-rule="evenodd" clip-rule="evenodd"
viewBox="0 0 1000 1000"
 xmlns:xlink="http://www.w3.org/1999/xlink">
 <g id="Capa_x0020_1">
  <metadata id="CorelCorpID_0Corel-Layer"/>
  <g id="_1637412072656">
   <path fill="#2563EB" d="M438 329l0 0c0,-8 6,-14 14,-14l157 0c8,0 14,6 14,14l0 0c0,8 -6,14 -14,14l-157 0c-8,0 -14,-6 -14,-14z"/>
   <path fill="#2563EB" d="M438 421l0 0c0,-7 7,-14 14,-14l97 0c7,0 14,6 14,14l0 0c0,8 -7,14 -14,14l-97 0c-7,0 -14,-6 -14,-14z"/>
   <path fill="#2563EB" d="M595 421l0 0c0,-8 7,-14 14,-14l125 0c8,0 14,6 14,14l0 0c0,8 -6,14 -14,14l-125 0c-7,0 -14,-6 -14,-14z"/>
   <rect fill="#2563EB" transform="matrix(-1.51437 -1.29011 1.29011 -1.51437 312.504 594.977)" width="14.0327" height="49.9111" rx="7" ry="7"/>
   <path fill="#2563EB" d="M357 435l0 0 -21 0 -50 0 -21 0 0 0c-8,0 -14,-6 -14,-14l0 0 0 -21 0 -50 0 -21 0 0c0,-8 6,-14 14,-14l0 0 21 0 50 0 21 0 0 0c8,0 14,6 14,14l0 0 0 21 0 50 0 21 0 0c0,8 -6,14 -14,14zm-28 -92l0 0 -11 0 -8 0 -17 0 0 0c-8,0 -14,6 -14,14l0 0 0 11 0 8 0 17 0 0c0,8 6,14 14,14l0 0 11 0 9 0 16 0 0 0c8,0 14,-6 14,-14l0 0 0 -11 0 -8 0 -17 0 0c0,-8 -6,-14 -14,-14z"/>
   <path fill="#2563EB" d="M357 807l0 0 -21 0 -50 0 -21 0 0 0c-8,0 -14,-6 -14,-14l0 0 0 -21 0 -50 0 -21 0 0c0,-8 6,-14 14,-14l0 0 21 0 50 0 21 0 0 0c8,0 14,6 14,14l0 0 0 21 0 50 0 21 0 0c0,8 -6,14 -14,14zm-28 -92l0 0 -11 0 -8 0 -17 0 0 0c-8,0 -14,6 -14,14l0 0 0 11 0 8 0 17 0 0c0,8 6,14 14,14l0 0 11 0 9 0 16 0 0 0c8,0 14,-6 14,-14l0 0 0 -11 0 -8 0 -17 0 0c0,-8 -6,-14 -14,-14z"/>
   <path fill="#2563EB" d="M279 610l0 0 0 0 0 0 0 0 -1 0 -24 -29c-5,-5 -4,-14 2,-19l0 0c6,-5 15,-5 20,1l13 16 36 -42c5,-5 14,-6 20,-1l0 0c5,5 6,14 1,19l-46 54c0,1 -1,2 -2,2l0 0c-5,5 -14,5 -19,-1z"/>
   <path fill="#2563EB" d="M438 515l0 0c0,-8 6,-14 14,-14l36 0c7,0 14,6 14,14l0 0c0,8 -7,14 -14,14l-36 0c-8,0 -14,-6 -14,-14z"/>
   <path fill="#2563EB" d="M533 515l0 0c0,-8 6,-14 14,-14l187 0c8,0 14,6 14,14l0 0c0,8 -6,14 -14,14l-187 0c-8,0 -14,-6 -14,-14z"/>
   <path fill="#2563EB" d="M438 607l0 0c0,-8 6,-14 14,-14l188 0c7,0 14,6 14,14l0 0c0,8 -7,14 -14,14l-188 0c-8,0 -14,-6 -14,-14z"/>
   <path fill="#2563EB" d="M690 607l0 0c0,-8 6,-14 14,-14l30 0c7,0 14,6 14,14l0 0c0,8 -7,14 -14,14l-30 0c-8,0 -14,-6 -14,-14z"/>
   <path fill="#2563EB" d="M438 701l0 0c0,-8 6,-14 14,-14l110 0c8,0 14,6 14,14l0 0c0,8 -6,14 -14,14l-110 0c-8,0 -14,-6 -14,-14z"/>
   <path fill="#2563EB" d="M438 793l0 0c0,-8 6,-14 14,-14l45 0c8,0 14,6 14,14l0 0c0,8 -6,14 -14,14l-45 0c-8,0 -14,-6 -14,-14z"/>
   <path fill="#2563EB" d="M473 941l0 0 71 0c8,0 14,6 14,14l0 0c0,7 -6,14 -14,14l-8 0 -63 0 -298 0 -69 0 -2 0 0 0c-8,0 -14,-7 -14,-14l0 0 0 -1 0 -71 0 -766 0 -66 0 -6 0 0c0,-7 6,-14 14,-14l0 0 5 0 66 0 424 0 59 0 12 0c4,0 8,1 11,4l50 51 0 0 106 106c6,5 6,14 0,20l0 0c-5,5 -14,5 -20,0l-50 -51 0 0 -94 -94 0 0 -4 -4c-2,-2 -6,-4 -9,-4l-1 0 -1 0 -6 0 -53 0 -424 0 -43 0c-8,0 -14,6 -14,14l0 44 0 766 0 33 0 11 0 0c0,8 6,14 14,14l341 0zm437 -406c0,0 0,0 0,1l0 64 0 7c0,8 -6,14 -14,14l0 0c-8,0 -14,-6 -14,-14l0 -71 0 -1 0 -197 0 -57 -138 0c-4,0 -8,-1 -11,-4l-50 -51 0 0 -6 -6 0 0 -8 -7c-3,-3 -4,-7 -4,-11l0 -73 0 -3c0,-7 7,-14 14,-14l0 0c8,0 14,7 14,14l0 58 0 6c0,4 1,8 4,11l4 4 0 0 29 29 11 11 4 4c2,2 5,3 8,4l142 0c0,0 1,0 1,0l0 0c8,0 14,6 14,13l0 1 0 0 0 71c0,0 0,1 0,1l0 196z"/>
   <path fill="#2563EB" d="M609 924l0 0c0,-9 7,-17 17,-17l7 0 0 -184 0 -28 0 -12 0 0 0 0 0 0 0 -1 0 0 0 0 0 -1 0 0 0 0 0 0 0 -1 0 0 0 0 0 0 0 -1 1 0 0 0 0 0 0 0 0 -1 0 0 0 0 0 0 0 -1 0 0 0 0 1 0 0 0 0 0 0 0 0 -1 0 0 0 0 0 0 0 0 0 0 1 0 0 0 0 -1 0 0 0 0 0 0 0 0 0 0 0 0 0 0c1,0 1,-1 1,-1l0 0 0 0 0 0c0,0 0,0 1,0l0 0 0 0 0 0 0 -1 0 0c0,0 0,0 0,0l0 0 1 0 0 0 0 0 0 0 0 0 1 -1 0 0 0 0 0 0 0 0 0 0 0 0 0 0 1 0 0 0 0 0 0 0 0 0 0 0 0 0 0 0 1 0 0 0 0 -1 0 0 0 0 0 0 1 0 0 0 0 0 0 0 0 0 0 0 0 0 1 0 0 0 0 0 0 0 0 0 0 0 1 0 0 0 0 0 0 0 10 0 30 0 149 0 34 0 5 0 0 0 1 0 0 0 0 0 0 0 0 0 0 0 1 0 0 0 0 0 0 0 0 0 0 0 0 0 1 0 0 0 0 0 0 0 0 0 0 0 1 1 0 0 0 0 0 0 0 0 0 0 0 0 0 0 1 0 0 0 0 0 0 0 0 0 0 0 1 0 0 0 0 0 0 0 0 1 0 0 0 0 1 0 0 0 0 0 0 0c0,0 0,0 0,0l0 0 1 1 0 0 0 0 0 0c0,0 0,0 0,0l0 0 0 0 0 0c1,0 1,1 1,1l0 0 0 0 0 0 0 0 0 0 0 0 0 0 1 1 0 0 0 0 0 0 0 0 0 0 0 0 0 0 1 1 0 0 0 0 0 0 0 0 0 0 0 0 0 1 0 0 0 0 0 0 1 1 0 0 0 0 0 0 0 0 0 1 0 0 0 0 0 0 0 1 0 0 0 0 0 0 0 1 0 0 0 0 0 1 0 0 0 0 0 0 0 12 0 28 0 184 8 0c9,0 17,8 17,17l0 0c0,9 -8,17 -17,17l-8 0 0 0 -252 0 0 0 -7 0c-10,0 -17,-8 -17,-17zm118 -44l0 0c0,-7 6,-12 12,-12l40 0c7,0 12,5 12,12l0 0c0,7 -5,12 -12,12l-40 0c-6,0 -12,-5 -12,-12zm0 -39l0 0c0,-6 6,-12 12,-12l40 0c7,0 12,6 12,12l0 0c0,7 -5,12 -12,12l-40 0c-6,0 -12,-5 -12,-12zm0 -39l0 0c0,-6 6,-12 12,-12l40 0c7,0 12,6 12,12l0 0c0,7 -5,13 -12,13l-40 0c-6,0 -12,-6 -12,-13zm0 -38l0 0c0,-7 6,-13 12,-13l40 0c7,0 12,6 12,13l0 0c0,6 -5,12 -12,12l-40 0c-6,0 -12,-6 -12,-12zm0 -39l0 0c0,-7 6,-12 12,-12l40 0c7,0 12,5 12,12l0 0c0,7 -5,12 -12,12l-40 0c-6,0 -12,-5 -12,-12zm-70 143l35 0c7,0 12,5 12,12l0 0c0,7 -5,12 -12,12l-35 0 0 15 204 0 0 -15 -35 0c-6,0 -12,-5 -12,-12l0 0c0,-7 6,-12 12,-12l35 0 0 -15 -35 0c-6,0 -12,-5 -12,-12l0 0c0,-6 6,-12 12,-12l35 0 0 -14 -34 0c-7,0 -13,-6 -13,-13l0 0c0,-6 6,-12 13,-12l34 0 0 -14 -34 0c-7,0 -13,-6 -13,-12l0 0c0,-7 6,-13 13,-13l34 0 0 -14 -34 0c-7,0 -13,-5 -13,-12l0 0c0,-7 6,-12 13,-12l34 0 0 -5 0 0 0 -1 0 0 0 0 0 -1 0 0 0 0 0 0 0 -1 0 0 0 0 0 -1 0 0 0 0 -1 0 0 -1 0 0 0 0 0 0 0 0 0 0 0 -1 0 0 0 0 -1 0 0 0 0 -1 0 0 0 0 0 0 0 0 0 0 0 -1 0 0 -1 0 0 0 0 0 0 0 0 0 0 0 0 -1 0 0 0 0 0 0 -1 0 0 0c0,0 0,0 0,0l0 0 0 -1 0 0c0,0 0,0 -1,0l0 0 0 0 0 0 0 0 0 0c0,0 0,0 -1,-1l0 0 0 0 0 0 0 0 0 0 0 0 -1 0 0 0 0 0 0 0 0 0 0 0 0 -1 0 0 -1 0 0 0 0 0 0 0 0 0 0 0 -1 0 0 0 0 0 0 0 0 0 0 0 0 0 0 0 -1 0 0 0 0 0 0 0 0 0 0 0 -1 0 0 0 0 0 0 0 0 0 -1 -1 0 0 0 0 0 0 0 0 -15 0 -149 0 -13 0 -3 0 0 0 0 0 0 0 0 0 0 0 0 1 0 0 -1 0 0 0 0 0 0 0 0 0 -1 0 0 0 0 0 0 0 0 0 0 0 -1 0 0 0 0 0 0 0 0 0 0 0 0 0 0 0 -1 0 0 0 0 0 0 0 0 0 0 0 -1 1 0 0 0 0 0 0 0 0 0 0 0 0 0 0 -1 0 0 0 0 0 0 0 0 0c0,1 0,1 -1,1l0 0 0 0 0 0 0 0 0 0c0,0 0,0 -1,0l0 0 0 1 0 0c0,0 0,0 0,0l0 0 0 0 0 0 -1 0 0 0 0 1 0 0 0 0 0 0 0 0 0 0 0 0 0 0 0 1 -1 0 0 0 0 0 0 0 0 0 0 1 0 0 0 0 0 0 -1 0 0 1 0 0 0 0 0 0 0 0 0 0 0 1 0 0 0 0 0 0 0 1 0 0 0 0 -1 1 0 0 0 0 0 0 0 1 0 0 0 0 0 1 0 0 0 5 35 0c7,0 12,5 12,12l0 0c0,7 -5,12 -12,12l-35 0 0 14 35 0c7,0 12,6 12,13l0 0c0,6 -5,12 -12,12l-35 0 0 14 35 0c7,0 12,6 12,12l0 0c0,7 -5,13 -12,13l-35 0 0 14 35 0c7,0 12,6 12,12l0 0c0,7 -5,12 -12,12l-35 0 0 15z"/>
  </g>
 </g>
</svg>
