<?xml version="1.0" encoding="UTF-8"?>
<!DOCTYPE svg PUBLIC "-//W3C//DTD SVG 1.1//EN" "http://www.w3.org/Graphics/SVG/1.1/DTD/svg11.dtd">
<!-- Creator: CorelDRAW X8 -->
<svg xmlns="http://www.w3.org/2000/svg" xml:space="preserve" width="1000px" height="1000px" version="1.1" shape-rendering="geometricPrecision" text-rendering="geometricPrecision" image-rendering="optimizeQuality" fill-rule="evenodd" clip-rule="evenodd"
viewBox="0 0 1000 1000"
 xmlns:xlink="http://www.w3.org/1999/xlink">
 <g id="Capa_x0020_1">
  <metadata id="CorelCorpID_0Corel-Layer"/>
  <path fill="#2563EB" d="M438 329l0 0c0,-8 6,-14 14,-14l157 0c8,0 14,6 14,14l0 0c0,8 -6,14 -14,14l-157 0c-8,0 -14,-6 -14,-14z"/>
  <path fill="#2563EB" d="M438 421l0 0c0,-7 7,-14 14,-14l97 0c7,0 14,6 14,14l0 0c0,8 -7,14 -14,14l-97 0c-7,0 -14,-6 -14,-14z"/>
  <path fill="#2563EB" d="M595 421l0 0c0,-8 7,-14 14,-14l125 0c8,0 14,6 14,14l0 0c0,8 -6,14 -14,14l-125 0c-7,0 -14,-6 -14,-14z"/>
  <rect fill="#2563EB" transform="matrix(-1.51437 -1.29011 1.29011 -1.51437 312.504 594.953)" width="14.0327" height="49.9111" rx="7" ry="7"/>
  <path fill="#2563EB" d="M357 435l0 0 -21 0 -50 0 -21 0 0 0c-8,0 -14,-6 -14,-14l0 0 0 -21 0 -50 0 -21 0 0c0,-8 6,-14 14,-14l0 0 21 0 50 0 21 0 0 0c8,0 14,6 14,14l0 0 0 21 0 50 0 21 0 0c0,8 -6,14 -14,14zm-28 -92l0 0 -11 0 -8 0 -17 0 0 0c-8,0 -14,6 -14,14l0 0 0 11 0 8 0 17 0 0c0,8 6,14 14,14l0 0 11 0 9 0 16 0 0 0c8,0 14,-6 14,-14l0 0 0 -11 0 -8 0 -17 0 0c0,-8 -6,-14 -14,-14z"/>
  <path fill="#2563EB" d="M357 807l0 0 -21 0 -50 0 -21 0 0 0c-8,0 -14,-6 -14,-14l0 0 0 -21 0 -50 0 -21 0 0c0,-8 6,-14 14,-14l0 0 21 0 50 0 21 0 0 0c8,0 14,6 14,14l0 0 0 21 0 50 0 21 0 0c0,8 -6,14 -14,14zm-28 -92l0 0 -11 0 -8 0 -17 0 0 0c-8,0 -14,6 -14,14l0 0 0 11 0 8 0 17 0 0c0,8 6,14 14,14l0 0 11 0 9 0 16 0 0 0c8,0 14,-6 14,-14l0 0 0 -11 0 -8 0 -17 0 0c0,-8 -6,-14 -14,-14z"/>
  <path fill="#2563EB" d="M279 610l0 0 0 0 0 0 0 0 -1 0 -24 -29c-5,-5 -4,-14 2,-19l0 0c6,-5 15,-5 20,1l13 16 36 -42c5,-6 14,-6 20,-1l0 0c5,5 6,14 1,19l-46 54c0,1 -1,2 -2,2l0 0c-5,5 -14,5 -19,-1z"/>
  <path fill="#2563EB" d="M438 515l0 0c0,-8 6,-14 14,-14l36 0c7,0 14,6 14,14l0 0c0,8 -7,14 -14,14l-36 0c-8,0 -14,-6 -14,-14z"/>
  <path fill="#2563EB" d="M682 607l0 0c0,-8 7,-14 14,-14l36 0c8,0 14,6 14,14l0 0c0,8 -6,14 -14,14l-36 0c-7,0 -14,-6 -14,-14z"/>
  <path fill="#2563EB" d="M565 701l0 0c0,-8 7,-14 14,-14l16 0c8,0 14,6 14,14l0 0c0,8 -6,14 -14,14l-16 0c-7,0 -14,-6 -14,-14z"/>
  <path fill="#2563EB" d="M482 793l0 0c0,-8 6,-14 14,-14l27 0c7,0 13,6 13,14l0 0c0,8 -6,14 -13,14l-27 0c-8,0 -14,-6 -14,-14z"/>
  <path fill="#2563EB" d="M533 515l0 0c0,-8 6,-14 14,-14l187 0c8,0 14,6 14,14l0 0c0,8 -6,14 -14,14l-187 0c-8,0 -14,-6 -14,-14z"/>
  <path fill="#2563EB" d="M438 607l0 0c0,-8 6,-14 14,-14l188 0c7,0 14,6 14,14l0 0c0,8 -7,14 -14,14l-188 0c-8,0 -14,-6 -14,-14z"/>
  <path fill="#2563EB" d="M438 701l0 0c0,-8 6,-14 14,-14l77 0c7,0 14,6 14,14l0 0c0,8 -7,14 -14,14l-77 0c-8,0 -14,-6 -14,-14z"/>
  <path fill="#2563EB" d="M438 793l0 0c0,-8 6,-14 14,-14l0 0c8,0 14,6 14,14l0 0c0,8 -6,14 -14,14l0 0c-8,0 -14,-6 -14,-14z"/>
  <path fill="#2563EB" d="M440 941l0 0 71 0c8,0 14,6 14,14l0 0c0,7 -6,14 -14,14l-7 0 -64 0 -265 0 -69 0 -2 0 0 0c-8,0 -14,-7 -14,-14l0 0 0 -1 0 -71 0 -766 0 -66 0 -6 0 0c0,-7 6,-14 14,-14l0 0 5 0 66 0 424 0 59 0 12 0c4,0 8,1 11,4l50 51 0 0 106 106c6,5 6,14 0,20l0 0c-5,5 -14,5 -20,0l-50 -51 0 0 -94 -94 0 0 -4 -4c-2,-2 -6,-4 -9,-4l-1 0 -1 0 -6 0 -53 0 -424 0 -43 0c-8,0 -14,6 -14,14l0 44 0 766 0 33 0 11 0 0c0,8 6,14 14,14l308 0zm470 -394c0,1 0,1 0,1l0 64 0 8c0,7 -6,13 -14,13l0 0c-8,0 -14,-6 -14,-13l0 -72 0 0 0 -210 0 -57 -138 0c-4,0 -8,-2 -11,-4l-50 -51 0 0 -6 -6 0 0 -8 -7c-3,-3 -4,-7 -4,-11l0 -73 0 -3c0,-7 7,-14 14,-14l0 0c8,0 14,7 14,14l0 58 0 6c0,4 1,8 4,11l4 4 0 0 29 29 11 11 4 4c2,2 5,3 8,4l142 0c0,0 1,0 1,0l0 0c8,0 14,6 14,13l0 1 0 0 0 71c0,0 0,1 0,1l0 208z"/>
  <g id="_1637361491184">
   <path fill="#2563EB" d="M664 720c0,11 9,18 22,16 14,-3 38,-9 54,-13l17 20c2,2 4,4 6,6l-66 72c-11,13 -7,24 8,31l43 22c4,2 7,3 10,5 4,2 7,4 11,6 -7,12 -26,41 -34,55 -6,10 -5,21 5,27 9,4 18,1 23,-8l18 -28c2,-3 3,-5 5,-8l17 -29c6,-8 14,-21 -1,-31 -4,-3 -11,-5 -15,-8 -6,-2 -28,-15 -32,-15 1,-3 14,-17 18,-20 6,-7 26,-30 31,-33 2,1 6,5 8,7 7,6 18,15 25,21 18,17 28,-1 39,-11 2,-1 3,-1 4,-3 2,-1 2,-2 4,-3 2,-3 4,-4 7,-7 1,-1 2,-2 4,-4 7,-7 15,-10 15,-23 0,-8 -13,-23 -30,-9 -7,6 -23,23 -29,28 -2,-2 -3,-3 -5,-5l-61 -57c-2,-2 -3,-3 -5,-4 -3,-4 -6,-7 -10,-10l-10 -10c-13,-13 -15,-9 -43,-3 -8,3 -40,9 -46,13 -2,1 -4,3 -5,5 -1,2 -2,5 -2,8z"/>
   <path fill="#2563EB" d="M575 904c0,11 9,18 17,18 5,0 67,-13 72,-14 11,-2 14,-9 23,-20 2,-2 18,-22 19,-24 -10,-5 -19,-8 -23,-19 -1,-2 -1,-3 -2,-5l-28 35c-4,3 -62,10 -70,15 -4,3 -8,8 -8,14z"/>
   <path fill="#2563EB" d="M801 701c0,13 3,21 11,29 15,14 38,14 52,0 13,-12 15,-32 5,-48 -1,-1 -1,-1 -2,-2 -3,-4 -2,-4 -7,-7 -2,-1 -4,-2 -6,-3 -4,-2 -9,-4 -15,-4 -17,-2 -38,15 -38,35z"/>
  </g>
 </g>
</svg>
