<?xml version="1.0" encoding="UTF-8"?>
<!DOCTYPE svg PUBLIC "-//W3C//DTD SVG 1.1//EN" "http://www.w3.org/Graphics/SVG/1.1/DTD/svg11.dtd">
<!-- Creator: CorelDRAW X8 -->
<svg xmlns="http://www.w3.org/2000/svg" xml:space="preserve" width="1000px" height="1000px" version="1.1" shape-rendering="geometricPrecision" text-rendering="geometricPrecision" image-rendering="optimizeQuality" fill-rule="evenodd" clip-rule="evenodd"
viewBox="0 0 1000 1000"
 xmlns:xlink="http://www.w3.org/1999/xlink">
 <g id="Capa_x0020_1">
  <metadata id="CorelCorpID_0Corel-Layer"/>
  <g id="_1637361517552">
   <path fill="#2563EB" d="M438 329l0 0c0,-8 6,-14 14,-14l157 0c8,0 14,6 14,14l0 0c0,8 -6,14 -14,14l-157 0c-8,0 -14,-6 -14,-14z"/>
   <path fill="#2563EB" d="M438 421l0 0c0,-7 7,-14 14,-14l97 0c7,0 14,6 14,14l0 0c0,8 -7,14 -14,14l-97 0c-7,0 -14,-6 -14,-14z"/>
   <path fill="#2563EB" d="M595 421l0 0c0,-8 7,-14 14,-14l125 0c8,0 14,6 14,14l0 0c0,8 -6,14 -14,14l-125 0c-7,0 -14,-6 -14,-14z"/>
   <rect fill="#2563EB" transform="matrix(-1.51437 -1.29011 1.29011 -1.51437 312.504 594.977)" width="14.0327" height="49.9111" rx="7" ry="7"/>
   <path fill="#2563EB" d="M357 435l0 0 -21 0 -50 0 -21 0 0 0c-8,0 -14,-6 -14,-14l0 0 0 -21 0 -50 0 -21 0 0c0,-8 6,-14 14,-14l0 0 21 0 50 0 21 0 0 0c8,0 14,6 14,14l0 0 0 21 0 50 0 21 0 0c0,8 -6,14 -14,14zm-28 -92l0 0 -11 0 -8 0 -17 0 0 0c-8,0 -14,6 -14,14l0 0 0 11 0 8 0 17 0 0c0,8 6,14 14,14l0 0 11 0 9 0 16 0 0 0c8,0 14,-6 14,-14l0 0 0 -11 0 -8 0 -17 0 0c0,-8 -6,-14 -14,-14z"/>
   <path fill="#2563EB" d="M357 807l0 0 -21 0 -50 0 -21 0 0 0c-8,0 -14,-6 -14,-14l0 0 0 -21 0 -50 0 -21 0 0c0,-8 6,-14 14,-14l0 0 21 0 50 0 21 0 0 0c8,0 14,6 14,14l0 0 0 21 0 50 0 21 0 0c0,8 -6,14 -14,14zm-28 -92l0 0 -11 0 -8 0 -17 0 0 0c-8,0 -14,6 -14,14l0 0 0 11 0 8 0 17 0 0c0,8 6,14 14,14l0 0 11 0 9 0 16 0 0 0c8,0 14,-6 14,-14l0 0 0 -11 0 -8 0 -17 0 0c0,-8 -6,-14 -14,-14z"/>
   <path fill="#2563EB" d="M279 610l0 0 0 0 0 0 0 0 -1 0 -24 -29c-5,-5 -4,-14 2,-19l0 0c6,-5 15,-5 20,1l13 16 36 -42c5,-5 14,-6 20,-1l0 0c5,5 6,14 1,19l-46 54c0,1 -1,2 -2,2l0 0c-5,5 -14,5 -19,-1z"/>
   <path fill="#2563EB" d="M438 515l0 0c0,-8 6,-14 14,-14l36 0c7,0 14,6 14,14l0 0c0,8 -7,14 -14,14l-36 0c-8,0 -14,-6 -14,-14z"/>
   <path fill="#2563EB" d="M533 515l0 0c0,-8 6,-14 14,-14l187 0c8,0 14,6 14,14l0 0c0,8 -6,14 -14,14l-187 0c-8,0 -14,-6 -14,-14z"/>
   <path fill="#2563EB" d="M438 607l0 0c0,-8 6,-14 14,-14l188 0c7,0 14,6 14,14l0 0c0,8 -7,14 -14,14l-188 0c-8,0 -14,-6 -14,-14z"/>
   <path fill="#2563EB" d="M690 607l0 0c0,-8 6,-14 14,-14l0 0c7,0 14,6 14,14l0 0c0,8 -7,14 -14,14l0 0c-8,0 -14,-6 -14,-14z"/>
   <path fill="#2563EB" d="M604 701l0 0c0,-8 6,-14 14,-14l35 0c8,0 14,6 14,14l0 0c0,8 -6,14 -14,14l-35 0c-8,0 -14,-6 -14,-14z"/>
   <path fill="#2563EB" d="M438 701l0 0c0,-8 6,-14 14,-14l110 0c8,0 14,6 14,14l0 0c0,8 -6,14 -14,14l-110 0c-8,0 -14,-6 -14,-14z"/>
   <path fill="#2563EB" d="M438 793l0 0c0,-8 6,-14 14,-14l45 0c8,0 14,6 14,14l0 0c0,8 -6,14 -14,14l-45 0c-8,0 -14,-6 -14,-14z"/>
   <path fill="#2563EB" d="M531 793l0 0c0,-8 6,-14 14,-14l65 0c8,0 14,6 14,14l0 0c0,8 -6,14 -14,14l-65 0c-8,0 -14,-6 -14,-14z"/>
   <path fill="#2563EB" d="M553 941l0 0 71 0c8,0 14,6 14,14l0 0c0,7 -6,14 -14,14l-8 0 -63 0 -378 0 -69 0 -2 0 0 0c-8,0 -14,-7 -14,-14l0 0 0 -1 0 -71 0 -766 0 -66 0 -6 0 0c0,-7 6,-14 14,-14l0 0 5 0 66 0 424 0 59 0 12 0c4,0 8,1 11,4l50 51 0 0 106 106c6,5 6,14 0,20l0 0c-5,5 -14,5 -20,0l-50 -51 0 0 -94 -94 0 0 -4 -4c-2,-2 -6,-4 -9,-4l-1 0 -1 0 -6 0 -53 0 -424 0 -43 0c-8,0 -14,6 -14,14l0 44 0 766 0 33 0 11 0 0c0,8 6,14 14,14l421 0zm357 -506c0,0 0,0 0,1l0 64 0 7c0,8 -6,14 -14,14l0 0c-8,0 -14,-6 -14,-14l0 -71 0 -1 0 -97 0 -57 -138 0c-4,0 -8,-1 -11,-4l-50 -51 0 0 -6 -6 0 0 -8 -7c-3,-3 -4,-7 -4,-11l0 -73 0 -3c0,-7 7,-14 14,-14l0 0c8,0 14,7 14,14l0 58 0 6c0,4 1,8 4,11l4 4 0 0 29 29 11 11 4 4c2,2 5,3 8,4l142 0c0,0 1,0 1,0l0 0c8,0 14,6 14,13l0 1 0 0 0 71c0,0 0,1 0,1l0 96z"/>
   <path fill="#2563EB" d="M777 786c50,0 91,41 91,91 0,51 -41,92 -91,92 -51,0 -92,-41 -92,-92 0,-50 41,-91 92,-91zm0 20c39,0 71,32 71,71 0,40 -32,72 -71,72 -40,0 -72,-32 -72,-72 0,-39 32,-71 72,-71z"/>
   <path fill="#2563EB" d="M777 822c30,0 55,25 55,55 0,31 -25,56 -55,56 -31,0 -56,-25 -56,-56 0,-30 25,-55 56,-55zm0 86l10 0 0 -61 -7 0c-2,6 -5,7 -13,7l0 7 10 0 0 47z"/>
   <rect fill="#2563EB" x="731" y="757" width="91.1144" height="16.2786" rx="28" ry="8"/>
   <rect fill="#2563EB" x="754" y="765" width="45.5565" height="24.4187"/>
   <path fill="#2563EB" d="M903 567l-110 190 -38 0 90 -197c0,0 1,0 1,0l0 0c1,-3 3,-5 6,-5l0 0c1,0 1,1 1,1l0 0 44 0c2,0 4,0 5,2l0 0c3,2 3,6 2,8 0,1 -1,1 -1,1z"/>
   <path fill="#2563EB" d="M733 651c1,-2 3,-3 5,-3l0 0c3,0 6,2 7,5l0 0 52 113 -35 3 -51 -88 0 0c-2,-3 -2,-7 1,-9l1 -1 0 0 0 -1 18 -18c0,0 0,0 0,0l2 -1z"/>
  </g>
 </g>
</svg>
