<?xml version="1.0" encoding="UTF-8"?>
<!DOCTYPE svg PUBLIC "-//W3C//DTD SVG 1.1//EN" "http://www.w3.org/Graphics/SVG/1.1/DTD/svg11.dtd">
<!-- Creator: CorelDRAW X8 -->
<svg xmlns="http://www.w3.org/2000/svg" xml:space="preserve" width="1000px" height="1000px" version="1.1" shape-rendering="geometricPrecision" text-rendering="geometricPrecision" image-rendering="optimizeQuality" fill-rule="evenodd" clip-rule="evenodd"
viewBox="0 0 1000 1000"
 xmlns:xlink="http://www.w3.org/1999/xlink">
 <g id="Capa_x0020_1">
  <metadata id="CorelCorpID_0Corel-Layer"/>
  <g id="_1637395895008">
   <path fill="#2563EB" d="M438 329l0 0c0,-8 6,-14 14,-14l157 0c8,0 14,6 14,14l0 0c0,8 -6,14 -14,14l-157 0c-8,0 -14,-6 -14,-14z"/>
   <path fill="#2563EB" d="M438 421l0 0c0,-7 7,-14 14,-14l97 0c7,0 14,6 14,14l0 0c0,8 -7,14 -14,14l-97 0c-7,0 -14,-6 -14,-14z"/>
   <path fill="#2563EB" d="M595 421l0 0c0,-8 7,-14 14,-14l125 0c8,0 14,6 14,14l0 0c0,8 -6,14 -14,14l-125 0c-7,0 -14,-6 -14,-14z"/>
   <rect fill="#2563EB" transform="matrix(-1.51437 -1.29011 1.29011 -1.51437 312.501 594.977)" width="14.0327" height="49.9111" rx="7" ry="7"/>
   <path fill="#2563EB" d="M357 435l0 0 -21 0 -50 0 -21 0 0 0c-8,0 -14,-6 -14,-14l0 0 0 -21 0 -50 0 -21 0 0c0,-8 6,-14 14,-14l0 0 21 0 50 0 21 0 0 0c8,0 14,6 14,14l0 0 0 21 0 50 0 21 0 0c0,8 -6,14 -14,14zm-28 -92l0 0 -11 0 -8 0 -17 0 0 0c-8,0 -14,6 -14,14l0 0 0 11 0 8 0 17 0 0c0,8 6,14 14,14l0 0 11 0 9 0 16 0 0 0c8,0 14,-6 14,-14l0 0 0 -11 0 -8 0 -17 0 0c0,-8 -6,-14 -14,-14z"/>
   <path fill="#2563EB" d="M357 807l0 0 -21 0 -50 0 -21 0 0 0c-8,0 -14,-6 -14,-14l0 0 0 -21 0 -50 0 -21 0 0c0,-8 6,-14 14,-14l0 0 21 0 50 0 21 0 0 0c8,0 14,6 14,14l0 0 0 21 0 50 0 21 0 0c0,8 -6,14 -14,14zm-28 -92l0 0 -11 0 -8 0 -17 0 0 0c-8,0 -14,6 -14,14l0 0 0 11 0 8 0 17 0 0c0,8 6,14 14,14l0 0 11 0 9 0 16 0 0 0c8,0 14,-6 14,-14l0 0 0 -11 0 -8 0 -17 0 0c0,-8 -6,-14 -14,-14z"/>
   <path fill="#2563EB" d="M279 610l0 0 0 0 0 0 0 0 -1 0 -24 -29c-5,-5 -4,-14 2,-19l0 0c6,-5 15,-5 20,1l13 16 36 -42c5,-5 14,-6 20,-1l0 0c5,5 6,14 1,19l-46 54c0,1 -1,2 -2,2l0 0c-5,5 -14,5 -19,-1z"/>
   <path fill="#2563EB" d="M438 515l0 0c0,-8 6,-14 14,-14l36 0c7,0 14,6 14,14l0 0c0,8 -7,14 -14,14l-36 0c-8,0 -14,-6 -14,-14z"/>
   <path fill="#2563EB" d="M682 607l0 0c0,-8 7,-14 14,-14l36 0c8,0 14,6 14,14l0 0c0,8 -6,14 -14,14l-36 0c-7,0 -14,-6 -14,-14z"/>
   <path fill="#2563EB" d="M565 701l0 0c0,-8 7,-14 14,-14l16 0c8,0 14,6 14,14l0 0c0,8 -6,14 -14,14l-16 0c-7,0 -14,-6 -14,-14z"/>
   <path fill="#2563EB" d="M533 515l0 0c0,-8 6,-14 14,-14l187 0c8,0 14,6 14,14l0 0c0,8 -6,14 -14,14l-187 0c-8,0 -14,-6 -14,-14z"/>
   <path fill="#2563EB" d="M438 607l0 0c0,-8 6,-14 14,-14l188 0c7,0 14,6 14,14l0 0c0,8 -7,14 -14,14l-188 0c-8,0 -14,-6 -14,-14z"/>
   <path fill="#2563EB" d="M438 701l0 0c0,-8 6,-14 14,-14l77 0c7,0 14,6 14,14l0 0c0,8 -7,14 -14,14l-77 0c-8,0 -14,-6 -14,-14z"/>
   <path fill="#2563EB" d="M438 793l0 0c0,-8 6,-14 14,-14l63 0c7,0 14,6 14,14l0 0c0,8 -7,14 -14,14l-63 0c-8,0 -14,-6 -14,-14z"/>
   <path fill="#2563EB" d="M480 941l0 0 71 0c8,0 14,6 14,14l0 0c0,7 -6,14 -14,14l-7 0 -64 0 -305 0 -69 0 -2 0 0 0c-8,0 -14,-7 -14,-14l0 0 0 -1 0 -71 0 -766 0 -66 0 -6 0 0c0,-7 6,-14 14,-14l0 0 5 0 66 0 424 0 59 0 12 0c4,0 8,1 11,4l50 51 0 0 106 106c6,5 6,14 0,20l0 0c-5,5 -14,5 -20,0l-50 -51 0 0 -94 -94 0 0 -4 -4c-2,-2 -6,-4 -9,-4l-1 0 -1 0 -6 0 -53 0 -424 0 -43 0c-8,0 -14,6 -14,14l0 44 0 766 0 33 0 11 0 0c0,8 6,14 14,14l348 0zm430 -362c0,0 0,0 0,0l0 65 0 7c0,7 -6,14 -14,14l0 0c-8,0 -14,-7 -14,-14l0 -72 0 0 0 -241 0 -57 -138 0c-4,0 -8,-1 -11,-4l-50 -51 0 0 -6 -6 0 0 -8 -7c-3,-3 -4,-7 -4,-11l0 -73 0 -3c0,-7 7,-14 14,-14l0 0c8,0 14,7 14,14l0 58 0 6c0,4 1,8 4,11l4 4 0 0 29 29 11 11 4 4c2,2 5,3 8,4l142 0c0,0 1,0 1,0l0 0c8,0 14,6 14,13l0 1 0 0 0 71c0,0 0,1 0,1l0 240z"/>
   <g>
    <path fill="#2563EB" d="M683 955c38,13 78,17 119,10 15,-2 21,-5 34,-10 0,-10 1,-50 -2,-60 -1,-5 -3,-10 -5,-14 -9,-16 -27,-30 -52,-30l-36 0c-33,0 -58,25 -58,58 0,10 -1,39 0,46z"/>
    <path fill="#2563EB" d="M672 922c0,-22 1,-37 12,-52 5,-7 9,-11 16,-16 3,-3 6,-4 10,-7 3,-1 8,-2 10,-4 0,-1 -6,-7 -11,-16 -5,-11 -4,-18 -5,-22 -8,-1 -44,-1 -50,0 -16,2 -26,9 -34,18 -1,1 -2,1 -3,3 -7,10 -12,19 -13,32l0 51c14,5 55,15 68,13z"/>
    <path fill="#2563EB" d="M798 843c3,2 8,3 11,5 11,6 19,12 26,22 13,20 10,34 11,52 12,2 44,-5 58,-11 1,-1 5,-2 6,-4 0,-15 1,-33 0,-49 -1,-14 -8,-28 -15,-35 -2,-2 -4,-4 -7,-6 -7,-5 -14,-10 -25,-12 -7,-1 -40,-1 -48,0 -1,3 -1,8 -2,12 -2,6 -5,13 -9,18 -1,2 -2,3 -3,4 -2,2 -2,2 -3,4z"/>
    <path fill="#2563EB" d="M804 808c3,-26 -17,-47 -40,-50 -24,-3 -46,15 -49,39 -3,27 16,48 39,50 15,2 26,-3 34,-10 8,-6 14,-16 16,-29z"/>
    <path fill="#2563EB" d="M725 760c2,-3 -2,-18 -4,-23 -2,-3 -5,-8 -7,-10 -8,-8 -17,-14 -30,-15 -25,-1 -46,17 -48,41 -2,26 17,46 41,48 9,1 24,-3 27,-7 2,-2 1,-14 15,-29 1,-1 2,-2 3,-3 0,0 3,-2 3,-2z"/>
    <path fill="#2563EB" d="M814 797c11,6 26,6 37,1 10,-5 18,-13 23,-22 5,-12 6,-25 1,-37 0,0 -1,0 -1,0l-4 -8c-4,-6 -10,-11 -17,-15 -26,-12 -52,3 -60,22 -2,3 -6,15 -4,18 0,1 5,4 6,5 2,2 3,3 6,5 7,8 11,17 13,31z"/>
   </g>
  </g>
 </g>
</svg>
