<?xml version="1.0" encoding="UTF-8"?>
<!DOCTYPE svg PUBLIC "-//W3C//DTD SVG 1.1//EN" "http://www.w3.org/Graphics/SVG/1.1/DTD/svg11.dtd">
<!-- Creator: CorelDRAW X8 -->
<svg xmlns="http://www.w3.org/2000/svg" xml:space="preserve" width="1000px" height="1000px" version="1.1" shape-rendering="geometricPrecision" text-rendering="geometricPrecision" image-rendering="optimizeQuality" fill-rule="evenodd" clip-rule="evenodd"
viewBox="0 0 1000 1000"
 xmlns:xlink="http://www.w3.org/1999/xlink">
 <g id="Capa_x0020_1">
  <metadata id="CorelCorpID_0Corel-Layer"/>
  <path fill="#2563EB" d="M837 192l-106 -106 0 0 -50 -51c-3,-3 -7,-4 -11,-4l-12 0 -59 0 -424 0 -66 0 -5 0 0 0c-8,0 -14,7 -14,14l0 0 0 6 0 66 0 766 0 71 0 1 0 0c0,7 6,14 14,14l0 0 2 0 69 0 650 0 57 0 14 0 0 0c8,0 14,-7 14,-14l0 0 0 -14 0 0 0 0 0 -602c0,0 0,-1 0,-1l0 -71 0 0 0 -1c0,-7 -6,-13 -14,-13l0 0c0,0 -1,0 -1,0l-142 0c-3,-1 -6,-2 -8,-4l-4 -4 -11 -11 -29 -29 0 0 -4 -4c-3,-3 -4,-7 -4,-11l0 -6 0 -58c0,-7 -6,-14 -14,-14l0 0c-7,0 -14,7 -14,14l0 3 0 73c0,4 1,8 4,11l8 7 0 0 6 6 0 0 50 51c3,3 7,4 11,4l138 0 0 57 0 545 0 0 0 33 0 11 0 0c0,8 -6,14 -14,14l0 0 -17 0 -26 0 -1 0 -692 0c-8,0 -14,-6 -14,-14l0 0 0 -11 0 -33 0 -766 0 -44c0,-8 6,-14 14,-14l43 0 424 0 53 0 6 0 1 0 1 0c3,0 7,2 9,4l4 4 0 0 94 94 0 0 50 51c6,5 15,5 20,0l0 0c6,-6 6,-15 0,-20zm-302 601l0 0c0,-8 7,-14 14,-14l185 0c8,0 14,6 14,14l0 0c0,8 -6,14 -14,14l-185 0c-7,0 -14,-6 -14,-14zm-97 0l0 0c0,-8 6,-14 14,-14l45 0c8,0 14,6 14,14l0 0c0,8 -6,14 -14,14l-45 0c-8,0 -14,-6 -14,-14zm172 -92l0 0c0,-8 7,-14 14,-14l110 0c8,0 14,6 14,14l0 0c0,8 -6,14 -14,14l-110 0c-7,0 -14,-6 -14,-14zm-172 0l0 0c0,-8 6,-14 14,-14l110 0c8,0 14,6 14,14l0 0c0,8 -6,14 -14,14l-110 0c-8,0 -14,-6 -14,-14zm252 -94l0 0c0,-8 6,-14 14,-14l30 0c7,0 14,6 14,14l0 0c0,8 -7,14 -14,14l-30 0c-8,0 -14,-6 -14,-14zm-252 0l0 0c0,-8 6,-14 14,-14l188 0c7,0 14,6 14,14l0 0c0,8 -7,14 -14,14l-188 0c-8,0 -14,-6 -14,-14zm95 -92l0 0c0,-8 6,-14 14,-14l187 0c8,0 14,6 14,14l0 0c0,8 -6,14 -14,14l-187 0c-8,0 -14,-6 -14,-14zm-95 0l0 0c0,-8 6,-14 14,-14l36 0c7,0 14,6 14,14l0 0c0,8 -7,14 -14,14l-36 0c-8,0 -14,-6 -14,-14zm-159 95l0 0 0 0 0 0 0 0 -1 0 -24 -29c-5,-5 -4,-14 2,-19l0 0c6,-5 15,-5 20,1l13 16 11 -13 0 0 47 -54c5,-6 13,-7 19,-2l0 0c6,5 7,14 2,20l-22 25 0 0 -46 54c0,1 -1,2 -2,2l0 0c-5,5 -14,5 -19,-1zm78 197l0 0 -21 0 -50 0 -21 0 0 0c-8,0 -14,-6 -14,-14l0 0 0 -21 0 -50 0 -21 0 0c0,-8 6,-14 14,-14l0 0 21 0 50 0 21 0 0 0c8,0 14,6 14,14l0 0 0 21 0 50 0 21 0 0c0,8 -6,14 -14,14zm-28 -92l0 0 -11 0 -8 0 -17 0 0 0c-8,0 -14,6 -14,14l0 0 0 11 0 8 0 17 0 0c0,8 6,14 14,14l0 0 11 0 9 0 16 0 0 0c8,0 14,-6 14,-14l0 0 0 -11 0 -8 0 -17 0 0c0,-8 -6,-14 -14,-14zm28 -280l0 0 -21 0 -50 0 -21 0 0 0c-8,0 -14,-6 -14,-14l0 0 0 -21 0 -50 0 -21 0 0c0,-8 6,-14 14,-14l0 0 21 0 50 0 21 0 0 0c8,0 14,6 14,14l0 0 0 21 0 50 0 21 0 0c0,8 -6,14 -14,14zm-28 -92l0 0 -11 0 -8 0 -17 0 0 0c-8,0 -14,6 -14,14l0 0 0 11 0 8 0 17 0 0c0,8 6,14 14,14l0 0 11 0 9 0 16 0 0 0c8,0 14,-6 14,-14l0 0 0 -11 0 -8 0 -17 0 0c0,-8 -6,-14 -14,-14zm266 78l0 0c0,-8 7,-14 14,-14l125 0c8,0 14,6 14,14l0 0c0,8 -6,14 -14,14l-125 0c-7,0 -14,-6 -14,-14zm-157 0l0 0c0,-7 7,-14 14,-14l97 0c7,0 14,6 14,14l0 0c0,8 -7,14 -14,14l-97 0c-7,0 -14,-6 -14,-14zm0 -92l0 0c0,-8 6,-14 14,-14l157 0c8,0 14,6 14,14l0 0c0,8 -6,14 -14,14l-157 0c-8,0 -14,-6 -14,-14z"/>
 </g>
</svg>
