<?xml version="1.0" encoding="UTF-8"?>
<!DOCTYPE svg PUBLIC "-//W3C//DTD SVG 1.1//EN" "http://www.w3.org/Graphics/SVG/1.1/DTD/svg11.dtd">
<!-- Creator: CorelDRAW X8 -->
<svg xmlns="http://www.w3.org/2000/svg" xml:space="preserve" width="1000px" height="1000px" version="1.1" shape-rendering="geometricPrecision" text-rendering="geometricPrecision" image-rendering="optimizeQuality" fill-rule="evenodd" clip-rule="evenodd"
viewBox="0 0 1000 1000"
 xmlns:xlink="http://www.w3.org/1999/xlink">
 <g id="Capa_x0020_1">
  <metadata id="CorelCorpID_0Corel-Layer"/>
  <g id="_1637397988832">
   <path fill="#2563EB" d="M438 329l0 0c0,-8 6,-14 14,-14l157 0c8,0 14,6 14,14l0 0c0,8 -6,14 -14,14l-157 0c-8,0 -14,-6 -14,-14z"/>
   <path fill="#2563EB" d="M438 421l0 0c0,-7 7,-14 14,-14l97 0c7,0 14,6 14,14l0 0c0,8 -7,14 -14,14l-97 0c-7,0 -14,-6 -14,-14z"/>
   <path fill="#2563EB" d="M595 421l0 0c0,-8 7,-14 14,-14l125 0c8,0 14,6 14,14l0 0c0,8 -6,14 -14,14l-125 0c-7,0 -14,-6 -14,-14z"/>
   <rect fill="#2563EB" transform="matrix(-1.51437 -1.29011 1.29011 -1.51437 312.504 594.977)" width="14.0327" height="49.9111" rx="7" ry="7"/>
   <path fill="#2563EB" d="M357 435l0 0 -21 0 -50 0 -21 0 0 0c-8,0 -14,-6 -14,-14l0 0 0 -21 0 -50 0 -21 0 0c0,-8 6,-14 14,-14l0 0 21 0 50 0 21 0 0 0c8,0 14,6 14,14l0 0 0 21 0 50 0 21 0 0c0,8 -6,14 -14,14zm-28 -92l0 0 -11 0 -8 0 -17 0 0 0c-8,0 -14,6 -14,14l0 0 0 11 0 8 0 17 0 0c0,8 6,14 14,14l0 0 11 0 9 0 16 0 0 0c8,0 14,-6 14,-14l0 0 0 -11 0 -8 0 -17 0 0c0,-8 -6,-14 -14,-14z"/>
   <path fill="#2563EB" d="M357 807l0 0 -21 0 -50 0 -21 0 0 0c-8,0 -14,-6 -14,-14l0 0 0 -21 0 -50 0 -21 0 0c0,-8 6,-14 14,-14l0 0 21 0 50 0 21 0 0 0c8,0 14,6 14,14l0 0 0 21 0 50 0 21 0 0c0,8 -6,14 -14,14zm-28 -92l0 0 -11 0 -8 0 -17 0 0 0c-8,0 -14,6 -14,14l0 0 0 11 0 8 0 17 0 0c0,8 6,14 14,14l0 0 11 0 9 0 16 0 0 0c8,0 14,-6 14,-14l0 0 0 -11 0 -8 0 -17 0 0c0,-8 -6,-14 -14,-14z"/>
   <path fill="#2563EB" d="M279 610l0 0 0 0 0 0 0 0 -1 0 -24 -29c-5,-5 -4,-14 2,-19l0 0c6,-5 15,-5 20,1l13 16 36 -42c5,-5 14,-6 20,-1l0 0c5,5 6,14 1,19l-46 54c0,1 -1,2 -2,2l0 0c-5,5 -14,5 -19,-1z"/>
   <path fill="#2563EB" d="M438 515l0 0c0,-8 6,-14 14,-14l36 0c7,0 14,6 14,14l0 0c0,8 -7,14 -14,14l-36 0c-8,0 -14,-6 -14,-14z"/>
   <path fill="#2563EB" d="M682 607l0 0c0,-8 7,-14 14,-14l36 0c8,0 14,6 14,14l0 0c0,8 -6,14 -14,14l-36 0c-7,0 -14,-6 -14,-14z"/>
   <path fill="#2563EB" d="M533 515l0 0c0,-8 6,-14 14,-14l187 0c8,0 14,6 14,14l0 0c0,8 -6,14 -14,14l-187 0c-8,0 -14,-6 -14,-14z"/>
   <path fill="#2563EB" d="M438 607l0 0c0,-8 6,-14 14,-14l188 0c7,0 14,6 14,14l0 0c0,8 -7,14 -14,14l-188 0c-8,0 -14,-6 -14,-14z"/>
   <path fill="#2563EB" d="M438 701l0 0c0,-8 6,-14 14,-14l110 0c8,0 14,6 14,14l0 0c0,8 -6,14 -14,14l-110 0c-8,0 -14,-6 -14,-14z"/>
   <path fill="#2563EB" d="M438 793l0 0c0,-8 6,-14 14,-14l45 0c8,0 14,6 14,14l0 0c0,8 -6,14 -14,14l-45 0c-8,0 -14,-6 -14,-14z"/>
   <path fill="#2563EB" d="M553 941l0 0 71 0c8,0 14,6 14,14l0 0c0,7 -6,14 -14,14l-8 0 -63 0 -378 0 -69 0 -2 0 0 0c-8,0 -14,-7 -14,-14l0 0 0 -1 0 -71 0 -766 0 -66 0 -6 0 0c0,-7 6,-14 14,-14l0 0 5 0 66 0 424 0 59 0 12 0c4,0 8,1 11,4l50 51 0 0 106 106c6,5 6,14 0,20l0 0c-5,5 -14,5 -20,0l-50 -51 0 0 -94 -94 0 0 -4 -4c-2,-2 -6,-4 -9,-4l-1 0 -1 0 -6 0 -53 0 -424 0 -43 0c-8,0 -14,6 -14,14l0 44 0 766 0 33 0 11 0 0c0,8 6,14 14,14l421 0zm357 -506c0,0 0,0 0,1l0 64 0 7c0,8 -6,14 -14,14l0 0c-8,0 -14,-6 -14,-14l0 -71 0 -1 0 -97 0 -57 -138 0c-4,0 -8,-1 -11,-4l-50 -51 0 0 -6 -6 0 0 -8 -7c-3,-3 -4,-7 -4,-11l0 -73 0 -3c0,-7 7,-14 14,-14l0 0c8,0 14,7 14,14l0 58 0 6c0,4 1,8 4,11l4 4 0 0 29 29 11 11 4 4c2,2 5,3 8,4l142 0c0,0 1,0 1,0l0 0c8,0 14,6 14,13l0 1 0 0 0 71c0,0 0,1 0,1l0 96z"/>
   <path fill="#2563EB" d="M611 786l0 0c1,0 1,0 2,0l122 71c1,1 3,1 4,0l0 0 0 0 0 0c1,0 2,0 2,0l15 -9 2 -1 0 0 37 -21 -57 -33 0 0 -13 -7 0 0 -1 -1c-4,-2 -5,-7 -3,-11l0 0c2,-4 7,-6 11,-4l4 3 0 0 77 44 50 -30c1,-1 2,-1 2,-2l0 0c1,0 2,-1 2,-2l0 0c2,-4 1,-9 -3,-11l-3 -2 0 0 -11 -6 0 0 -109 -63c-2,-1 -3,-1 -5,-1l0 0 0 0 0 0c0,0 -1,0 -1,1l-109 63 0 0 -12 7 -1 0 0 0 -1 1c-4,2 -5,7 -3,11l0 0c1,1 1,2 2,3l0 0zm41 92l0 0 -1 -1 -10 -6 -16 -9 0 -4c0,-1 0,-2 0,-2l0 -2 0 -41 -33 -19 0 0 -14 -8c0,0 -1,-1 -1,-1l0 0 -1 0c0,-1 0,-1 -1,-2l0 0c-2,-4 -1,-9 3,-11l14 -8 0 0 141 -82c1,0 1,0 1,0l4 -3 4 3c0,0 0,0 0,0l142 82 0 0 14 8c4,2 5,7 3,11l0 0c-1,1 -1,1 -2,2l0 0 0 0c0,0 -1,1 -2,1l-13 8 0 0 -33 19 0 23 0 9 0 5c0,1 0,2 0,3l0 0 0 0 0 0c-1,2 -3,4 -5,5l-18 11 0 65 15 13 3 2c4,3 5,9 1,13l0 0c-4,3 -9,4 -13,1l-2 -1 0 0 -6 -6c-2,-1 -4,-2 -6,-2l0 0c-3,0 -5,1 -7,2l-8 7c-4,3 -10,3 -13,-1l0 0c-2,-4 -2,-10 2,-13l4 -4 0 0 12 -10 0 -4 0 0 0 -52 -71 41 -2 1c0,0 -1,1 -1,1l-4 2 -3 -2c-1,0 -1,-1 -1,-1l-76 -43zm-11 -50c1,0 1,1 1,1l-1 15 0 4c1,1 1,1 1,2l0 0 0 0 0 0c0,1 1,3 3,4l84 49c2,0 3,0 5,0l0 0 0 0 0 0c1,0 1,0 1,0l75 -43 0 -23 -72 41 -4 -2c0,0 -1,0 -1,-1l-92 -52 0 5zm193 -5l0 0 0 17c0,1 0,3 0,4l0 0 0 0 0 0c-1,1 -2,2 -3,3l-3 2 0 -23 6 -3z"/>
  </g>
 </g>
</svg>
